<svg width="26" height="23" viewBox="0 0 26 23" fill="none" xmlns="http://www.w3.org/2000/svg">
<g clip-path="url(#clip0_1148_1949)">
<path d="M9.20001 22.96C10.3764 22.96 11.33 22.0064 11.33 20.83C11.33 19.6536 10.3764 18.7 9.20001 18.7C8.02364 18.7 7.07001 19.6536 7.07001 20.83C7.07001 22.0064 8.02364 22.96 9.20001 22.96Z" fill="white"/>
<path d="M20.95 22.96C22.1264 22.96 23.08 22.0064 23.08 20.83C23.08 19.6536 22.1264 18.7 20.95 18.7C19.7736 18.7 18.82 19.6536 18.82 20.83C18.82 22.0064 19.7736 22.96 20.95 22.96Z" fill="white"/>
<path d="M6.26 5.51H25.02L23.06 13.67L9.26 16.06L4.83 0.5H0.5" stroke="white" stroke-miterlimit="10" stroke-linecap="round" stroke-linejoin="round"/>
</g>
<defs>
<clipPath id="clip0_1148_1949">
<rect width="25.52" height="22.96" fill="white"/>
</clipPath>
</defs>
</svg>
