<svg width="1202" height="500" viewBox="0 0 1202 500" preserveAspectRatio="none" fill="none" xmlns="http://www.w3.org/2000/svg">
<g clip-path="url(#clip0_122_12294)">
<path d="M-40 -52H1236V552H-40V-52Z" fill="#C90045" fill-opacity="0.1"/>
<g clip-path="url(#clip1_122_12294)">
<path d="M514.69 -77.32L499.09 -69.85L501.4 -65.03L517 -72.5C519.54 -73.72 520.95 -76.27 520.52 -78.86C520.11 -81.29 518.18 -83.05 515.61 -83.34L498.05 -85.28L512.69 -92.29L510.38 -97.11L495.69 -90.07C493.35 -88.95 492.04 -86.58 492.45 -84.18C492.83 -81.91 494.62 -80.27 497.01 -80L515.01 -78.01C515.15 -77.99 515.22 -77.97 515.24 -77.95C515.26 -77.85 515.17 -77.55 514.69 -77.32ZM543.69 451.68L528.09 459.15L530.4 463.97L546 456.5C548.54 455.28 549.95 452.73 549.52 450.14C549.11 447.71 547.18 445.95 544.61 445.66L527.05 443.72L541.69 436.71L539.38 431.89L524.69 438.93C522.35 440.05 521.04 442.42 521.45 444.82C521.83 447.09 523.62 448.73 526.01 449L544.01 450.99C544.15 451.01 544.22 451.03 544.24 451.05C544.26 451.15 544.17 451.45 543.69 451.68ZM561.49 327.45L561.64 327.06L542.03 319.99C538.31 329.19 530.7 335.91 521.1 338.42C513.08 340.52 504.71 339.38 497.56 335.19C490.39 331.01 485.29 324.28 483.19 316.25C481.1 308.24 482.24 299.88 486.44 292.7C490.63 285.54 497.35 280.43 505.37 278.32C515.03 275.79 525.04 277.95 532.82 284.27L534.17 285.37L547.3 269.19L545.95 268.1C533.16 257.72 516.02 254 500.09 258.18C472.41 265.44 455.79 293.86 463.05 321.54C466.57 334.95 475.1 346.18 487.06 353.18C489.83 354.81 492.76 356.18 495.74 357.26C505.58 360.81 516.19 361.26 526.4 358.58C542.3 354.4 555.43 342.77 561.49 327.45ZM764.96 38.87C768.02 38.09 771.21 38.54 773.92 40.15C776.64 41.76 778.57 44.33 779.35 47.4C780.13 50.46 779.68 53.64 778.06 56.36C776.45 59.08 773.88 61.01 770.82 61.8C767.13 62.74 763.32 61.9 760.38 59.47L759.87 59.05L754.83 65.19L755.34 65.61C760.19 69.59 766.71 71.05 772.79 69.49C783.35 66.79 789.75 55.99 787.04 45.43C785.73 40.31 782.51 36.01 777.96 33.32C776.91 32.69 775.8 32.16 774.66 31.75C770.92 30.38 766.88 30.18 762.98 31.18C756.91 32.73 751.88 37.14 749.54 42.96L749.48 43.11L756.94 45.85C758.39 42.35 761.3 39.81 764.96 38.87ZM412.88 -173.64C415.94 -174.42 419.13 -173.97 421.84 -172.36C424.56 -170.75 426.49 -168.18 427.27 -165.11C428.05 -162.05 427.6 -158.87 425.98 -156.15C424.37 -153.43 421.8 -151.5 418.74 -150.71C415.05 -149.77 411.24 -150.61 408.3 -153.04L407.79 -153.46L402.75 -147.32L403.26 -146.9C408.11 -142.92 414.63 -141.46 420.71 -143.02C431.27 -145.72 437.67 -156.52 434.96 -167.08C433.65 -172.2 430.43 -176.5 425.88 -179.19C424.83 -179.82 423.72 -180.35 422.58 -180.76C418.84 -182.13 414.8 -182.33 410.9 -181.33C404.83 -179.78 399.8 -175.37 397.46 -169.55L397.4 -169.4L404.86 -166.66C406.31 -170.17 409.22 -172.71 412.88 -173.64ZM487.05 -144.83C489.82 -143.2 492.75 -141.83 495.73 -140.75C505.57 -137.2 516.18 -136.75 526.39 -139.43C542.3 -143.6 555.43 -155.23 561.49 -170.55L561.64 -170.94L542.03 -178.01C538.31 -168.81 530.7 -162.09 521.1 -159.58C513.08 -157.48 504.71 -158.62 497.56 -162.81C490.39 -166.99 485.29 -173.72 483.19 -181.75C481.1 -189.76 482.24 -198.12 486.44 -205.3C490.63 -212.46 497.35 -217.57 505.37 -219.68C515.03 -222.21 525.04 -220.05 532.82 -213.73L534.17 -212.63L547.3 -228.81L545.95 -229.9C533.16 -240.28 516.02 -244 500.09 -239.82C472.41 -232.56 455.79 -204.14 463.05 -176.46C466.56 -163.05 475.09 -151.82 487.05 -144.83ZM597.37 -6.44V-6.32001C586.43 -15.47 570.46 -17.2 557.56 -9.47C549.67 -4.73999 544.1 2.78 541.87 11.69C541.35 13.76 541.02 15.88 540.89 17.98C540.46 24.91 542.14 31.74 545.74 37.75C551.35 47.11 561.19 53.31 572.08 54.32L572.36 54.34L573.22 40.54C566.67 39.88 560.98 36.28 557.6 30.64C554.77 25.93 553.95 20.38 555.29 15.05C556.62 9.70999 559.96 5.20999 564.68 2.38C569.39 -0.440002 574.93 -1.27002 580.28 0.0799866C585.62 1.41998 590.12 4.75 592.95 9.45999C596.36 15.14 596.84 21.92 594.26 28.04L593.81 29.1L597.39 30.6V30.54L606.69 34.45L607.13 33.39C611.37 23.32 610.55 11.71 604.93 2.34C602.86 -1.08002 600.29 -4.01999 597.37 -6.44ZM436.18 203.25L449.79 200.8C448.88 194.28 451.01 187.9 455.7 183.27C459.61 179.4 464.8 177.28 470.29 177.32C475.79 177.34 480.96 179.51 484.83 183.43C488.69 187.34 490.81 192.52 490.78 198.03C490.75 203.54 488.59 208.7 484.68 212.57C479.97 217.23 473.5 219.31 466.94 218.26L465.8 218.07L463.63 231.72L464.77 231.9C475.56 233.62 486.64 230.07 494.4 222.39C507.89 209.04 508.01 187.2 494.65 173.71C488.18 167.17 479.56 163.55 470.37 163.5C468.24 163.49 466.1 163.67 464.03 164.04C457.2 165.27 450.96 168.53 445.98 173.45C438.22 181.12 434.54 192.16 436.14 202.97L436.18 203.25ZM769.49 322.9L783.1 331.85C785.27 333.28 787.97 333.17 789.82 331.59C791.56 330.09 792.05 327.71 791.04 325.53L783.45 309.09C783.39 308.96 783.38 308.89 783.38 308.86C783.48 308.78 783.77 308.71 784.22 309L798.67 318.5L801.61 314.03L787.16 304.53C784.81 302.98 781.89 303.09 779.9 304.8C778.03 306.41 777.51 308.97 778.59 311.32L785.99 327.36L772.43 318.44L769.49 322.9ZM812.01 402.31L822.82 406.08L823.13 405.18C826.11 396.64 824.84 387.09 819.72 379.63C810.81 366.68 793.03 363.39 780.08 372.29C773.8 376.61 769.59 383.1 768.2 390.59C767.88 392.33 767.71 394.09 767.71 395.84C767.71 401.59 769.45 407.15 772.74 411.93C777.86 419.38 786.31 423.99 795.36 424.27L795.59 424.28V412.83C790.14 412.62 785.25 409.94 782.17 405.45C779.59 401.7 778.62 397.16 779.46 392.68C780.29 388.2 782.81 384.31 786.57 381.73C790.32 379.16 794.85 378.19 799.34 379.02C803.82 379.85 807.71 382.37 810.29 386.12C813.4 390.64 814.14 396.22 812.33 401.41L812.01 402.31ZM770.83 559.8C767.14 560.74 763.33 559.9 760.39 557.47L759.88 557.05L754.84 563.19L755.35 563.61C760.2 567.59 766.72 569.05 772.8 567.49C783.36 564.79 789.76 553.99 787.05 543.43C785.74 538.31 782.52 534.01 777.97 531.32C776.92 530.69 775.81 530.16 774.67 529.75C770.93 528.38 766.89 528.18 762.99 529.18C756.92 530.73 751.89 535.14 749.55 540.96L749.49 541.11L756.95 543.85C758.39 540.35 761.3 537.81 764.96 536.87C768.02 536.09 771.21 536.54 773.92 538.15C776.64 539.76 778.57 542.33 779.35 545.4C780.13 548.46 779.68 551.64 778.06 554.36C776.46 557.09 773.89 559.02 770.83 559.8ZM760.66 232H761.13C764.68 235.68 768.69 238.96 773.1 241.71C798.97 257.86 832.08 253.09 852.48 232H852.98C855.84 228.98 858.44 225.63 860.73 221.97C869.73 207.56 872.57 190.51 868.75 173.97C867.87 170.13 866.64 166.37 865.09 162.8C859.98 151.04 851.46 141.21 840.49 134.35C823.4 123.67 801.99 121.75 783.23 129.23L782.76 129.42L792.95 152.85C804.28 148.43 816.67 149.56 826.98 156.01C835.6 161.39 841.61 169.82 843.89 179.71C846.19 189.61 844.48 199.82 839.09 208.44C833.71 217.04 825.29 223.05 815.37 225.34C805.46 227.62 795.26 225.93 786.64 220.56C776.26 214.08 769.78 203.33 768.86 191.09L768.71 188.96L743.24 190.86L743.41 192.98C744.48 207.71 750.72 221.47 760.66 232ZM615.05 153.86C620.51 150.11 627.24 149.21 633.51 151.4L634.6 151.78L639.15 138.73L638.06 138.35C627.74 134.75 616.21 136.28 607.21 142.47C603.1 145.3 599.81 148.87 597.36 152.87C590.8 163.62 590.44 177.53 597.36 188.81C597.67 189.32 598 189.83 598.35 190.33C603.56 197.91 611.41 203 620.45 204.67C622.55 205.06 624.68 205.26 626.78 205.26C633.72 205.26 640.44 203.16 646.21 199.19C655.2 193.01 660.77 182.8 661.11 171.87L661.12 171.59H647.29C647.04 178.17 643.8 184.07 638.38 187.8C633.85 190.92 628.37 192.08 622.96 191.08C617.55 190.08 612.85 187.03 609.73 182.5C606.62 177.97 605.45 172.5 606.46 167.08C607.48 161.68 610.52 156.98 615.05 153.86ZM661.33 55.21L671.45 67.98C673.06 70.02 675.66 70.76 677.91 69.83C680.04 68.95 681.24 66.84 680.97 64.46L678.91 46.47C678.89 46.33 678.91 46.26 678.92 46.23C679.04 46.18 679.34 46.21 679.67 46.63L690.41 60.18L694.6 56.86L683.86 43.31C682.11 41.1 679.3 40.29 676.88 41.29C674.6 42.23 673.31 44.5 673.6 47.07L675.61 64.62L665.52 51.9L661.33 55.21ZM662.19 276.46C665.18 280.81 669.69 283.74 674.88 284.7C676.08 284.92 677.31 285.04 678.52 285.04C682.51 285.04 686.37 283.83 689.68 281.55C694.84 278 698.05 272.13 698.24 265.86V265.7H690.3C690.15 269.48 688.3 272.87 685.18 275.01C682.58 276.8 679.43 277.47 676.32 276.89C673.21 276.32 670.51 274.57 668.72 271.96C666.93 269.36 666.26 266.21 666.84 263.1C667.42 259.99 669.16 257.29 671.77 255.5C674.91 253.34 678.77 252.83 682.38 254.08L683.01 254.3L685.63 246.8L685 246.58C679.07 244.51 672.45 245.39 667.28 248.95C658.3 255.14 656.01 267.48 662.19 276.46ZM674.89 -213.3C676.09 -213.08 677.32 -212.96 678.53 -212.96C682.52 -212.96 686.38 -214.17 689.69 -216.45C694.85 -220 698.06 -225.87 698.25 -232.14V-232.3H690.31C690.16 -228.52 688.31 -225.13 685.19 -222.99C682.59 -221.2 679.44 -220.53 676.33 -221.11C673.22 -221.68 670.52 -223.43 668.73 -226.04C666.94 -228.64 666.27 -231.79 666.85 -234.9C667.43 -238.01 669.17 -240.71 671.78 -242.5C674.92 -244.66 678.78 -245.17 682.39 -243.92L683.02 -243.7L685.64 -251.2L685.01 -251.42C679.08 -253.49 672.46 -252.61 667.29 -249.05C658.31 -242.87 656.02 -230.54 662.2 -221.55C665.19 -217.19 669.69 -214.26 674.89 -213.3ZM536.69 125.16L553.23 117.78C553.36 117.72 553.43 117.71 553.46 117.71C553.54 117.81 553.61 118.1 553.31 118.55L543.63 132.88L548.06 135.88L557.74 121.55C559.32 119.22 559.24 116.3 557.56 114.28C555.98 112.39 553.42 111.84 551.06 112.89L534.93 120.09L544.02 106.64L539.59 103.64L530.47 117.14C529.01 119.29 529.09 121.99 530.65 123.86C532.12 125.62 534.49 126.13 536.69 125.16ZM117.05 153.86C122.51 150.11 129.24 149.21 135.51 151.4L136.6 151.78L141.15 138.73L140.06 138.35C129.74 134.75 118.21 136.28 109.21 142.47C105.44 145.06 102.36 148.27 99.99 151.88C99.77 152.21 99.56 152.54 99.36 152.88V153.95C93.61 164.2 93.32 177.04 99.36 187.74V188.83C99.56 189.16 99.78 189.48 99.99 189.8C100.11 189.98 100.22 190.17 100.35 190.35C105.56 197.93 113.41 203.02 122.45 204.69C124.55 205.08 126.68 205.28 128.78 205.28C135.72 205.28 142.44 203.18 148.21 199.21C157.2 193.03 162.77 182.82 163.11 171.89L163.12 171.61H149.3C149.05 178.19 145.81 184.09 140.39 187.82C135.86 190.94 130.38 192.1 124.97 191.1C119.56 190.1 114.86 187.05 111.74 182.52C108.63 177.99 107.46 172.52 108.47 167.1C109.48 161.68 112.52 156.98 117.05 153.86ZM271.49 322.9L285.1 331.85C287.27 333.28 289.97 333.17 291.82 331.59C293.56 330.09 294.05 327.71 293.04 325.53L285.45 309.09C285.39 308.96 285.38 308.89 285.38 308.86C285.48 308.78 285.77 308.71 286.22 309L300.67 318.5L303.61 314.03L289.16 304.53C286.81 302.98 283.89 303.09 281.9 304.8C280.03 306.41 279.51 308.97 280.59 311.32L287.99 327.36L274.43 318.44L271.49 322.9ZM99.37 -6.84C88.46 -15.54 72.84 -17.05 60.19 -9.47C52.3 -4.73999 46.73 2.78 44.5 11.69C43.98 13.76 43.65 15.88 43.52 17.98C43.09 24.91 44.77 31.74 48.37 37.75C53.98 47.11 63.82 53.31 74.71 54.32L74.99 54.34L75.85 40.54C69.3 39.88 63.61 36.28 60.23 30.64C57.4 25.93 56.58 20.38 57.92 15.05C59.25 9.70999 62.59 5.20999 67.31 2.38C72.02 -0.440002 77.56 -1.27002 82.91 0.0799866C88.25 1.41998 92.75 4.75 95.58 9.45999C98.99 15.14 99.47 21.92 96.89 28.04L96.44 29.1L99.39 30.34V30.55L100.02 30.82L108.69 34.47L109.13 33.41C113.37 23.34 112.55 11.73 106.93 2.35999C105.02 -0.820007 102.67 -3.58002 100.01 -5.89001V-6.31C99.79 -6.48999 99.58 -6.66998 99.37 -6.84ZM176.89 -213.3C178.09 -213.08 179.32 -212.96 180.53 -212.96C184.52 -212.96 188.38 -214.17 191.69 -216.45C196.85 -220 200.06 -225.87 200.25 -232.14V-232.3H192.31C192.16 -228.52 190.31 -225.13 187.19 -222.99C184.59 -221.2 181.44 -220.53 178.33 -221.11C175.22 -221.68 172.52 -223.43 170.73 -226.04C168.94 -228.64 168.27 -231.79 168.85 -234.9C169.43 -238.01 171.17 -240.71 173.78 -242.5C176.92 -244.66 180.78 -245.17 184.39 -243.92L185.02 -243.7L187.64 -251.2L187 -251.41C181.07 -253.48 174.45 -252.6 169.28 -249.04C160.3 -242.86 158.01 -230.53 164.19 -221.54C167.19 -217.19 171.69 -214.26 176.89 -213.3ZM163.33 55.21L173.45 67.98C175.06 70.02 177.66 70.76 179.91 69.83C182.04 68.95 183.24 66.84 182.97 64.46L180.91 46.47C180.89 46.33 180.91 46.26 180.92 46.23C181.04 46.18 181.34 46.21 181.67 46.63L192.41 60.18L196.6 56.86L185.86 43.31C184.11 41.1 181.3 40.29 178.88 41.29C176.6 42.23 175.31 44.5 175.6 47.07L177.61 64.62L167.52 51.9L163.33 55.21ZM64.12 327.45L64.27 327.06L44.66 319.99C40.94 329.19 33.33 335.91 23.73 338.42C15.71 340.52 7.34 339.38 0.190002 335.19C-6.98001 331.01 -12.08 324.28 -14.18 316.25C-16.27 308.24 -15.13 299.88 -10.93 292.7C-6.73999 285.54 -0.019989 280.43 8 278.32C17.66 275.79 27.67 277.95 35.45 284.27L36.8 285.37L49.93 269.19L48.58 268.1C35.79 257.72 18.65 254 2.72 258.18C-24.96 265.44 -41.58 293.86 -34.32 321.54C-30.8 334.95 -22.27 346.18 -10.31 353.18C-7.54001 354.81 -4.61002 356.18 -1.63 357.26C8.20999 360.81 18.82 361.26 29.03 358.58C44.93 354.4 58.06 342.77 64.12 327.45ZM46.32 451.68L30.72 459.15L33.03 463.97L48.63 456.5C51.17 455.28 52.58 452.73 52.15 450.14C51.74 447.71 49.81 445.95 47.24 445.66L29.68 443.72L44.32 436.71L42.01 431.89L27.32 438.93C24.98 440.05 23.67 442.42 24.08 444.82C24.46 447.09 26.25 448.73 28.64 449L46.64 450.99C46.78 451.01 46.85 451.03 46.87 451.05C46.89 451.15 46.8 451.45 46.32 451.68ZM164.19 276.46C167.18 280.81 171.69 283.74 176.88 284.7C178.08 284.92 179.31 285.04 180.52 285.04C184.51 285.04 188.37 283.83 191.68 281.55C196.84 278 200.05 272.13 200.24 265.86V265.7H192.3C192.15 269.48 190.3 272.87 187.18 275.01C184.58 276.8 181.43 277.47 178.32 276.89C175.21 276.32 172.51 274.57 170.72 271.96C168.93 269.36 168.26 266.21 168.84 263.1C169.42 259.99 171.16 257.29 173.77 255.5C176.91 253.34 180.77 252.83 184.38 254.08L185.01 254.3L187.63 246.8L187 246.58C181.07 244.51 174.45 245.39 169.28 248.95C160.3 255.14 158.01 267.48 164.19 276.46ZM266.96 38.87C270.02 38.09 273.21 38.54 275.92 40.15C278.64 41.76 280.57 44.33 281.35 47.4C282.13 50.46 281.68 53.64 280.06 56.36C278.45 59.08 275.88 61.01 272.82 61.8C269.13 62.74 265.32 61.9 262.38 59.47L261.87 59.05L256.83 65.19L257.34 65.61C262.19 69.59 268.71 71.05 274.79 69.49C285.35 66.79 291.75 55.99 289.04 45.43C287.73 40.31 284.51 36.01 279.96 33.32C278.91 32.69 277.8 32.16 276.66 31.75C272.92 30.38 268.88 30.18 264.98 31.18C258.91 32.73 253.88 37.14 251.54 42.96L251.48 43.11L258.94 45.85C260.39 42.35 263.3 39.81 266.96 38.87ZM272.83 559.8C269.14 560.74 265.33 559.9 262.39 557.47L261.88 557.05L256.84 563.19L257.35 563.61C262.2 567.59 268.72 569.05 274.8 567.49C285.36 564.79 291.76 553.99 289.05 543.43C287.74 538.31 284.52 534.01 279.97 531.32C278.92 530.69 277.81 530.16 276.67 529.75C272.93 528.38 268.89 528.18 264.99 529.18C258.92 530.73 253.89 535.14 251.55 540.96L251.49 541.11L258.95 543.85C260.39 540.35 263.3 537.81 266.96 536.87C270.02 536.09 273.21 536.54 275.92 538.15C278.64 539.76 280.57 542.33 281.35 545.4C282.13 548.46 281.68 551.64 280.06 554.36C278.46 557.09 275.89 559.02 272.83 559.8ZM314.01 -95.69L324.82 -91.92L325.13 -92.82C328.11 -101.36 326.84 -110.91 321.72 -118.37C312.81 -131.32 295.03 -134.61 282.08 -125.71C275.8 -121.39 271.59 -114.9 270.2 -107.41C269.88 -105.67 269.71 -103.91 269.71 -102.16C269.71 -96.41 271.45 -90.85 274.74 -86.07C279.86 -78.62 288.31 -74.01 297.36 -73.73L297.59 -73.72V-85.17C292.14 -85.38 287.25 -88.06 284.17 -92.55C281.59 -96.3 280.62 -100.84 281.46 -105.32C282.29 -109.8 284.81 -113.69 288.57 -116.27C292.32 -118.84 296.85 -119.81 301.34 -118.98C305.82 -118.15 309.71 -115.63 312.29 -111.88C315.4 -107.36 316.14 -101.78 314.33 -96.59L314.01 -95.69ZM354.48 -266H263.13C266.68 -262.32 270.69 -259.04 275.1 -256.29C300.97 -240.13 334.07 -244.91 354.48 -266ZM418.74 337.29C415.05 338.23 411.24 337.39 408.3 334.96L407.79 334.54L402.75 340.68L403.26 341.1C408.11 345.08 414.63 346.54 420.71 344.98C431.27 342.28 437.67 331.48 434.96 320.92C433.65 315.8 430.43 311.5 425.88 308.81C424.83 308.18 423.72 307.65 422.58 307.24C418.84 305.87 414.8 305.67 410.9 306.67C404.83 308.22 399.8 312.63 397.46 318.45L397.4 318.6L404.86 321.34C406.3 317.84 409.21 315.3 412.88 314.36C415.94 313.58 419.13 314.03 421.84 315.64C424.56 317.25 426.49 319.82 427.27 322.89C428.05 325.95 427.6 329.13 425.98 331.85C424.37 334.57 421.8 336.5 418.74 337.29ZM271.49 -175.1L285.1 -166.15C287.27 -164.72 289.97 -164.83 291.82 -166.41C293.56 -167.91 294.05 -170.29 293.04 -172.47L285.45 -188.91C285.39 -189.04 285.38 -189.11 285.38 -189.14C285.48 -189.22 285.77 -189.29 286.22 -189L300.67 -179.5L303.61 -183.97L289.16 -193.47C286.81 -195.02 283.89 -194.91 281.9 -193.2C280.03 -191.59 279.51 -189.03 280.59 -186.68L287.99 -170.64L274.43 -179.56L271.49 -175.1ZM354.08 25.67C355.95 28.48 358.07 31.13 360.39 33.51C368.04 41.39 377.84 46.7 388.71 48.88C405.64 52.27 423.39 47.34 436.16 35.68L436.48 35.38L421.23 19.68C413.48 26.65 403.21 29.49 393 27.43C384.47 25.72 377.09 20.78 372.28 13.54C367.44 6.29001 365.72 -2.39999 367.44 -10.95C369.16 -19.48 374.09 -26.84 381.35 -31.67C388.61 -36.5 397.29 -38.23 405.83 -36.52C416.11 -34.46 424.56 -27.81 428.99 -18.27L429.76 -16.61L449.6 -25.83L448.83 -27.48C441.54 -43.17 427.08 -54.57 410.13 -57.97C380.67 -63.87 351.9 -44.7 346 -15.24C343.15 -0.970001 346.02 13.56 354.08 25.67ZM314.01 402.31L324.82 406.08L325.13 405.18C328.11 396.64 326.84 387.09 321.72 379.63C312.81 366.68 295.03 363.39 282.08 372.29C275.8 376.61 271.59 383.1 270.2 390.59C269.88 392.33 269.71 394.09 269.71 395.84C269.71 401.59 271.45 407.15 274.74 411.93C279.86 419.38 288.31 423.99 297.36 424.27L297.59 424.28V412.83C292.14 412.62 287.25 409.94 284.17 405.45C281.59 401.7 280.62 397.16 281.46 392.68C282.29 388.2 284.81 384.31 288.57 381.73C292.32 379.16 296.85 378.19 301.34 379.02C305.82 379.85 309.71 382.37 312.29 386.12C315.4 390.64 316.14 396.22 314.33 401.41L314.01 402.31ZM262.66 232H263.13C266.68 235.68 270.69 238.96 275.1 241.71C300.97 257.86 334.08 253.09 354.48 232H354.98C357.84 228.98 360.44 225.63 362.73 221.97C371.73 207.56 374.57 190.51 370.75 173.97C369.87 170.13 368.64 166.37 367.09 162.8C361.98 151.04 353.46 141.21 342.49 134.35C325.4 123.67 303.99 121.75 285.23 129.23L284.76 129.42L294.95 152.85C306.28 148.43 318.67 149.56 328.98 156.01C337.6 161.39 343.61 169.82 345.89 179.71C348.19 189.61 346.48 199.82 341.09 208.44C335.71 217.04 327.29 223.05 317.37 225.34C307.46 227.62 297.26 225.93 288.64 220.56C278.26 214.08 271.78 203.33 270.86 191.09L270.71 188.96L245.24 190.86L245.41 192.98C246.48 207.71 252.72 221.47 262.66 232ZM1510.69 -77.32L1495.09 -69.85L1497.4 -65.03L1512.99 -72.5C1515.53 -73.72 1516.94 -76.27 1516.51 -78.86C1516.1 -81.29 1514.17 -83.05 1511.6 -83.34L1494.04 -85.28L1508.68 -92.29L1506.37 -97.11L1491.68 -90.07C1489.34 -88.95 1488.03 -86.58 1488.44 -84.18C1488.82 -81.91 1490.61 -80.27 1493 -80L1511 -78.01C1511.14 -77.99 1511.21 -77.97 1511.23 -77.95C1511.26 -77.85 1511.17 -77.55 1510.69 -77.32ZM1310.01 -95.69L1320.82 -91.92L1321.13 -92.82C1324.11 -101.36 1322.84 -110.91 1317.72 -118.37C1308.81 -131.32 1291.03 -134.61 1278.08 -125.71C1271.8 -121.39 1267.59 -114.9 1266.2 -107.41C1265.88 -105.67 1265.71 -103.91 1265.71 -102.16C1265.71 -96.41 1267.45 -90.85 1270.74 -86.07C1275.86 -78.62 1284.31 -74.01 1293.36 -73.73L1293.59 -73.72V-85.17C1288.14 -85.38 1283.25 -88.06 1280.17 -92.55C1277.59 -96.3 1276.62 -100.84 1277.46 -105.32C1278.29 -109.8 1280.81 -113.69 1284.57 -116.27C1288.32 -118.84 1292.85 -119.81 1297.34 -118.98C1301.82 -118.15 1305.71 -115.63 1308.29 -111.88C1311.4 -107.36 1312.14 -101.78 1310.33 -96.59L1310.01 -95.69ZM1262.96 38.87C1266.02 38.09 1269.21 38.54 1271.92 40.15C1274.64 41.76 1276.57 44.33 1277.35 47.4C1278.13 50.46 1277.68 53.64 1276.06 56.36C1274.45 59.08 1271.88 61.01 1268.82 61.8C1265.13 62.74 1261.32 61.9 1258.38 59.47L1257.87 59.05L1252.83 65.19L1253.34 65.61C1258.19 69.59 1264.71 71.05 1270.79 69.49C1281.35 66.79 1287.75 55.99 1285.04 45.43C1283.73 40.31 1280.51 36.01 1275.96 33.32C1274.91 32.69 1273.8 32.16 1272.66 31.75C1268.92 30.38 1264.88 30.18 1260.98 31.18C1254.91 32.73 1249.88 37.14 1247.54 42.96L1247.48 43.11L1254.94 45.85C1256.39 42.35 1259.3 39.81 1262.96 38.87ZM1267.49 -175.1L1281.1 -166.15C1283.27 -164.72 1285.97 -164.83 1287.82 -166.41C1289.56 -167.91 1290.05 -170.29 1289.04 -172.47L1281.45 -188.91C1281.39 -189.04 1281.38 -189.11 1281.38 -189.14C1281.48 -189.22 1281.77 -189.29 1282.22 -189L1296.67 -179.5L1299.61 -183.97L1285.16 -193.47C1282.81 -195.02 1279.89 -194.91 1277.9 -193.2C1276.03 -191.59 1275.51 -189.03 1276.59 -186.68L1283.99 -170.64L1270.43 -179.56L1267.49 -175.1ZM1350.48 -266H1259.13C1262.68 -262.32 1266.69 -259.04 1271.1 -256.29C1296.97 -240.13 1330.07 -244.91 1350.48 -266ZM1267.49 322.9L1281.1 331.85C1283.27 333.28 1285.97 333.17 1287.82 331.59C1289.56 330.09 1290.05 327.71 1289.04 325.53L1281.45 309.09C1281.39 308.96 1281.38 308.89 1281.38 308.86C1281.48 308.78 1281.77 308.71 1282.22 309L1296.67 318.5L1299.61 314.03L1285.16 304.53C1282.81 302.98 1279.89 303.09 1277.9 304.8C1276.03 306.41 1275.51 308.97 1276.59 311.32L1283.99 327.36L1270.43 318.44L1267.49 322.9ZM1414.74 337.29C1411.05 338.23 1407.24 337.39 1404.3 334.96L1403.79 334.54L1398.75 340.68L1399.26 341.1C1404.11 345.08 1410.63 346.54 1416.71 344.98C1427.27 342.28 1433.67 331.48 1430.96 320.92C1429.65 315.8 1426.43 311.5 1421.88 308.81C1420.83 308.18 1419.72 307.65 1418.58 307.24C1414.84 305.87 1410.8 305.67 1406.9 306.67C1400.83 308.22 1395.8 312.63 1393.46 318.45L1393.4 318.6L1400.86 321.34C1402.3 317.84 1405.21 315.3 1408.88 314.36C1411.94 313.58 1415.13 314.03 1417.84 315.64C1420.56 317.25 1422.49 319.82 1423.27 322.89C1424.05 325.95 1423.6 329.13 1421.98 331.85C1420.37 334.57 1417.8 336.5 1414.74 337.29ZM1310.01 402.31L1320.82 406.08L1321.13 405.18C1324.11 396.64 1322.84 387.09 1317.72 379.63C1308.81 366.68 1291.03 363.39 1278.08 372.29C1271.8 376.61 1267.59 383.1 1266.2 390.59C1265.88 392.33 1265.71 394.09 1265.71 395.84C1265.71 401.59 1267.45 407.15 1270.74 411.93C1275.86 419.38 1284.31 423.99 1293.36 424.27L1293.59 424.28V412.83C1288.14 412.62 1283.25 409.94 1280.17 405.45C1277.59 401.7 1276.62 397.16 1277.46 392.68C1278.29 388.2 1280.81 384.31 1284.57 381.73C1288.32 379.16 1292.85 378.19 1297.34 379.02C1301.82 379.85 1305.71 382.37 1308.29 386.12C1311.4 390.64 1312.14 396.22 1310.33 401.41L1310.01 402.31ZM1258.66 232H1259.13C1262.68 235.68 1266.69 238.96 1271.1 241.71C1296.97 257.86 1330.08 253.09 1350.48 232H1350.98C1353.84 228.98 1356.44 225.63 1358.73 221.97C1367.73 207.56 1370.57 190.51 1366.75 173.97C1365.87 170.13 1364.64 166.37 1363.09 162.8C1357.98 151.04 1349.46 141.21 1338.49 134.35C1321.4 123.67 1299.99 121.75 1281.23 129.23L1280.76 129.42L1290.95 152.85C1302.28 148.43 1314.67 149.56 1324.98 156.01C1333.6 161.39 1339.61 169.82 1341.89 179.71C1344.19 189.61 1342.48 199.82 1337.09 208.44C1331.71 217.04 1323.29 223.05 1313.37 225.34C1303.46 227.62 1293.26 225.93 1284.64 220.56C1274.26 214.08 1267.78 203.33 1266.86 191.09L1266.71 188.96L1241.24 190.86L1241.41 192.98C1242.48 207.71 1248.72 221.47 1258.66 232ZM1268.83 559.8C1265.14 560.74 1261.33 559.9 1258.39 557.47L1257.88 557.05L1252.84 563.19L1253.35 563.61C1258.2 567.59 1264.72 569.05 1270.8 567.49C1281.36 564.79 1287.76 553.99 1285.05 543.43C1283.74 538.31 1280.52 534.01 1275.97 531.32C1274.92 530.69 1273.81 530.16 1272.67 529.75C1268.93 528.38 1264.89 528.18 1260.99 529.18C1254.92 530.73 1249.89 535.14 1247.55 540.96L1247.49 541.11L1254.95 543.85C1256.39 540.35 1259.3 537.81 1262.96 536.87C1266.02 536.09 1269.21 536.54 1271.92 538.15C1274.64 539.76 1276.57 542.33 1277.35 545.4C1278.13 548.46 1277.68 551.64 1276.06 554.36C1274.46 557.09 1271.89 559.02 1268.83 559.8ZM1557.49 327.45L1557.64 327.06L1538.03 319.99C1534.31 329.19 1526.7 335.91 1517.1 338.42C1509.08 340.52 1500.71 339.38 1493.56 335.19C1486.39 331.01 1481.29 324.28 1479.19 316.25C1477.1 308.24 1478.24 299.88 1482.44 292.7C1486.63 285.54 1493.35 280.43 1501.37 278.32C1511.03 275.79 1521.04 277.95 1528.82 284.27L1530.17 285.37L1543.3 269.19L1541.95 268.1C1529.16 257.72 1512.02 254 1496.09 258.18C1468.41 265.44 1451.79 293.86 1459.05 321.54C1462.57 334.95 1471.1 346.18 1483.06 353.18C1485.83 354.81 1488.76 356.18 1491.74 357.26C1501.58 360.81 1512.19 361.26 1522.4 358.58C1538.3 354.4 1551.43 342.77 1557.49 327.45ZM1539.69 451.68L1524.09 459.15L1526.4 463.97L1541.99 456.5C1544.53 455.28 1545.94 452.73 1545.51 450.14C1545.1 447.71 1543.17 445.95 1540.6 445.66L1523.04 443.72L1537.68 436.71L1535.37 431.89L1520.68 438.93C1518.34 440.05 1517.03 442.42 1517.44 444.82C1517.82 447.09 1519.61 448.73 1522 449L1540 450.99C1540.14 451.01 1540.21 451.03 1540.23 451.05C1540.26 451.15 1540.17 451.45 1539.69 451.68ZM1535.59 103.64L1526.47 117.14C1525.01 119.29 1525.09 121.99 1526.65 123.86C1528.13 125.62 1530.5 126.13 1532.7 125.16L1549.24 117.78C1549.37 117.72 1549.44 117.71 1549.47 117.71C1549.55 117.81 1549.62 118.1 1549.32 118.55L1539.64 132.88L1544.07 135.88L1553.75 121.55C1555.33 119.22 1555.25 116.3 1553.57 114.28C1551.99 112.39 1549.43 111.84 1547.07 112.89L1530.94 120.09L1540.03 106.64L1535.59 103.64ZM1350.08 25.67C1351.95 28.48 1354.07 31.13 1356.39 33.51C1364.04 41.39 1373.84 46.7 1384.71 48.88C1401.64 52.27 1419.39 47.34 1432.16 35.68L1432.48 35.38L1417.23 19.68C1409.48 26.65 1399.21 29.49 1389 27.43C1380.47 25.72 1373.09 20.78 1368.28 13.54C1363.44 6.29001 1361.72 -2.39999 1363.44 -10.95C1365.16 -19.48 1370.09 -26.84 1377.35 -31.67C1384.61 -36.5 1393.29 -38.23 1401.83 -36.52C1412.11 -34.46 1420.56 -27.81 1424.99 -18.27L1425.76 -16.61L1445.6 -25.83L1444.83 -27.48C1437.54 -43.17 1423.08 -54.57 1406.13 -57.97C1376.67 -63.87 1347.9 -44.7 1342 -15.24C1339.15 -0.970001 1342.02 13.56 1350.08 25.67ZM1483.05 -144.83C1485.82 -143.2 1488.75 -141.83 1491.73 -140.75C1501.57 -137.2 1512.18 -136.75 1522.39 -139.43C1538.3 -143.6 1551.43 -155.23 1557.49 -170.55L1557.64 -170.94L1538.03 -178.01C1534.31 -168.81 1526.7 -162.09 1517.1 -159.58C1509.08 -157.48 1500.71 -158.62 1493.56 -162.81C1486.39 -166.99 1481.29 -173.72 1479.19 -181.75C1477.1 -189.76 1478.24 -198.12 1482.44 -205.3C1486.63 -212.46 1493.35 -217.57 1501.37 -219.68C1511.03 -222.21 1521.04 -220.05 1528.82 -213.73L1530.17 -212.63L1543.3 -228.81L1541.95 -229.9C1529.16 -240.28 1512.02 -244 1496.09 -239.82C1468.41 -232.56 1451.79 -204.14 1459.05 -176.46C1462.56 -163.05 1471.09 -151.82 1483.05 -144.83ZM1408.88 -173.64C1411.94 -174.42 1415.13 -173.97 1417.84 -172.36C1420.56 -170.75 1422.49 -168.18 1423.27 -165.11C1424.05 -162.05 1423.6 -158.87 1421.98 -156.15C1420.37 -153.43 1417.8 -151.5 1414.74 -150.71C1411.05 -149.77 1407.24 -150.61 1404.3 -153.04L1403.79 -153.46L1398.75 -147.32L1399.26 -146.9C1404.11 -142.92 1410.63 -141.46 1416.71 -143.02C1427.27 -145.72 1433.67 -156.52 1430.96 -167.08C1429.65 -172.2 1426.43 -176.5 1421.88 -179.19C1420.83 -179.82 1419.72 -180.35 1418.58 -180.76C1414.84 -182.13 1410.8 -182.33 1406.9 -181.33C1400.83 -179.78 1395.8 -175.37 1393.46 -169.55L1393.4 -169.4L1400.86 -166.66C1402.31 -170.17 1405.22 -172.71 1408.88 -173.64ZM1432.18 203.25L1445.79 200.8C1444.88 194.28 1447.01 187.9 1451.7 183.27C1455.61 179.4 1460.8 177.28 1466.29 177.32C1471.79 177.34 1476.96 179.51 1480.83 183.43C1484.69 187.34 1486.81 192.52 1486.78 198.03C1486.75 203.54 1484.59 208.7 1480.68 212.57C1475.97 217.23 1469.5 219.31 1462.94 218.26L1461.8 218.07L1459.63 231.72L1460.77 231.9C1471.56 233.62 1482.64 230.07 1490.4 222.39C1503.89 209.04 1504.01 187.2 1490.65 173.71C1484.18 167.17 1475.56 163.55 1466.37 163.5C1464.24 163.49 1462.1 163.67 1460.03 164.04C1453.2 165.27 1446.96 168.53 1441.98 173.45C1434.22 181.12 1430.54 192.16 1432.14 202.97L1432.18 203.25ZM17.32 -77.32L1.72 -69.85L4.03 -65.03L19.63 -72.5C22.17 -73.72 23.58 -76.27 23.15 -78.86C22.74 -81.29 20.81 -83.05 18.24 -83.34L0.679993 -85.28L15.32 -92.29L13.01 -97.11L-1.67999 -90.07C-4.01999 -88.95 -5.33002 -86.58 -4.92001 -84.18C-4.54001 -81.91 -2.75 -80.27 -0.359985 -80L17.64 -78.01C17.78 -77.99 17.85 -77.97 17.87 -77.95C17.89 -77.85 17.8 -77.55 17.32 -77.32ZM985.05 -144.83C987.82 -143.2 990.75 -141.83 993.73 -140.75C1003.57 -137.2 1014.18 -136.75 1024.39 -139.43C1040.3 -143.6 1053.43 -155.23 1059.49 -170.55L1059.64 -170.94L1040.03 -178.01C1036.31 -168.81 1028.7 -162.09 1019.1 -159.58C1011.08 -157.48 1002.71 -158.62 995.56 -162.81C988.39 -166.99 983.29 -173.72 981.19 -181.75C979.1 -189.76 980.24 -198.12 984.44 -205.3C988.63 -212.46 995.35 -217.57 1003.37 -219.68C1013.03 -222.21 1023.04 -220.05 1030.82 -213.73L1032.17 -212.63L1045.3 -228.81L1043.95 -229.9C1031.16 -240.28 1014.02 -244 998.09 -239.82C970.41 -232.56 953.79 -204.14 961.05 -176.46C964.56 -163.05 973.09 -151.82 985.05 -144.83ZM910.88 -173.64C913.94 -174.42 917.13 -173.97 919.84 -172.36C922.56 -170.75 924.49 -168.18 925.27 -165.11C926.05 -162.05 925.6 -158.87 923.98 -156.15C922.37 -153.43 919.8 -151.5 916.74 -150.71C913.05 -149.77 909.24 -150.61 906.3 -153.04L905.79 -153.46L900.75 -147.32L901.26 -146.9C906.11 -142.92 912.63 -141.46 918.71 -143.02C929.27 -145.72 935.67 -156.52 932.96 -167.08C931.65 -172.2 928.43 -176.5 923.88 -179.19C922.83 -179.82 921.72 -180.35 920.58 -180.76C916.84 -182.13 912.8 -182.33 908.9 -181.33C902.83 -179.78 897.8 -175.37 895.46 -169.55L895.4 -169.4L902.86 -166.66C904.31 -170.17 907.22 -172.71 910.88 -173.64ZM934.18 203.25L947.79 200.8C946.88 194.28 949.01 187.9 953.7 183.27C957.61 179.4 962.8 177.28 968.29 177.32C973.79 177.34 978.96 179.51 982.83 183.43C986.69 187.34 988.81 192.52 988.78 198.03C988.75 203.54 986.59 208.7 982.68 212.57C977.97 217.23 971.5 219.31 964.94 218.26L963.8 218.07L961.63 231.72L962.77 231.9C973.56 233.62 984.64 230.07 992.4 222.39C1005.89 209.04 1006.01 187.2 992.65 173.71C986.18 167.17 977.56 163.55 968.37 163.5C966.24 163.49 964.1 163.67 962.03 164.04C955.2 165.27 948.96 168.53 943.98 173.45C936.22 181.12 932.54 192.16 934.14 202.97L934.18 203.25ZM852.08 25.67C853.95 28.48 856.07 31.13 858.39 33.51C866.04 41.39 875.84 46.7 886.71 48.88C903.64 52.27 921.39 47.34 934.16 35.68L934.48 35.38L919.23 19.68C911.48 26.65 901.21 29.49 891 27.43C882.47 25.72 875.09 20.78 870.28 13.54C865.44 6.29001 863.72 -2.39999 865.44 -10.95C867.16 -19.48 872.09 -26.84 879.35 -31.67C886.61 -36.5 895.29 -38.23 903.83 -36.52C914.11 -34.46 922.56 -27.81 926.99 -18.27L927.76 -16.61L947.6 -25.83L946.83 -27.48C939.54 -43.17 925.08 -54.57 908.13 -57.97C878.67 -63.87 849.9 -44.7 844 -15.24C841.15 -0.970001 844.02 13.56 852.08 25.67ZM769.49 -175.1L783.1 -166.15C785.27 -164.72 787.97 -164.83 789.82 -166.41C791.56 -167.91 792.05 -170.29 791.04 -172.47L783.45 -188.91C783.39 -189.04 783.38 -189.11 783.38 -189.14C783.48 -189.22 783.77 -189.29 784.22 -189L798.67 -179.5L801.61 -183.97L787.16 -193.47C784.81 -195.02 781.89 -194.91 779.9 -193.2C778.03 -191.59 777.51 -189.03 778.59 -186.68L785.99 -170.64L772.43 -179.56L769.49 -175.1ZM916.74 337.29C913.05 338.23 909.24 337.39 906.3 334.96L905.79 334.54L900.75 340.68L901.26 341.1C906.11 345.08 912.63 346.54 918.71 344.98C929.27 342.28 935.67 331.48 932.96 320.92C931.65 315.8 928.43 311.5 923.88 308.81C922.83 308.18 921.72 307.65 920.58 307.24C916.84 305.87 912.8 305.67 908.9 306.67C902.83 308.22 897.8 312.63 895.46 318.45L895.4 318.6L902.86 321.34C904.3 317.84 907.21 315.3 910.88 314.36C913.94 313.58 917.13 314.03 919.84 315.64C922.56 317.25 924.49 319.82 925.27 322.89C926.05 325.95 925.6 329.13 923.98 331.85C922.37 334.57 919.8 336.5 916.74 337.29ZM1172.89 -213.3C1174.09 -213.08 1175.32 -212.96 1176.53 -212.96C1180.52 -212.96 1184.38 -214.17 1187.69 -216.45C1192.85 -220 1196.06 -225.87 1196.25 -232.14V-232.3H1188.31C1188.16 -228.52 1186.31 -225.13 1183.19 -222.99C1180.59 -221.2 1177.44 -220.53 1174.33 -221.11C1171.22 -221.68 1168.52 -223.43 1166.73 -226.04C1164.94 -228.64 1164.27 -231.79 1164.85 -234.9C1165.43 -238.01 1167.17 -240.71 1169.78 -242.5C1172.92 -244.66 1176.78 -245.17 1180.39 -243.92L1181.02 -243.7L1183.64 -251.2L1183.01 -251.42C1177.08 -253.49 1170.46 -252.61 1165.29 -249.05C1156.31 -242.87 1154.02 -230.54 1160.2 -221.55C1163.19 -217.19 1167.69 -214.26 1172.89 -213.3ZM812.01 -95.69L822.82 -91.92L823.13 -92.82C826.11 -101.36 824.84 -110.91 819.72 -118.37C810.81 -131.32 793.03 -134.61 780.08 -125.71C773.8 -121.39 769.59 -114.9 768.2 -107.41C767.88 -105.67 767.71 -103.91 767.71 -102.16C767.71 -96.41 769.45 -90.85 772.74 -86.07C777.86 -78.62 786.31 -74.01 795.36 -73.73L795.59 -73.72V-85.17C790.14 -85.38 785.25 -88.06 782.17 -92.55C779.59 -96.3 778.62 -100.84 779.46 -105.32C780.29 -109.8 782.81 -113.69 786.57 -116.27C790.32 -118.84 794.85 -119.81 799.34 -118.98C803.82 -118.15 807.71 -115.63 810.29 -111.88C813.4 -107.36 814.14 -101.78 812.33 -96.59L812.01 -95.69ZM852.48 -266H761.13C764.68 -262.32 768.69 -259.04 773.1 -256.29C798.97 -240.13 832.07 -244.91 852.48 -266ZM1034.69 125.16L1051.23 117.78C1051.36 117.72 1051.43 117.71 1051.46 117.71C1051.54 117.81 1051.61 118.1 1051.31 118.55L1041.63 132.88L1046.06 135.88L1055.74 121.55C1057.32 119.22 1057.24 116.3 1055.56 114.28C1053.98 112.39 1051.42 111.84 1049.06 112.89L1032.93 120.09L1042.02 106.64L1037.59 103.64L1028.47 117.14C1027.01 119.29 1027.09 121.99 1028.65 123.86C1030.12 125.62 1032.49 126.13 1034.69 125.16ZM1012.69 -77.32L997.09 -69.85L999.4 -65.03L1014.99 -72.5C1017.53 -73.72 1018.94 -76.27 1018.51 -78.86C1018.1 -81.29 1016.17 -83.05 1013.6 -83.34L996.04 -85.28L1010.68 -92.29L1008.37 -97.11L993.68 -90.07C991.34 -88.95 990.03 -86.58 990.44 -84.18C990.82 -81.91 992.61 -80.27 995 -80L1013 -78.01C1013.14 -77.99 1013.21 -77.97 1013.23 -77.95C1013.26 -77.85 1013.17 -77.55 1012.69 -77.32ZM1159.33 55.21L1169.45 67.98C1171.06 70.02 1173.66 70.76 1175.91 69.83C1178.04 68.95 1179.24 66.84 1178.97 64.46L1176.91 46.47C1176.89 46.33 1176.91 46.26 1176.92 46.23C1177.04 46.18 1177.34 46.21 1177.67 46.63L1188.41 60.18L1192.6 56.86L1181.86 43.31C1180.11 41.1 1177.3 40.29 1174.88 41.29C1172.6 42.23 1171.31 44.5 1171.6 47.07L1173.61 64.62L1163.52 51.9L1159.33 55.21ZM1113.05 153.86C1118.51 150.11 1125.24 149.21 1131.51 151.4L1132.6 151.78L1137.15 138.73L1136.06 138.35C1125.74 134.75 1114.21 136.28 1105.21 142.47C1101.1 145.3 1097.81 148.87 1095.36 152.87C1088.8 163.62 1088.44 177.53 1095.36 188.81C1095.67 189.32 1096 189.83 1096.35 190.33C1101.56 197.91 1109.41 203 1118.45 204.67C1120.55 205.06 1122.68 205.26 1124.78 205.26C1131.72 205.26 1138.44 203.16 1144.21 199.19C1153.2 193.01 1158.77 182.8 1159.11 171.87L1159.12 171.59H1145.29C1145.04 178.17 1141.8 184.07 1136.38 187.8C1131.85 190.92 1126.37 192.08 1120.96 191.08C1115.55 190.08 1110.85 187.03 1107.73 182.5C1104.62 177.97 1103.45 172.5 1104.46 167.08C1105.48 161.68 1108.52 156.98 1113.05 153.86ZM1160.19 276.46C1163.18 280.81 1167.69 283.74 1172.88 284.7C1174.08 284.92 1175.31 285.04 1176.52 285.04C1180.51 285.04 1184.37 283.83 1187.68 281.55C1192.84 278 1196.05 272.13 1196.24 265.86V265.7H1188.3C1188.15 269.48 1186.3 272.87 1183.18 275.01C1180.58 276.8 1177.43 277.47 1174.32 276.89C1171.21 276.32 1168.51 274.57 1166.72 271.96C1164.93 269.36 1164.26 266.21 1164.84 263.1C1165.42 259.99 1167.16 257.29 1169.77 255.5C1172.91 253.34 1176.77 252.83 1180.38 254.08L1181.01 254.3L1183.63 246.8L1183 246.58C1177.07 244.51 1170.45 245.39 1165.28 248.95C1156.3 255.14 1154.01 267.48 1160.19 276.46ZM1059.49 327.45L1059.64 327.06L1040.03 319.99C1036.31 329.19 1028.7 335.91 1019.1 338.42C1011.08 340.52 1002.71 339.38 995.56 335.19C988.39 331.01 983.29 324.28 981.19 316.25C979.1 308.24 980.24 299.88 984.44 292.7C988.63 285.54 995.35 280.43 1003.37 278.32C1013.03 275.79 1023.04 277.95 1030.82 284.27L1032.17 285.37L1045.3 269.19L1043.95 268.1C1031.16 257.72 1014.02 254 998.09 258.18C970.41 265.44 953.79 293.86 961.05 321.54C964.57 334.95 973.1 346.18 985.06 353.18C987.83 354.81 990.76 356.18 993.74 357.26C1003.58 360.81 1014.19 361.26 1024.4 358.58C1040.3 354.4 1053.43 342.77 1059.49 327.45ZM1095.37 -6.44V-6.32001C1084.43 -15.47 1068.46 -17.2 1055.56 -9.47C1047.67 -4.73999 1042.1 2.78 1039.87 11.69C1039.35 13.76 1039.02 15.88 1038.89 17.98C1038.46 24.91 1040.14 31.74 1043.74 37.75C1049.35 47.11 1059.19 53.31 1070.08 54.32L1070.36 54.34L1071.22 40.54C1064.67 39.88 1058.98 36.28 1055.6 30.64C1052.77 25.93 1051.95 20.38 1053.29 15.05C1054.62 9.70999 1057.96 5.20999 1062.68 2.38C1067.39 -0.440002 1072.93 -1.27002 1078.28 0.0799866C1083.62 1.41998 1088.12 4.75 1090.95 9.45999C1094.36 15.14 1094.84 21.92 1092.26 28.04L1091.81 29.1L1095.39 30.6V30.54L1104.69 34.45L1105.13 33.39C1109.37 23.32 1108.55 11.71 1102.93 2.34C1100.86 -1.08002 1098.29 -4.01999 1095.37 -6.44ZM1041.69 451.68L1026.09 459.15L1028.4 463.97L1043.99 456.5C1046.53 455.28 1047.94 452.73 1047.51 450.14C1047.1 447.71 1045.17 445.95 1042.6 445.66L1025.04 443.72L1039.68 436.71L1037.37 431.89L1022.68 438.93C1020.34 440.05 1019.03 442.42 1019.44 444.82C1019.82 447.09 1021.61 448.73 1024 449L1042 450.99C1042.14 451.01 1042.21 451.03 1042.23 451.05C1042.26 451.15 1042.17 451.45 1041.69 451.68ZM934.5 533.38L919.25 517.68C911.5 524.65 901.23 527.49 891.02 525.43C882.49 523.72 875.11 518.78 870.3 511.54C865.46 504.29 863.74 495.6 865.46 487.05C867.18 478.52 872.11 471.16 879.37 466.33C886.63 461.5 895.31 459.77 903.85 461.48C914.13 463.54 922.58 470.19 927.01 479.73L927.78 481.39L947.62 472.17L946.85 470.52C939.56 454.83 925.1 443.43 908.15 440.03C878.69 434.13 849.92 453.3 844.02 482.76C841.16 497.04 844.04 511.56 852.1 523.67C853.97 526.48 856.09 529.13 858.41 531.51C866.06 539.39 875.86 544.7 886.73 546.88C903.66 550.27 921.41 545.34 934.18 533.68L934.5 533.38ZM676.89 529.28C674.61 530.22 673.32 532.49 673.61 535.06L675.62 552.61L665.53 539.89L661.34 543.21L671.46 555.98C673.07 558.02 675.67 558.76 677.92 557.83C680.05 556.95 681.25 554.84 680.98 552.46L678.92 534.47C678.9 534.33 678.92 534.26 678.93 534.23C679.05 534.18 679.35 534.21 679.68 534.63L690.42 548.18L694.61 544.86L683.87 531.31C682.12 529.09 679.31 528.28 676.89 529.28ZM932.35 592.21C935.15 590.73 938.35 590.43 941.37 591.36C945.01 592.48 947.81 595.19 949.06 598.8L949.28 599.43L956.78 596.83L956.56 596.2C954.51 590.27 949.7 585.62 943.71 583.77C933.29 580.56 922.2 586.42 918.99 596.84C917.43 601.89 917.94 607.24 920.4 611.91C920.97 612.99 921.64 614.03 922.39 614.97C924.86 618.1 928.2 620.37 932.05 621.56C938.04 623.41 944.62 622.28 949.67 618.54L949.8 618.45L944.87 612.22C941.82 614.45 938 615.1 934.39 613.98C931.37 613.05 928.89 611 927.42 608.2C925.94 605.41 925.64 602.2 926.57 599.18C927.5 596.17 929.55 593.69 932.35 592.21ZM658.06 -148.05C654.19 -148.77 650.25 -149.14 646.36 -149.14C633.54 -149.14 621.13 -145.25 610.46 -137.92C605.5 -134.51 601.11 -130.42 597.37 -125.85C588.58 -115.11 583.37 -101.61 582.93 -87.46L582.92 -86.95H608.46C608.93 -99.11 614.9 -110.01 624.93 -116.89C633.3 -122.65 643.43 -124.8 653.41 -122.95C663.41 -121.11 672.09 -115.47 677.85 -107.09C683.59 -98.72 685.75 -88.61 683.89 -78.59C682.03 -68.59 676.42 -59.91 668.05 -54.15C657.97 -47.21 645.53 -45.55 633.94 -49.6L631.93 -50.31L623.52 -26.2L625.53 -25.51C644.59 -18.86 665.9 -21.69 682.52 -33.13C711.41 -53 718.76 -92.67 698.89 -121.57C689.25 -135.55 674.75 -144.96 658.06 -148.05ZM658.06 349.95C654.19 349.23 650.25 348.86 646.36 348.86C633.54 348.86 621.13 352.75 610.46 360.08C605.5 363.49 601.11 367.58 597.37 372.15C588.58 382.89 583.37 396.39 582.93 410.54L582.92 411.05H608.46C608.93 398.89 614.9 387.99 624.93 381.11C633.3 375.35 643.43 373.2 653.41 375.05C663.41 376.89 672.09 382.53 677.85 390.91C683.59 399.28 685.75 409.39 683.89 419.41C682.03 429.41 676.42 438.09 668.05 443.85C657.97 450.79 645.53 452.45 633.94 448.4L631.93 447.69L623.52 471.8L625.53 472.49C644.59 479.14 665.9 476.31 682.52 464.87C711.41 445 718.76 405.33 698.89 376.43C689.25 362.45 674.75 353.04 658.06 349.95ZM865.08 660.8C859.97 649.04 851.45 639.21 840.48 632.35C823.39 621.67 801.98 619.75 783.22 627.23L782.75 627.42L792.94 650.85C804.27 646.43 816.66 647.56 826.97 654.01C835.59 659.39 841.6 667.82 843.88 677.71C846.18 687.61 844.47 697.82 839.08 706.44C833.7 715.04 825.28 721.05 815.36 723.34C805.45 725.62 795.25 723.93 786.63 718.56C776.25 712.08 769.77 701.33 768.85 689.09L768.7 686.96L743.23 688.86L743.4 690.98C744.5 705.69 750.73 719.45 760.67 729.98H852.99C855.85 726.96 858.45 723.61 860.74 719.95C869.74 705.54 872.58 688.49 868.76 671.95C867.86 668.13 866.63 664.37 865.08 660.8ZM1040.06 600.89L1023.93 608.09L1033.02 594.64L1028.59 591.64L1019.47 605.14C1018.01 607.29 1018.09 609.99 1019.65 611.86C1021.13 613.62 1023.5 614.13 1025.7 613.16L1042.24 605.78C1042.37 605.72 1042.44 605.71 1042.47 605.71C1042.55 605.81 1042.62 606.1 1042.32 606.55L1032.64 620.88L1037.07 623.88L1046.75 609.55C1048.33 607.22 1048.25 604.3 1046.57 602.28C1044.97 600.38 1042.42 599.84 1040.06 600.89ZM1092.24 526.04L1091.79 527.1L1095.37 528.6V528.54L1104.67 532.45L1105.11 531.39C1109.35 521.32 1108.53 509.71 1102.91 500.34C1100.85 496.91 1098.28 493.97 1095.36 491.55V491.67C1084.42 482.52 1068.45 480.79 1055.55 488.52C1047.66 493.25 1042.09 500.77 1039.86 509.68C1039.34 511.75 1039.01 513.87 1038.88 515.97C1038.45 522.9 1040.13 529.73 1043.73 535.74C1049.34 545.1 1059.18 551.3 1070.07 552.31L1070.35 552.33L1071.21 538.53C1064.66 537.87 1058.97 534.27 1055.59 528.63C1052.76 523.92 1051.94 518.37 1053.28 513.04C1054.61 507.7 1057.95 503.2 1062.67 500.37C1067.38 497.55 1072.92 496.72 1078.27 498.07C1083.61 499.41 1088.11 502.74 1090.94 507.45C1094.34 513.14 1094.82 519.92 1092.24 526.04ZM943.71 85.78C933.29 82.57 922.2 88.43 918.99 98.85C917.43 103.9 917.94 109.25 920.4 113.92C920.97 115 921.64 116.04 922.39 116.98C924.86 120.11 928.2 122.38 932.05 123.57C938.04 125.42 944.62 124.29 949.67 120.55L949.8 120.46L944.87 114.23C941.82 116.46 938 117.11 934.39 115.99C931.37 115.06 928.89 113.01 927.42 110.21C925.94 107.42 925.64 104.21 926.57 101.19C927.5 98.17 929.55 95.7 932.35 94.22C935.15 92.74 938.35 92.44 941.37 93.37C945.01 94.49 947.81 97.2 949.06 100.81L949.28 101.44L956.78 98.84L956.56 98.21C954.5 92.28 949.7 87.63 943.71 85.78ZM991.37 657.5C989.24 657.49 987.1 657.67 985.03 658.04C978.2 659.27 971.96 662.53 966.98 667.45C959.22 675.12 955.54 686.16 957.14 696.97L957.18 697.24L970.79 694.79C969.88 688.27 972.01 681.89 976.7 677.26C980.61 673.39 985.8 671.27 991.29 671.31C996.79 671.33 1001.96 673.5 1005.83 677.42C1009.69 681.33 1011.81 686.51 1011.78 692.02C1011.75 697.53 1009.59 702.69 1005.68 706.56C1000.97 711.22 994.5 713.3 987.94 712.25L986.8 712.06L984.63 725.71L985.77 725.89C996.56 727.61 1007.64 724.06 1015.4 716.38C1028.89 703.03 1029.01 681.19 1015.65 667.7C1009.18 661.18 1000.56 657.55 991.37 657.5ZM436.5 533.38L421.25 517.68C413.5 524.65 403.23 527.49 393.02 525.43C384.49 523.72 377.11 518.78 372.3 511.54C367.46 504.29 365.74 495.6 367.46 487.05C369.18 478.52 374.11 471.16 381.37 466.33C388.63 461.5 397.31 459.77 405.85 461.48C416.13 463.54 424.58 470.19 429.01 479.73L429.78 481.39L449.62 472.17L448.85 470.52C441.56 454.83 427.1 443.43 410.15 440.03C380.69 434.13 351.92 453.3 346.02 482.76C343.16 497.04 346.04 511.56 354.1 523.67C355.97 526.48 358.09 529.13 360.41 531.51C368.06 539.39 377.86 544.7 388.73 546.88C405.66 550.27 423.41 545.34 436.18 533.68L436.5 533.38ZM434.35 592.21C437.15 590.73 440.35 590.43 443.37 591.36C447.01 592.48 449.81 595.19 451.06 598.8L451.28 599.43L458.78 596.83L458.56 596.2C456.51 590.27 451.7 585.62 445.71 583.77C435.29 580.56 424.2 586.42 420.99 596.84C419.43 601.89 419.94 607.24 422.4 611.91C422.97 612.99 423.64 614.03 424.39 614.97C426.86 618.1 430.2 620.37 434.05 621.56C440.04 623.41 446.62 622.28 451.67 618.54L451.8 618.45L446.87 612.22C443.82 614.45 440 615.1 436.39 613.98C433.37 613.05 430.89 611 429.42 608.2C427.94 605.41 427.64 602.2 428.57 599.18C429.5 596.17 431.55 593.69 434.35 592.21ZM367.08 660.8C361.97 649.04 353.45 639.21 342.48 632.35C325.39 621.67 303.98 619.75 285.22 627.23L284.75 627.42L294.94 650.85C306.27 646.43 318.66 647.56 328.97 654.01C337.59 659.39 343.6 667.82 345.88 677.71C348.18 687.61 346.47 697.82 341.08 706.44C335.7 715.04 327.28 721.05 317.36 723.34C307.45 725.62 297.25 723.93 288.63 718.56C278.25 712.08 271.77 701.33 270.85 689.09L270.7 686.96L245.23 688.86L245.4 690.98C246.5 705.69 252.73 719.45 262.67 729.98H354.99C357.85 726.96 360.45 723.61 362.74 719.95C371.74 705.54 374.58 688.49 370.76 671.95C369.86 668.13 368.63 664.37 367.08 660.8ZM445.71 85.78C435.29 82.57 424.2 88.43 420.99 98.85C419.43 103.9 419.94 109.25 422.4 113.92C422.97 115 423.64 116.04 424.39 116.98C426.86 120.11 430.2 122.38 434.05 123.57C440.04 125.42 446.62 124.29 451.67 120.55L451.8 120.46L446.87 114.23C443.82 116.46 440 117.11 436.39 115.99C433.37 115.06 430.89 113.01 429.42 110.21C427.94 107.42 427.64 104.21 428.57 101.19C429.5 98.17 431.55 95.7 434.35 94.22C437.15 92.74 440.35 92.44 443.37 93.37C447.01 94.49 449.81 97.2 451.06 100.81L451.28 101.44L458.78 98.84L458.56 98.21C456.5 92.28 451.7 87.63 445.71 85.78ZM493.37 657.5C491.24 657.49 489.1 657.67 487.03 658.04C480.2 659.27 473.96 662.53 468.98 667.45C461.22 675.12 457.54 686.16 459.14 696.97L459.18 697.24L472.79 694.79C471.88 688.27 474.01 681.89 478.7 677.26C482.61 673.39 487.8 671.27 493.29 671.31C498.79 671.33 503.96 673.5 507.83 677.42C511.69 681.33 513.81 686.51 513.78 692.02C513.75 697.53 511.59 702.69 507.68 706.56C502.97 711.22 496.5 713.3 489.94 712.25L488.8 712.06L486.63 725.71L487.77 725.89C498.56 727.61 509.64 724.06 517.4 716.38C530.89 703.03 531.01 681.19 517.65 667.7C511.18 661.18 502.56 657.55 493.37 657.5ZM160.06 -148.05C156.19 -148.77 152.25 -149.14 148.36 -149.14C135.54 -149.14 123.13 -145.25 112.46 -137.92C107.77 -134.7 103.61 -130.86 100 -126.59C99.79 -126.34 99.58 -126.1 99.37 -125.84V-125.08C90.95 -114.46 85.99 -101.27 85.56 -87.45L85.55 -86.94H110.46C110.93 -99.1 116.9 -110 126.93 -116.88C135.3 -122.64 145.43 -124.79 155.41 -122.94C165.41 -121.1 174.09 -115.46 179.85 -107.08C185.59 -98.71 187.75 -88.6 185.89 -78.58C184.03 -68.58 178.42 -59.9 170.05 -54.14C159.97 -47.2 147.53 -45.54 135.94 -49.59L133.93 -50.3L125.52 -26.19L127.53 -25.5C146.59 -18.85 167.9 -21.68 184.52 -33.12C213.41 -52.99 220.76 -92.66 200.89 -121.56C191.25 -135.55 176.75 -144.96 160.06 -148.05ZM638.39 665.82C633.86 668.94 628.38 670.1 622.97 669.1C617.56 668.1 612.86 665.05 609.74 660.52C606.63 655.99 605.46 650.52 606.47 645.1C607.48 639.69 610.52 634.99 615.05 631.87C620.51 628.12 627.24 627.22 633.51 629.41L634.6 629.79L639.15 616.74L638.06 616.36C627.74 612.76 616.21 614.29 607.21 620.48C603.1 623.31 599.81 626.88 597.36 630.88C590.8 641.63 590.44 655.54 597.36 666.82C597.67 667.33 598 667.84 598.35 668.34C603.56 675.92 611.41 681.01 620.45 682.68C622.55 683.07 624.68 683.27 626.78 683.27C633.72 683.27 640.44 681.17 646.21 677.2C655.2 671.02 660.77 660.81 661.11 649.88L661.12 649.6H647.29C647.05 656.19 643.82 662.09 638.39 665.82ZM542.06 600.89L525.93 608.09L535.02 594.64L530.59 591.64L521.47 605.14C520.01 607.29 520.09 609.99 521.65 611.86C523.13 613.62 525.5 614.13 527.7 613.16L544.24 605.78C544.37 605.72 544.44 605.71 544.47 605.71C544.55 605.81 544.62 606.1 544.32 606.55L534.64 620.88L539.07 623.88L548.75 609.55C550.33 607.22 550.25 604.3 548.57 602.28C546.97 600.38 544.42 599.84 542.06 600.89ZM594.24 526.04L593.79 527.1L597.37 528.6V528.54L606.67 532.45L607.11 531.39C611.35 521.32 610.53 509.71 604.91 500.34C602.85 496.91 600.28 493.97 597.36 491.55V491.67C586.42 482.52 570.45 480.79 557.55 488.52C549.66 493.25 544.09 500.77 541.86 509.68C541.34 511.75 541.01 513.87 540.88 515.97C540.45 522.9 542.13 529.73 545.73 535.74C551.34 545.1 561.18 551.3 572.07 552.31L572.35 552.33L573.21 538.53C566.66 537.87 560.97 534.27 557.59 528.63C554.76 523.92 553.94 518.37 555.28 513.04C556.61 507.7 559.95 503.2 564.67 500.37C569.38 497.55 574.92 496.72 580.27 498.07C585.61 499.41 590.11 502.74 592.94 507.45C596.34 513.14 596.82 519.92 594.24 526.04ZM1593.37 666.82V630.88C1586.81 641.63 1586.45 655.54 1593.37 666.82ZM1553.56 488.53C1545.67 493.26 1540.1 500.78 1537.87 509.69C1537.35 511.76 1537.02 513.88 1536.89 515.98C1536.46 522.91 1538.14 529.74 1541.74 535.75C1547.35 545.11 1557.19 551.31 1568.08 552.32L1568.36 552.34L1569.22 538.54C1562.67 537.88 1556.98 534.28 1553.6 528.64C1550.77 523.93 1549.95 518.38 1551.29 513.05C1552.62 507.71 1555.96 503.21 1560.68 500.38C1565.39 497.56 1570.93 496.73 1576.28 498.08C1581.62 499.42 1586.12 502.75 1588.95 507.46C1592.36 513.14 1592.84 519.92 1590.26 526.04L1589.81 527.1L1593.39 528.6V491.67C1582.43 482.53 1566.46 480.8 1553.56 488.53ZM1578.92 411.06H1593.37V372.16C1584.58 382.9 1579.37 396.4 1578.93 410.55L1578.92 411.06ZM1538.06 600.89L1521.93 608.09L1531.02 594.64L1526.59 591.64L1517.47 605.14C1516.01 607.29 1516.09 609.99 1517.65 611.86C1519.13 613.62 1521.5 614.13 1523.7 613.16L1540.24 605.78C1540.37 605.72 1540.44 605.71 1540.47 605.71C1540.55 605.81 1540.62 606.1 1540.32 606.55L1530.64 620.88L1535.07 623.88L1544.75 609.55C1546.33 607.22 1546.25 604.3 1544.57 602.28C1542.97 600.38 1540.42 599.84 1538.06 600.89ZM1578.93 -87.45L1578.92 -86.94H1593.37V-125.84C1584.58 -115.1 1579.37 -101.61 1578.93 -87.45ZM1489.37 657.5C1487.24 657.49 1485.1 657.67 1483.03 658.04C1476.2 659.27 1469.96 662.53 1464.98 667.45C1457.22 675.12 1453.54 686.16 1455.14 696.97L1455.18 697.24L1468.79 694.79C1467.88 688.27 1470.01 681.89 1474.7 677.26C1478.61 673.39 1483.8 671.27 1489.29 671.31C1494.79 671.33 1499.96 673.5 1503.83 677.42C1507.69 681.33 1509.81 686.51 1509.78 692.02C1509.75 697.53 1507.59 702.69 1503.68 706.56C1498.97 711.22 1492.5 713.3 1485.94 712.25L1484.8 712.06L1482.63 725.71L1483.77 725.89C1494.56 727.61 1505.64 724.06 1513.4 716.38C1526.89 703.03 1527.01 681.19 1513.65 667.7C1507.18 661.18 1498.56 657.55 1489.37 657.5ZM1553.56 -9.47C1545.67 -4.73999 1540.1 2.78 1537.87 11.69C1537.35 13.76 1537.02 15.88 1536.89 17.98C1536.46 24.91 1538.14 31.74 1541.74 37.75C1547.35 47.11 1557.19 53.31 1568.08 54.32L1568.36 54.34L1569.22 40.54C1562.67 39.88 1556.98 36.28 1553.6 30.64C1550.77 25.93 1549.95 20.38 1551.29 15.05C1552.62 9.70999 1555.96 5.20999 1560.68 2.38C1565.39 -0.440002 1570.93 -1.27002 1576.28 0.0799866C1581.62 1.41998 1586.12 4.75 1588.95 9.45999C1592.36 15.14 1592.84 21.92 1590.26 28.04L1589.81 29.1L1593.39 30.6V-6.32999C1582.43 -15.47 1566.46 -17.2 1553.56 -9.47ZM1593.37 188.82V152.88C1586.81 163.63 1586.45 177.54 1593.37 188.82ZM1174.89 529.28C1172.61 530.22 1171.32 532.49 1171.61 535.06L1173.62 552.61L1163.53 539.89L1159.34 543.21L1169.46 555.98C1171.07 558.02 1173.67 558.76 1175.92 557.83C1178.05 556.95 1179.25 554.84 1178.98 552.46L1176.92 534.47C1176.9 534.33 1176.92 534.26 1176.93 534.23C1177.05 534.18 1177.35 534.21 1177.68 534.63L1188.42 548.18L1192.61 544.86L1181.87 531.31C1180.12 529.09 1177.31 528.28 1174.89 529.28ZM1156.06 349.95C1152.19 349.23 1148.25 348.86 1144.36 348.86C1131.54 348.86 1119.13 352.75 1108.46 360.08C1103.5 363.49 1099.11 367.58 1095.37 372.15C1086.58 382.89 1081.37 396.39 1080.93 410.54L1080.92 411.05H1106.46C1106.93 398.89 1112.9 387.99 1122.93 381.11C1131.3 375.35 1141.43 373.2 1151.41 375.05C1161.41 376.89 1170.09 382.53 1175.85 390.91C1181.59 399.28 1183.75 409.39 1181.89 419.41C1180.03 429.41 1174.42 438.09 1166.05 443.85C1155.97 450.79 1143.53 452.45 1131.94 448.4L1129.93 447.69L1121.52 471.8L1123.53 472.49C1142.59 479.14 1163.9 476.31 1180.52 464.87C1209.41 445 1216.76 405.33 1196.89 376.43C1187.25 362.45 1172.75 353.04 1156.06 349.95ZM1441.71 85.78C1431.29 82.57 1420.2 88.43 1416.99 98.85C1415.43 103.9 1415.94 109.25 1418.4 113.92C1418.97 115 1419.64 116.04 1420.39 116.98C1422.86 120.11 1426.2 122.38 1430.05 123.57C1436.04 125.42 1442.62 124.29 1447.67 120.55L1447.8 120.46L1442.87 114.23C1439.82 116.46 1436 117.11 1432.39 115.99C1429.37 115.06 1426.89 113.01 1425.42 110.21C1423.94 107.42 1423.64 104.21 1424.57 101.19C1425.5 98.17 1427.55 95.7 1430.35 94.22C1433.15 92.74 1436.35 92.44 1439.37 93.37C1443.01 94.49 1445.81 97.2 1447.06 100.81L1447.28 101.44L1454.78 98.84L1454.56 98.21C1452.5 92.28 1447.7 87.63 1441.71 85.78ZM1136.39 665.82C1131.86 668.94 1126.38 670.1 1120.97 669.1C1115.56 668.1 1110.86 665.05 1107.74 660.52C1104.63 655.99 1103.46 650.52 1104.47 645.1C1105.48 639.69 1108.52 634.99 1113.05 631.87C1118.51 628.12 1125.24 627.22 1131.51 629.41L1132.6 629.79L1137.15 616.74L1136.06 616.36C1125.74 612.76 1114.21 614.29 1105.21 620.48C1101.1 623.31 1097.81 626.88 1095.36 630.88C1088.8 641.63 1088.44 655.54 1095.36 666.82C1095.67 667.33 1096 667.84 1096.35 668.34C1101.56 675.92 1109.41 681.01 1118.45 682.68C1120.55 683.07 1122.68 683.27 1124.78 683.27C1131.72 683.27 1138.44 681.17 1144.21 677.2C1153.2 671.02 1158.77 660.81 1159.11 649.88L1159.12 649.6H1145.29C1145.05 656.19 1141.82 662.09 1136.39 665.82ZM1156.06 -148.05C1152.19 -148.77 1148.25 -149.14 1144.36 -149.14C1131.54 -149.14 1119.13 -145.25 1108.46 -137.92C1103.5 -134.51 1099.11 -130.42 1095.37 -125.85C1086.58 -115.11 1081.37 -101.61 1080.93 -87.46L1080.92 -86.95H1106.46C1106.93 -99.11 1112.9 -110.01 1122.93 -116.89C1131.3 -122.65 1141.43 -124.8 1151.41 -122.95C1161.41 -121.11 1170.09 -115.47 1175.85 -107.09C1181.59 -98.72 1183.75 -88.61 1181.89 -78.59C1180.03 -68.59 1174.42 -59.91 1166.05 -54.15C1155.97 -47.21 1143.53 -45.55 1131.94 -49.6L1129.93 -50.31L1121.52 -26.2L1123.53 -25.51C1142.59 -18.86 1163.9 -21.69 1180.52 -33.13C1209.41 -53 1216.76 -92.67 1196.89 -121.57C1187.25 -135.55 1172.75 -144.96 1156.06 -148.05ZM1363.08 660.8C1357.97 649.04 1349.45 639.21 1338.48 632.35C1321.39 621.67 1299.98 619.75 1281.22 627.23L1280.75 627.42L1290.94 650.85C1302.27 646.43 1314.66 647.56 1324.97 654.01C1333.59 659.39 1339.6 667.82 1341.88 677.71C1344.18 687.61 1342.47 697.82 1337.08 706.44C1331.7 715.04 1323.28 721.05 1313.36 723.34C1303.45 725.62 1293.25 723.93 1284.63 718.56C1274.25 712.08 1267.77 701.33 1266.85 689.09L1266.7 686.96L1241.23 688.86L1241.4 690.98C1242.5 705.69 1248.73 719.45 1258.67 729.98H1350.99C1353.85 726.96 1356.45 723.61 1358.74 719.95C1367.74 705.54 1370.58 688.49 1366.76 671.95C1365.86 668.13 1364.63 664.37 1363.08 660.8ZM1430.35 592.21C1433.15 590.73 1436.35 590.43 1439.37 591.36C1443.01 592.48 1445.81 595.19 1447.06 598.8L1447.28 599.43L1454.78 596.83L1454.56 596.2C1452.51 590.27 1447.7 585.62 1441.71 583.77C1431.29 580.56 1420.2 586.42 1416.99 596.84C1415.43 601.89 1415.94 607.24 1418.4 611.91C1418.97 612.99 1419.64 614.03 1420.39 614.97C1422.86 618.1 1426.2 620.37 1430.05 621.56C1436.04 623.41 1442.62 622.28 1447.67 618.54L1447.8 618.45L1442.87 612.22C1439.82 614.45 1436 615.1 1432.39 613.98C1429.37 613.05 1426.89 611 1425.42 608.2C1423.94 605.41 1423.64 602.2 1424.57 599.18C1425.5 596.17 1427.55 593.69 1430.35 592.21ZM1432.5 533.38L1417.25 517.68C1409.5 524.65 1399.23 527.49 1389.02 525.43C1380.49 523.72 1373.11 518.78 1368.3 511.54C1363.46 504.29 1361.74 495.6 1363.46 487.05C1365.18 478.52 1370.11 471.16 1377.37 466.33C1384.63 461.5 1393.31 459.77 1401.85 461.48C1412.13 463.54 1420.58 470.19 1425.01 479.73L1425.78 481.39L1445.62 472.17L1444.85 470.52C1437.56 454.83 1423.1 443.43 1406.15 440.03C1376.69 434.13 1347.92 453.3 1342.02 482.76C1339.16 497.04 1342.04 511.56 1350.1 523.67C1351.97 526.48 1354.09 529.13 1356.41 531.51C1364.06 539.39 1373.86 544.7 1384.73 546.88C1401.66 550.27 1419.41 545.34 1432.18 533.68L1432.5 533.38ZM-78.62 337.29C-82.31 338.23 -86.12 337.39 -89.06 334.96L-89.57 334.54L-94.61 340.68L-94.1 341.1C-89.25 345.08 -82.73 346.54 -76.65 344.98C-66.09 342.28 -59.69 331.48 -62.4 320.92C-63.71 315.8 -66.93 311.5 -71.48 308.81C-72.53 308.18 -73.64 307.65 -74.78 307.24C-78.52 305.87 -82.56 305.67 -86.46 306.67C-92.53 308.22 -97.56 312.63 -99.9 318.45L-99.96 318.6L-92.5 321.34C-91.06 317.84 -88.15 315.3 -84.48 314.36C-81.42 313.58 -78.23 314.03 -75.52 315.64C-72.8 317.25 -70.87 319.82 -70.09 322.89C-69.31 325.95 -69.76 329.13 -71.38 331.85C-73 334.57 -75.56 336.5 -78.62 337.29ZM-224.54 559.8C-228.23 560.74 -232.04 559.9 -234.98 557.47L-235.49 557.05L-240.53 563.19L-240.02 563.61C-235.17 567.59 -228.65 569.05 -222.57 567.49C-212.01 564.79 -205.61 553.99 -208.32 543.43C-209.63 538.31 -212.85 534.01 -217.4 531.32C-218.45 530.69 -219.56 530.16 -220.7 529.75C-224.44 528.38 -228.48 528.18 -232.38 529.18C-238.45 530.73 -243.48 535.14 -245.82 540.96L-245.88 541.11L-238.42 543.85C-236.98 540.35 -234.07 537.81 -230.41 536.87C-227.35 536.09 -224.16 536.54 -221.45 538.15C-218.73 539.76 -216.8 542.33 -216.02 545.4C-215.24 548.46 -215.69 551.64 -217.31 554.36C-218.91 557.09 -221.48 559.02 -224.54 559.8ZM-225.88 -175.1L-212.27 -166.15C-210.1 -164.72 -207.4 -164.83 -205.55 -166.41C-203.81 -167.91 -203.32 -170.29 -204.33 -172.47L-211.92 -188.91C-211.98 -189.04 -211.99 -189.11 -211.99 -189.14C-211.89 -189.22 -211.6 -189.29 -211.15 -189L-196.7 -179.5L-193.76 -183.97L-208.21 -193.47C-210.56 -195.02 -213.48 -194.91 -215.47 -193.2C-217.34 -191.59 -217.86 -189.03 -216.78 -186.68L-209.38 -170.64L-222.94 -179.56L-225.88 -175.1ZM-183.36 402.31L-172.55 406.08L-172.24 405.18C-169.26 396.64 -170.53 387.09 -175.65 379.63C-184.56 366.68 -202.34 363.39 -215.29 372.29C-221.57 376.61 -225.78 383.1 -227.17 390.59C-227.49 392.33 -227.66 394.09 -227.66 395.84C-227.66 401.59 -225.92 407.15 -222.63 411.93C-217.51 419.38 -209.06 423.99 -200.01 424.27L-199.78 424.28V412.83C-205.23 412.62 -210.12 409.94 -213.2 405.45C-215.78 401.7 -216.75 397.16 -215.91 392.68C-215.08 388.2 -212.56 384.31 -208.8 381.73C-205.05 379.16 -200.52 378.19 -196.03 379.02C-191.55 379.85 -187.66 382.37 -185.08 386.12C-181.97 390.64 -181.23 396.22 -183.04 401.41L-183.36 402.31ZM-230.41 38.87C-227.35 38.09 -224.16 38.54 -221.45 40.15C-218.73 41.76 -216.8 44.33 -216.02 47.4C-215.24 50.46 -215.69 53.64 -217.31 56.36C-218.92 59.08 -221.49 61.01 -224.55 61.8C-228.24 62.74 -232.05 61.9 -234.99 59.47L-235.5 59.05L-240.54 65.19L-240.03 65.61C-235.18 69.59 -228.66 71.05 -222.58 69.49C-212.02 66.79 -205.62 55.99 -208.33 45.43C-209.64 40.31 -212.86 36.01 -217.41 33.32C-218.46 32.69 -219.57 32.16 -220.71 31.75C-224.45 30.38 -228.49 30.18 -232.39 31.18C-238.46 32.73 -243.49 37.14 -245.83 42.96L-245.89 43.11L-238.43 45.85C-236.98 42.35 -234.07 39.81 -230.41 38.87ZM-234.71 232H-234.24C-230.69 235.68 -226.68 238.96 -222.27 241.71C-196.4 257.86 -163.29 253.09 -142.89 232H-142.39C-139.53 228.98 -136.93 225.63 -134.64 221.97C-125.64 207.56 -122.8 190.51 -126.62 173.97C-127.5 170.13 -128.73 166.37 -130.28 162.8C-135.39 151.04 -143.91 141.21 -154.88 134.35C-171.97 123.67 -193.38 121.75 -212.14 129.23L-212.61 129.42L-202.42 152.85C-191.09 148.43 -178.7 149.56 -168.4 156.01C-159.78 161.39 -153.77 169.82 -151.49 179.71C-149.19 189.61 -150.9 199.82 -156.29 208.44C-161.67 217.04 -170.09 223.05 -180.01 225.34C-189.92 227.62 -200.12 225.93 -208.74 220.56C-219.12 214.08 -225.6 203.33 -226.52 191.09L-226.67 188.96L-252.14 190.86L-251.97 192.98C-250.89 207.71 -244.65 221.47 -234.71 232ZM-388.25 33.4C-384.01 23.33 -384.83 11.72 -390.45 2.35001C-392.51 -1.07999 -395.08 -4.01999 -398 -6.44V30.55L-388.7 34.46L-388.25 33.4ZM-320.48 -213.3C-319.28 -213.08 -318.05 -212.96 -316.84 -212.96C-312.85 -212.96 -308.99 -214.17 -305.68 -216.45C-300.52 -220 -297.31 -225.87 -297.12 -232.14V-232.3H-305.06C-305.21 -228.52 -307.06 -225.13 -310.18 -222.99C-312.78 -221.2 -315.93 -220.53 -319.04 -221.11C-322.15 -221.68 -324.85 -223.43 -326.64 -226.04C-328.43 -228.64 -329.1 -231.79 -328.52 -234.9C-327.94 -238.01 -326.2 -240.71 -323.59 -242.5C-320.45 -244.66 -316.59 -245.17 -312.98 -243.92L-312.35 -243.7L-309.73 -251.2L-310.36 -251.42C-316.29 -253.49 -322.91 -252.61 -328.08 -249.05C-337.06 -242.87 -339.35 -230.54 -333.17 -221.55C-330.18 -217.19 -325.67 -214.26 -320.48 -213.3ZM-225.88 322.9L-212.27 331.85C-210.1 333.28 -207.4 333.17 -205.55 331.59C-203.81 330.09 -203.32 327.71 -204.33 325.53L-211.92 309.09C-211.98 308.96 -211.99 308.89 -211.99 308.86C-211.89 308.78 -211.6 308.71 -211.15 309L-196.7 318.5L-193.76 314.03L-208.21 304.53C-210.56 302.98 -213.48 303.09 -215.47 304.8C-217.34 306.41 -217.86 308.97 -216.78 311.32L-209.38 327.36L-222.94 318.44L-225.88 322.9ZM-374.92 204.69C-372.82 205.08 -370.69 205.28 -368.59 205.28C-361.65 205.28 -354.93 203.18 -349.16 199.21C-340.17 193.03 -334.6 182.82 -334.26 171.89L-334.25 171.61H-348.07C-348.32 178.19 -351.56 184.09 -356.98 187.82C-361.51 190.94 -366.99 192.1 -372.4 191.1C-377.81 190.1 -382.51 187.05 -385.63 182.52C-388.74 177.99 -389.91 172.52 -388.9 167.1C-387.89 161.69 -384.85 156.99 -380.32 153.87C-374.86 150.12 -368.13 149.22 -361.86 151.41L-360.77 151.79L-356.22 138.74L-357.31 138.36C-367.63 134.76 -379.16 136.29 -388.16 142.48C-392.27 145.31 -395.56 148.88 -398.01 152.88V188.82C-397.7 189.33 -397.37 189.84 -397.02 190.34C-391.8 197.92 -383.95 203.01 -374.92 204.69ZM-84.49 -173.64C-81.43 -174.42 -78.24 -173.97 -75.53 -172.36C-72.81 -170.75 -70.88 -168.18 -70.1 -165.11C-69.32 -162.05 -69.77 -158.87 -71.39 -156.15C-73 -153.43 -75.57 -151.5 -78.63 -150.71C-82.32 -149.77 -86.13 -150.61 -89.07 -153.04L-89.58 -153.46L-94.62 -147.32L-94.11 -146.9C-89.26 -142.92 -82.74 -141.46 -76.66 -143.02C-66.1 -145.72 -59.7 -156.52 -62.41 -167.08C-63.72 -172.2 -66.94 -176.5 -71.49 -179.19C-72.54 -179.82 -73.65 -180.35 -74.79 -180.76C-78.53 -182.13 -82.57 -182.33 -86.47 -181.33C-92.54 -179.78 -97.57 -175.37 -99.91 -169.55L-99.97 -169.4L-92.51 -166.66C-91.06 -170.17 -88.15 -172.71 -84.49 -173.64ZM-61.18 203.25L-47.57 200.8C-48.48 194.28 -46.35 187.9 -41.66 183.27C-37.75 179.4 -32.56 177.28 -27.07 177.32C-21.57 177.34 -16.4 179.51 -12.53 183.43C-8.67001 187.34 -6.54999 192.52 -6.57999 198.03C-6.60999 203.54 -8.76999 208.7 -12.68 212.57C-17.39 217.23 -23.86 219.31 -30.42 218.26L-31.56 218.07L-33.73 231.72L-32.59 231.9C-21.8 233.62 -10.72 230.07 -2.95999 222.39C10.53 209.04 10.65 187.2 -2.70999 173.71C-9.17999 167.17 -17.8 163.55 -26.99 163.5C-29.12 163.49 -31.26 163.67 -33.33 164.04C-40.16 165.27 -46.4 168.53 -51.38 173.45C-59.14 181.12 -62.82 192.16 -61.22 202.97L-61.18 203.25ZM-10.32 -144.83C-7.55002 -143.2 -4.62003 -141.83 -1.64001 -140.75C8.19998 -137.2 18.81 -136.75 29.02 -139.43C44.93 -143.6 58.06 -155.23 64.12 -170.55L64.27 -170.94L44.66 -178.01C40.94 -168.81 33.33 -162.09 23.73 -159.58C15.71 -157.48 7.34 -158.62 0.190002 -162.81C-6.98001 -166.99 -12.08 -173.72 -14.18 -181.75C-16.27 -189.76 -15.13 -198.12 -10.93 -205.3C-6.73999 -212.46 -0.019989 -217.57 8 -219.68C17.66 -222.21 27.67 -220.05 35.45 -213.73L36.8 -212.63L49.93 -228.81L48.58 -229.9C35.79 -240.28 18.65 -244 2.72 -239.82C-24.96 -232.56 -41.58 -204.14 -34.32 -176.46C-30.81 -163.05 -22.28 -151.82 -10.32 -144.83ZM39.32 125.16L55.86 117.78C55.99 117.72 56.06 117.71 56.09 117.71C56.17 117.81 56.24 118.1 55.94 118.55L46.26 132.88L50.69 135.88L60.37 121.55C61.95 119.22 61.87 116.3 60.19 114.28C58.61 112.39 56.05 111.84 53.69 112.89L37.56 120.09L46.65 106.64L42.22 103.64L33.1 117.14C31.64 119.29 31.72 121.99 33.28 123.86C34.75 125.62 37.12 126.13 39.32 125.16ZM-143.29 25.67C-141.42 28.48 -139.3 31.13 -136.98 33.51C-129.33 41.39 -119.53 46.7 -108.66 48.88C-91.73 52.27 -73.98 47.34 -61.21 35.68L-60.89 35.38L-76.14 19.68C-83.89 26.65 -94.16 29.49 -104.37 27.43C-112.9 25.72 -120.28 20.78 -125.09 13.54C-129.93 6.29001 -131.65 -2.39999 -129.93 -10.95C-128.21 -19.48 -123.29 -26.84 -116.02 -31.67C-108.76 -36.5 -100.08 -38.23 -91.54 -36.52C-81.26 -34.46 -72.81 -27.81 -68.38 -18.27L-67.61 -16.61L-47.77 -25.83L-48.55 -27.48C-55.84 -43.17 -70.3 -54.57 -87.25 -57.97C-116.71 -63.87 -145.48 -44.7 -151.38 -15.24C-154.22 -0.970001 -151.35 13.56 -143.29 25.67ZM-142.89 -266H-234.24C-230.69 -262.32 -226.68 -259.04 -222.27 -256.29C-196.4 -240.13 -163.3 -244.91 -142.89 -266ZM-183.36 -95.69L-172.55 -91.92L-172.24 -92.82C-169.26 -101.36 -170.53 -110.91 -175.65 -118.37C-184.56 -131.32 -202.34 -134.61 -215.29 -125.71C-221.57 -121.39 -225.78 -114.9 -227.17 -107.41C-227.49 -105.67 -227.66 -103.91 -227.66 -102.16C-227.66 -96.41 -225.92 -90.85 -222.63 -86.07C-217.51 -78.62 -209.06 -74.01 -200.01 -73.73L-199.78 -73.72V-85.17C-205.23 -85.38 -210.12 -88.06 -213.2 -92.55C-215.78 -96.3 -216.75 -100.84 -215.91 -105.32C-215.08 -109.8 -212.56 -113.69 -208.8 -116.27C-205.05 -118.84 -200.52 -119.81 -196.03 -118.98C-191.55 -118.15 -187.66 -115.63 -185.08 -111.88C-181.97 -107.36 -181.23 -101.78 -183.04 -96.59L-183.36 -95.69ZM-130.29 660.8C-135.4 649.04 -143.92 639.21 -154.89 632.35C-171.98 621.67 -193.39 619.75 -212.15 627.23L-212.62 627.42L-202.43 650.85C-191.1 646.43 -178.71 647.56 -168.41 654.01C-159.79 659.39 -153.78 667.82 -151.5 677.71C-149.2 687.61 -150.91 697.82 -156.3 706.44C-161.68 715.04 -170.1 721.05 -180.02 723.34C-189.93 725.62 -200.13 723.93 -208.75 718.56C-219.13 712.08 -225.61 701.33 -226.53 689.09L-226.68 686.96L-252.15 688.86L-251.98 690.98C-250.88 705.69 -244.65 719.45 -234.71 729.98H-142.39C-139.53 726.96 -136.93 723.61 -134.64 719.95C-125.64 705.54 -122.8 688.49 -126.62 671.95C-127.51 668.13 -128.74 664.37 -130.29 660.8ZM-51.66 85.78C-62.08 82.57 -73.17 88.43 -76.38 98.85C-77.94 103.9 -77.43 109.25 -74.97 113.92C-74.4 115 -73.73 116.04 -72.98 116.98C-70.51 120.11 -67.17 122.38 -63.32 123.57C-57.33 125.42 -50.75 124.29 -45.7 120.55L-45.57 120.46L-50.5 114.23C-53.55 116.46 -57.37 117.11 -60.98 115.99C-64 115.06 -66.48 113.01 -67.95 110.21C-69.43 107.42 -69.73 104.21 -68.8 101.19C-67.87 98.17 -65.82 95.7 -63.02 94.22C-60.22 92.74 -57.02 92.44 -54 93.37C-50.36 94.49 -47.56 97.2 -46.31 100.81L-46.09 101.44L-38.59 98.84L-38.81 98.21C-40.87 92.28 -45.67 87.63 -51.66 85.78ZM-4 657.5C-6.13 657.49 -8.26999 657.67 -10.34 658.04C-17.17 659.27 -23.41 662.53 -28.39 667.45C-36.15 675.12 -39.83 686.16 -38.23 696.97L-38.19 697.24L-24.58 694.79C-25.49 688.27 -23.36 681.89 -18.67 677.26C-14.76 673.39 -9.56998 671.27 -4.07999 671.31C1.42001 671.33 6.59 673.5 10.46 677.42C14.32 681.33 16.44 686.51 16.41 692.02C16.38 697.53 14.22 702.69 10.31 706.56C5.60001 711.22 -0.869995 713.3 -7.42999 712.25L-8.57001 712.06L-10.74 725.71L-9.60001 725.89C1.19 727.61 12.27 724.06 20.03 716.38C33.52 703.03 33.64 681.19 20.28 667.7C13.81 661.18 5.19 657.55 -4 657.5ZM44.69 600.89L28.56 608.09L37.65 594.64L33.22 591.64L24.1 605.14C22.64 607.29 22.72 609.99 24.28 611.86C25.76 613.62 28.13 614.13 30.33 613.16L46.87 605.78C47 605.72 47.07 605.71 47.1 605.71C47.18 605.81 47.25 606.1 46.95 606.55L37.27 620.88L41.7 623.88L51.38 609.55C52.96 607.22 52.88 604.3 51.2 602.28C49.6 600.38 47.05 599.84 44.69 600.89ZM-63.02 592.21C-60.22 590.73 -57.02 590.43 -54 591.36C-50.36 592.48 -47.56 595.19 -46.31 598.8L-46.09 599.43L-38.59 596.83L-38.81 596.2C-40.86 590.27 -45.67 585.62 -51.66 583.77C-62.08 580.56 -73.17 586.42 -76.38 596.84C-77.94 601.89 -77.43 607.24 -74.97 611.91C-74.4 612.99 -73.73 614.03 -72.98 614.97C-70.51 618.1 -67.17 620.37 -63.32 621.56C-57.33 623.41 -50.75 622.28 -45.7 618.54L-45.57 618.45L-50.5 612.22C-53.55 614.45 -57.37 615.1 -60.98 613.98C-64 613.05 -66.48 611 -67.95 608.2C-69.43 605.41 -69.73 602.2 -68.8 599.18C-67.87 596.17 -65.82 593.69 -63.02 592.21ZM178.89 529.28C176.61 530.22 175.32 532.49 175.61 535.06L177.62 552.61L167.53 539.89L163.34 543.21L173.46 555.98C175.07 558.02 177.67 558.76 179.92 557.83C182.05 556.95 183.25 554.84 182.98 552.46L180.92 534.47C180.9 534.33 180.92 534.26 180.93 534.23C181.05 534.18 181.35 534.21 181.68 534.63L192.42 548.18L196.61 544.86L185.87 531.31C184.12 529.09 181.31 528.28 178.89 529.28ZM96.87 526.04L96.42 527.1L99.37 528.34V528.55L100 528.82L108.67 532.47L109.11 531.41C113.35 521.34 112.53 509.73 106.91 500.36C105 497.18 102.65 494.42 99.99 492.11V491.69C99.78 491.51 99.57 491.34 99.36 491.17C88.45 482.47 72.83 480.96 60.18 488.54C52.29 493.27 46.72 500.79 44.49 509.7C43.97 511.77 43.64 513.89 43.51 515.99C43.08 522.92 44.76 529.75 48.36 535.76C53.97 545.12 63.81 551.32 74.7 552.33L74.98 552.35L75.84 538.55C69.29 537.89 63.6 534.29 60.22 528.65C57.39 523.94 56.57 518.39 57.91 513.06C59.24 507.72 62.58 503.22 67.3 500.39C72.01 497.57 77.55 496.74 82.9 498.09C88.24 499.43 92.74 502.76 95.57 507.47C98.97 513.14 99.45 519.92 96.87 526.04ZM-60.87 533.38L-76.12 517.68C-83.87 524.65 -94.14 527.49 -104.35 525.43C-112.88 523.72 -120.26 518.78 -125.07 511.54C-129.91 504.29 -131.63 495.6 -129.91 487.05C-128.19 478.52 -123.27 471.16 -116 466.33C-108.74 461.5 -100.06 459.77 -91.52 461.48C-81.24 463.54 -72.79 470.19 -68.36 479.73L-67.59 481.39L-47.75 472.17L-48.53 470.52C-55.82 454.83 -70.28 443.43 -87.23 440.03C-116.69 434.13 -145.46 453.3 -151.36 482.76C-154.22 497.04 -151.34 511.56 -143.28 523.67C-141.41 526.48 -139.29 529.13 -136.97 531.51C-129.32 539.39 -119.52 544.7 -108.65 546.88C-91.72 550.27 -73.97 545.34 -61.2 533.68L-60.87 533.38ZM140.39 665.82C135.86 668.94 130.38 670.1 124.97 669.1C119.56 668.1 114.86 665.05 111.74 660.52C108.63 655.99 107.46 650.52 108.47 645.1C109.48 639.69 112.52 634.99 117.05 631.87C122.51 628.12 129.24 627.22 135.51 629.41L136.6 629.79L141.15 616.74L140.06 616.36C129.74 612.76 118.21 614.29 109.21 620.48C105.44 623.07 102.36 626.28 99.99 629.89C99.77 630.22 99.56 630.55 99.36 630.89V631.96C93.61 642.21 93.32 655.05 99.36 665.75V666.84C99.56 667.17 99.78 667.49 99.99 667.81C100.11 667.99 100.22 668.18 100.35 668.36C105.56 675.94 113.41 681.03 122.45 682.7C124.55 683.09 126.68 683.29 128.78 683.29C135.72 683.29 142.44 681.19 148.21 677.22C157.2 671.04 162.77 660.83 163.11 649.9L163.12 649.62H149.3C149.05 656.19 145.82 662.09 140.39 665.82ZM160.06 349.95C156.19 349.23 152.25 348.86 148.36 348.86C135.54 348.86 123.13 352.75 112.46 360.08C107.77 363.3 103.61 367.14 100 371.41C99.79 371.66 99.58 371.9 99.37 372.16V372.92C90.95 383.54 85.99 396.73 85.56 410.55L85.55 411.06H110.46C110.93 398.9 116.9 388 126.93 381.12C135.3 375.36 145.43 373.21 155.41 375.06C165.41 376.9 174.09 382.54 179.85 390.92C185.59 399.29 187.75 409.4 185.89 419.42C184.03 429.42 178.42 438.1 170.05 443.86C159.97 450.8 147.53 452.46 135.94 448.41L133.93 447.7L125.52 471.81L127.53 472.5C146.59 479.15 167.9 476.32 184.52 464.88C213.41 445.01 220.76 405.34 200.89 376.44C191.25 362.45 176.75 353.04 160.06 349.95ZM-315.04 75.21L-304.92 87.98C-303.31 90.02 -300.71 90.76 -298.46 89.83C-296.33 88.95 -295.13 86.84 -295.4 84.46L-297.46 66.47C-297.48 66.33 -297.46 66.26 -297.45 66.23C-297.33 66.18 -297.03 66.21 -296.7 66.63L-285.96 80.18L-281.77 76.86L-292.5 63.3C-294.25 61.09 -297.06 60.28 -299.48 61.28C-301.76 62.22 -303.05 64.49 -302.76 67.06L-300.75 84.61L-310.84 71.89L-315.04 75.21ZM-333.18 276.46C-330.19 280.81 -325.68 283.74 -320.49 284.7C-319.29 284.92 -318.06 285.04 -316.85 285.04C-312.86 285.04 -309 283.83 -305.69 281.55C-300.53 278 -297.32 272.13 -297.13 265.86V265.7H-305.07C-305.22 269.48 -307.07 272.87 -310.19 275.01C-312.79 276.8 -315.94 277.47 -319.05 276.89C-322.16 276.32 -324.86 274.57 -326.65 271.96C-328.44 269.36 -329.11 266.21 -328.53 263.1C-327.95 259.99 -326.21 257.29 -323.6 255.5C-320.46 253.34 -316.6 252.83 -312.99 254.08L-312.36 254.3L-309.74 246.8L-310.37 246.58C-316.3 244.51 -322.92 245.39 -328.09 248.95C-337.07 255.14 -339.35 267.48 -333.18 276.46ZM-356.98 665.82C-361.51 668.94 -366.99 670.1 -372.4 669.1C-377.81 668.1 -382.51 665.05 -385.63 660.52C-388.74 655.99 -389.91 650.52 -388.9 645.1C-387.89 639.69 -384.85 634.99 -380.32 631.87C-374.86 628.12 -368.13 627.22 -361.86 629.41L-360.77 629.79L-356.22 616.74L-357.31 616.36C-367.63 612.76 -379.16 614.29 -388.16 620.48C-392.27 623.31 -395.56 626.88 -398.01 630.88V666.82C-397.7 667.33 -397.37 667.84 -397.02 668.34C-391.81 675.92 -383.96 681.01 -374.92 682.68C-372.82 683.07 -370.69 683.27 -368.59 683.27C-361.65 683.27 -354.93 681.17 -349.16 677.2C-340.17 671.02 -334.6 660.81 -334.26 649.88L-334.25 649.6H-348.07C-348.32 656.19 -351.55 662.09 -356.98 665.82ZM-388.25 531.4C-384.01 521.33 -384.83 509.72 -390.45 500.35C-392.51 496.92 -395.08 493.98 -398 491.56V528.55L-388.7 532.46L-388.25 531.4ZM-337.31 -148.05C-341.18 -148.77 -345.12 -149.14 -349.01 -149.14C-361.83 -149.14 -374.24 -145.25 -384.91 -137.92C-389.87 -134.51 -394.26 -130.42 -398 -125.85V-86.95H-386.91C-386.44 -99.11 -380.47 -110.01 -370.44 -116.89C-362.07 -122.65 -351.94 -124.8 -341.96 -122.95C-331.96 -121.11 -323.28 -115.47 -317.52 -107.09C-311.78 -98.72 -309.62 -88.61 -311.48 -78.59C-313.34 -68.59 -318.95 -59.91 -327.32 -54.15C-337.4 -47.21 -349.84 -45.55 -361.43 -49.6L-363.44 -50.31L-371.85 -26.2L-369.84 -25.51C-350.78 -18.86 -329.47 -21.69 -312.85 -33.13C-283.96 -53 -276.61 -92.67 -296.48 -121.57C-306.12 -135.55 -320.61 -144.96 -337.31 -148.05ZM-337.31 349.95C-341.18 349.23 -345.12 348.86 -349.01 348.86C-361.83 348.86 -374.24 352.75 -384.91 360.08C-389.87 363.49 -394.26 367.58 -398 372.15V411.05H-386.91C-386.44 398.89 -380.47 387.99 -370.44 381.11C-362.07 375.35 -351.94 373.2 -341.96 375.05C-331.96 376.89 -323.28 382.53 -317.52 390.91C-311.78 399.28 -309.62 409.39 -311.48 419.41C-313.34 429.41 -318.95 438.09 -327.32 443.85C-337.4 450.79 -349.84 452.45 -361.43 448.4L-363.44 447.69L-371.85 471.8L-369.84 472.49C-350.78 479.14 -329.47 476.31 -312.85 464.87C-283.96 445 -276.61 405.33 -296.48 376.43C-306.12 362.45 -320.61 353.04 -337.31 349.95ZM-299.48 549.28C-301.76 550.22 -303.05 552.49 -302.76 555.06L-300.75 572.61L-310.84 559.89L-315.03 563.21L-304.91 575.98C-303.3 578.02 -300.7 578.76 -298.45 577.83C-296.32 576.95 -295.12 574.84 -295.39 572.46L-297.45 554.47C-297.47 554.33 -297.45 554.26 -297.44 554.23C-297.32 554.18 -297.02 554.21 -296.69 554.63L-285.95 568.18L-281.76 564.86L-292.5 551.3C-294.25 549.09 -297.06 548.28 -299.48 549.28Z" fill="white" fill-opacity="0.35"/>
</g>
</g>
<defs>
<clipPath id="clip0_122_12294">
<rect width="1202" height="500" rx="20" fill="white"/>
</clipPath>
<clipPath id="clip1_122_12294">
<rect width="1991.37" height="996" fill="white" transform="translate(-398 -266)"/>
</clipPath>
</defs>
</svg>
