<svg width="1648" height="577" viewBox="0 0 1648 577" fill="none" xmlns="http://www.w3.org/2000/svg">
<path d="M668.045 512.28L681.001 502.401C683.064 500.826 683.866 498.237 682.977 495.972C682.145 493.829 680.059 492.591 677.662 492.816L659.628 494.533C659.487 494.549 659.418 494.527 659.388 494.526C659.341 494.405 659.369 494.106 659.799 493.777L673.551 483.29L670.306 479.039L656.564 489.527C654.326 491.237 653.459 494.024 654.413 496.471C655.31 498.766 657.555 500.098 660.132 499.859L677.715 498.189L664.8 508.029L668.045 512.28Z" fill="#94D357"/>
<path d="M985.3 414.671L996.11 418.441L996.42 417.541C999.4 409.001 998.13 399.451 993.01 391.991C984.1 379.041 966.32 375.751 953.37 384.651C947.09 388.971 942.88 395.461 941.49 402.951C941.17 404.691 941 406.451 941 408.201C941 413.951 942.74 419.511 946.03 424.291C951.15 431.741 959.6 436.351 968.65 436.631L968.88 436.641V425.191C963.43 424.981 958.54 422.301 955.46 417.811C952.88 414.061 951.91 409.521 952.75 405.041C953.58 400.561 956.1 396.671 959.86 394.091C963.61 391.521 968.14 390.551 972.63 391.381C977.11 392.211 981 394.731 983.58 398.481C986.69 403.001 987.43 408.581 985.62 413.771L985.3 414.671Z" fill="#C90045" fill-opacity="0.2"/>
<path opacity="0.5" d="M1187.34 428.247C1183.65 429.187 1179.84 428.347 1176.9 425.917L1176.39 425.497L1171.35 431.637L1171.86 432.057C1176.71 436.037 1183.23 437.497 1189.31 435.937C1199.87 433.237 1206.27 422.437 1203.56 411.877C1202.25 406.757 1199.03 402.457 1194.48 399.767C1193.43 399.137 1192.32 398.607 1191.18 398.197C1187.44 396.827 1183.4 396.627 1179.5 397.627C1173.43 399.177 1168.4 403.587 1166.06 409.407L1166 409.557L1173.46 412.297C1174.9 408.797 1177.81 406.257 1181.48 405.317C1184.54 404.537 1187.73 404.987 1190.44 406.597C1193.16 408.207 1195.09 410.777 1195.87 413.847C1196.65 416.907 1196.2 420.087 1194.58 422.807C1192.97 425.537 1190.4 427.467 1187.34 428.247Z" fill="#007EFF"/>
<path d="M1446.01 95.1897L1462.29 94.4697C1464.89 94.3497 1467.01 92.6897 1467.58 90.3197C1468.12 88.0797 1467.11 85.8697 1465.02 84.6897L1449.23 75.8097C1449.11 75.7397 1449.06 75.6897 1449.04 75.6697C1449.07 75.5497 1449.27 75.3197 1449.8 75.2897L1467.07 74.5197L1466.83 69.1797L1449.56 69.9497C1446.75 70.0797 1444.45 71.8797 1443.83 74.4297C1443.26 76.8297 1444.34 79.1997 1446.59 80.4797L1461.99 89.1397L1445.77 89.8597L1446.01 95.1897Z" fill="#95D357"/>
<path d="M1421.73 178.509C1428.32 177.819 1434.66 180.249 1439.13 185.169L1439.9 186.029L1450.14 176.739L1449.36 175.889C1442.02 167.799 1431.15 163.629 1420.29 164.769C1415.33 165.289 1410.73 166.849 1406.67 169.199C1395.77 175.509 1388.8 187.559 1389.49 200.769C1389.52 201.369 1389.57 201.969 1389.63 202.579C1390.59 211.729 1395.05 219.949 1402.18 225.739C1403.83 227.089 1405.61 228.279 1407.46 229.289C1413.56 232.609 1420.46 233.969 1427.43 233.239C1438.28 232.109 1448.06 225.799 1453.58 216.369L1453.72 216.129L1441.57 209.519C1438.2 215.179 1432.54 218.819 1425.99 219.499C1420.52 220.069 1415.15 218.479 1410.88 215.009C1406.6 211.549 1403.93 206.619 1403.36 201.149C1402.79 195.679 1404.39 190.319 1407.86 186.039C1411.34 181.749 1416.26 179.079 1421.73 178.509Z" fill="#C90045" fill-opacity="0.2"/>
<path opacity="0.5" d="M1366.61 291.489C1362.37 288.353 1357.15 287.054 1351.93 287.84C1350.72 288.023 1349.52 288.311 1348.38 288.706C1344.6 290.007 1341.35 292.41 1338.97 295.645C1335.25 300.684 1334.13 307.281 1335.99 313.269L1336.04 313.421L1343.55 310.831C1342.46 307.208 1343.1 303.4 1345.35 300.36C1347.23 297.819 1349.99 296.158 1353.11 295.692C1356.24 295.217 1359.36 295.99 1361.91 297.873C1364.45 299.747 1366.11 302.506 1366.57 305.635C1367.04 308.764 1366.28 311.884 1364.39 314.428C1362.13 317.494 1358.65 319.235 1354.83 319.231L1354.16 319.229L1354.13 327.173L1354.8 327.176C1361.08 327.198 1367.05 324.207 1370.77 319.155C1377.24 310.374 1375.39 297.971 1366.61 291.489Z" fill="#95D357"/>
<path d="M1341.32 501.79L1325.72 509.26L1328.03 514.08L1343.62 506.61C1346.16 505.39 1347.57 502.84 1347.14 500.25C1346.73 497.82 1344.8 496.06 1342.23 495.77L1324.67 493.83L1339.31 486.82L1337 482L1322.31 489.04C1319.97 490.16 1318.66 492.53 1319.07 494.93C1319.45 497.2 1321.24 498.84 1323.63 499.11L1341.63 501.1C1341.77 501.12 1341.84 501.14 1341.86 501.16C1341.89 501.27 1341.8 501.56 1341.32 501.79Z" fill="#C90045" fill-opacity="0.2"/>
<path d="M1170.56 555.739L1155.31 540.039C1147.56 547.009 1137.29 549.849 1127.08 547.789C1118.55 546.079 1111.17 541.139 1106.36 533.899C1101.52 526.649 1099.8 517.959 1101.52 509.409C1103.24 500.879 1108.17 493.519 1115.43 488.689C1122.69 483.859 1131.37 482.129 1139.91 483.839C1150.19 485.899 1158.64 492.549 1163.07 502.089L1163.84 503.749L1183.68 494.529L1182.91 492.879C1175.62 477.189 1161.16 465.789 1144.21 462.389C1114.75 456.489 1085.98 475.659 1080.08 505.119C1077.22 519.399 1080.1 533.919 1088.16 546.029C1090.03 548.839 1092.15 551.489 1094.47 553.869C1102.12 561.749 1111.92 567.059 1122.79 569.239C1139.72 572.629 1157.47 567.699 1170.24 556.039L1170.56 555.739Z" fill="#95D357"/>
<path opacity="0.5" d="M794.14 413.311C790.27 412.591 786.33 412.221 782.44 412.221C769.62 412.221 757.21 416.111 746.54 423.441C741.58 426.851 737.19 430.941 733.45 435.511C724.66 446.251 719.45 459.751 719.01 473.901L719 474.411H744.54C745.01 462.251 750.98 451.351 761.01 444.471C769.38 438.711 779.51 436.561 789.49 438.411C799.49 440.251 808.17 445.891 813.93 454.271C819.67 462.641 821.83 472.751 819.97 482.771C818.11 492.771 812.5 501.451 804.13 507.211C794.05 514.151 781.61 515.811 770.02 511.761L768.01 511.051L759.6 535.161L761.61 535.851C780.67 542.501 801.98 539.671 818.6 528.231C847.49 508.361 854.84 468.691 834.97 439.791C825.33 425.811 810.83 416.401 794.14 413.311Z" fill="#007EFF"/>
<path d="M1436.12 372.311C1432.25 371.591 1428.31 371.221 1424.42 371.221C1411.6 371.221 1399.19 375.111 1388.52 382.441C1383.56 385.851 1379.17 389.941 1375.43 394.511C1366.64 405.251 1361.43 418.751 1360.99 432.901L1360.98 433.411H1386.52C1386.99 421.251 1392.96 410.351 1402.99 403.471C1411.36 397.711 1421.49 395.561 1431.47 397.411C1441.47 399.251 1450.15 404.891 1455.91 413.271C1461.65 421.641 1463.81 431.751 1461.95 441.771C1460.09 451.771 1454.48 460.451 1446.11 466.211C1436.03 473.151 1423.59 474.811 1412 470.761L1409.99 470.051L1401.58 494.161L1403.59 494.851C1422.65 501.501 1443.96 498.671 1460.58 487.231C1489.47 467.361 1496.82 427.691 1476.95 398.791C1467.31 384.811 1452.81 375.401 1436.12 372.311Z" fill="#007EFF"/>
<path d="M375.369 477.43C382.268 485.873 394.747 487.136 403.191 480.237C407.286 476.897 409.825 472.16 410.363 466.909C410.486 465.694 410.504 464.457 410.4 463.259C410.077 459.285 408.553 455.545 406.007 452.422C402.044 447.564 395.939 444.861 389.663 445.178L389.505 445.181L390.16 453.099C393.934 452.931 397.475 454.505 399.86 457.437C401.86 459.884 402.79 462.965 402.463 466.11C402.15 469.253 400.622 472.092 398.175 474.091C395.728 476.091 392.653 477.012 389.502 476.694C386.351 476.375 383.521 474.853 381.521 472.406C379.111 469.457 378.28 465.65 379.239 461.952L379.404 461.306L371.72 459.317L371.554 459.963C369.979 466.05 371.406 472.572 375.369 477.43Z" fill="#C90045" fill-opacity="0.2"/>
<path d="M239.558 410.417L224.308 394.717C216.558 401.687 206.288 404.527 196.078 402.467C187.548 400.757 180.168 395.817 175.358 388.577C170.518 381.327 168.798 372.637 170.518 364.087C172.238 355.557 177.168 348.197 184.428 343.367C191.688 338.537 200.368 336.807 208.908 338.517C219.188 340.577 227.638 347.227 232.068 356.767L232.838 358.427L252.678 349.207L251.908 347.557C244.618 331.867 230.158 320.467 213.208 317.067C183.748 311.167 154.978 330.337 149.078 359.797C146.218 374.077 149.098 388.597 157.158 400.707C159.028 403.517 161.148 406.167 163.468 408.547C171.118 416.427 180.918 421.737 191.788 423.917C208.718 427.307 226.468 422.377 239.238 410.717L239.558 410.417Z" fill="#95D357"/>
</svg>
