<svg width="320" height="182" viewBox="0 0 320 182" preserveAspectRatio="none" fill="none" xmlns="http://www.w3.org/2000/svg">
<g clip-path="url(#clip0_104_7099)">
<path d="M0 0H320V182H7.17217e-07L0 0Z" fill="url(#paint0_linear_104_7099)"/>
<g opacity="0.2">
<path d="M21.0625 169.217L12.035 159.923C7.44732 164.049 1.36786 165.73 -4.67609 164.511C-9.72553 163.498 -14.0942 160.574 -16.9416 156.288C-19.8067 151.996 -20.8248 146.852 -19.8067 141.791C-18.7885 136.742 -15.876 132.385 -11.5725 129.526C-7.2748 126.666 -2.13655 125.642 2.91881 126.655C9.00419 127.874 14.0063 131.811 16.6287 137.458L17.0845 138.441L28.829 132.983L28.3732 132.006C24.0578 122.718 15.498 115.97 5.46424 113.957C-11.975 110.464 -29.0058 121.812 -32.4983 139.252C-34.1914 147.705 -32.4865 156.3 -27.7153 163.469C-26.6083 165.132 -25.3533 166.701 -23.98 168.11C-19.4515 172.774 -13.6502 175.918 -7.21561 177.208C2.80632 179.215 13.3137 176.297 20.873 169.394L21.0625 169.217Z" fill="white"/>
<path d="M95.1464 47.0829L83.538 42.8978C81.3358 48.3438 76.831 52.3218 71.1482 53.8076C66.4006 55.0567 61.4459 54.3759 57.2134 51.8956C52.969 49.4212 49.95 45.4373 48.7069 40.6838C47.4697 35.9422 48.1445 30.9934 50.6307 26.7431C53.1111 22.5046 57.0891 19.4797 61.8366 18.2307C67.555 16.733 73.4805 18.0116 78.086 21.7469L78.8851 22.3981L86.6576 12.8201L85.8585 12.1749C78.2872 6.0303 68.141 3.8282 58.711 6.30261C42.3255 10.6003 32.4871 27.4238 36.7847 43.8094C38.8684 51.7476 43.9179 58.3953 50.9977 62.5391C52.6375 63.504 54.372 64.315 56.136 64.9543C61.9609 67.0558 68.2416 67.3222 74.2856 65.7357C83.7037 63.2672 91.4762 56.3827 95.0635 47.3138L95.1464 47.0829Z" fill="white"/>
<path d="M-2.07715 47.9885L2.33889 49.6105C3.19132 47.5386 4.91392 46.035 7.08643 45.4845C8.89783 45.0228 10.7862 45.2892 12.3904 46.2422C14.0006 47.1953 15.1431 48.7166 15.6048 50.5339C16.0665 52.3454 15.8001 54.2278 14.8411 55.8379C13.8881 57.4481 12.3667 58.5906 10.5553 59.0582C8.371 59.6147 6.11561 59.1174 4.37524 57.6789L4.07334 57.4303L1.08984 61.065L1.39175 61.3136C4.26277 63.6696 8.12237 64.5339 11.7215 63.6104C17.9726 62.0121 21.7612 55.6189 20.157 49.3678C19.3815 46.3369 17.4754 43.7915 14.7819 42.1991C14.1604 41.8262 13.5033 41.5124 12.8285 41.2697C10.6145 40.4587 8.22301 40.3403 5.91435 40.9323C2.32114 41.8498 -0.656439 44.4604 -2.04163 47.9056L-2.07715 47.9885Z" fill="white"/>
<path d="M67.8926 98.9387L57.4978 97.7903L66.1641 93.6406L64.7967 90.7874L56.1008 94.9548C54.7156 95.6178 53.9401 97.0207 54.1828 98.4414C54.4077 99.7852 55.4673 100.756 56.8821 100.916L67.5375 102.094C67.6203 102.106 67.6618 102.118 67.6736 102.129C67.6855 102.2 67.6322 102.378 67.348 102.514L58.1134 106.936L59.4809 109.789L68.7155 105.367C70.2191 104.645 71.0537 103.136 70.7992 101.603C70.5565 100.152 69.414 99.1103 67.8926 98.9387Z" fill="white"/>
<path d="M178.26 10.7601H173.56C173.471 12.9977 172.376 15.0044 170.529 16.2712C168.99 17.3309 167.125 17.7275 165.284 17.3841C163.443 17.0467 161.845 16.0108 160.785 14.4658C159.725 12.9267 159.329 11.062 159.672 9.22097C160.016 7.37997 161.046 5.78166 162.591 4.72205C164.449 3.44341 166.734 3.14151 168.871 3.88146L169.244 4.0117L170.795 -0.428025L170.422 -0.558258C166.912 -1.78362 162.993 -1.26269 159.933 0.844696C154.617 4.50303 153.261 11.8019 156.92 17.1237C158.69 19.6987 161.359 21.4332 164.432 22.0014C165.142 22.1317 165.87 22.2027 166.586 22.2027C168.948 22.2027 171.233 21.4864 173.193 20.1368C176.247 18.0353 178.147 14.5605 178.26 10.8489V10.7601Z" fill="white"/>
<path d="M235.881 104.633V97.8554C232.655 97.7311 229.76 96.1447 227.937 93.4868C226.41 91.2669 225.836 88.5794 226.333 85.9274C226.824 83.2754 228.316 80.9727 230.542 79.4454C232.762 77.9241 235.443 77.3499 238.101 77.8412C240.753 78.3325 243.056 79.8243 244.583 82.0441C246.424 84.7198 246.862 88.0229 245.791 91.0952L245.601 91.628L252.001 93.8597L252.184 93.3269C253.948 88.2716 253.196 82.6183 250.165 78.2023C244.891 70.5364 234.366 68.5888 226.7 73.8573C222.982 76.4146 220.49 80.2564 219.668 84.6902C219.478 85.7202 219.377 86.7621 219.377 87.798C219.377 91.2018 220.407 94.4931 222.355 97.3227C225.386 101.733 230.388 104.462 235.745 104.627L235.881 104.633Z" fill="white"/>
<path d="M208.598 173.792L213.014 175.414C213.866 173.343 215.589 171.839 217.761 171.288C219.573 170.827 221.461 171.093 223.065 172.046C224.675 172.999 225.818 174.521 226.28 176.338C226.741 178.149 226.475 180.032 225.516 181.642C224.563 183.252 223.042 184.395 221.23 184.862C219.046 185.419 216.79 184.921 215.05 183.483L214.748 183.234L211.765 186.869L212.067 187.118C214.938 189.474 218.797 190.338 222.396 189.414C228.647 187.816 232.436 181.423 230.832 175.172C230.056 172.141 228.15 169.595 225.457 168.003C224.835 167.63 224.178 167.316 223.503 167.074C221.289 166.263 218.898 166.144 216.589 166.736C212.996 167.654 210.018 170.264 208.633 173.71L208.598 173.792Z" fill="white"/>
<path d="M318.111 169.217L309.083 159.923C304.496 164.049 298.416 165.73 292.372 164.511C287.323 163.498 282.954 160.574 280.107 156.288C277.242 151.996 276.224 146.852 277.242 141.791C278.26 136.742 281.172 132.385 285.476 129.526C289.774 126.666 294.912 125.642 299.967 126.655C306.053 127.874 311.055 131.811 313.677 137.458L314.133 138.441L325.877 132.983L325.422 132.006C321.106 122.718 312.546 115.97 302.513 113.957C285.073 110.464 268.043 121.812 264.55 139.252C262.857 147.705 264.562 156.3 269.333 163.469C270.44 165.132 271.695 166.701 273.068 168.11C277.597 172.774 283.398 175.918 289.833 177.208C299.855 179.215 310.362 176.297 317.921 169.394L318.111 169.217Z" fill="white"/>
<path d="M109.989 96.8076H125.108C125.386 89.6094 128.92 83.157 134.857 79.0843C139.812 75.6746 145.808 74.4018 151.716 75.497C157.636 76.5862 162.774 79.9189 166.184 84.8855C169.582 89.8402 170.86 95.825 169.759 101.756C168.658 107.676 165.337 112.814 160.383 116.224C154.416 120.332 147.052 121.315 140.191 118.917L139.001 118.497L134.022 132.769L135.212 133.184C146.495 137.12 159.11 135.445 168.948 128.673C186.05 116.911 190.401 93.4275 178.639 76.3198C172.938 68.0323 164.355 62.4679 154.475 60.6328C152.184 60.2066 149.852 59.9875 147.549 59.9875C139.96 59.9875 132.614 62.2903 126.297 66.6294C116.465 73.3896 110.368 84.554 110.001 96.5057L109.989 96.8076Z" fill="white"/>
<path d="M294.971 47.9885L299.387 49.6105C300.24 47.5386 301.962 46.035 304.135 45.4845C305.946 45.0228 307.835 45.2892 309.439 46.2422C311.049 47.1953 312.191 48.7166 312.653 50.5339C313.115 52.3454 312.848 54.2278 311.889 55.8379C310.936 57.4481 309.415 58.5906 307.604 59.0582C305.419 59.6147 303.164 59.1174 301.424 57.6789L301.122 57.4303L298.138 61.065L298.44 61.3136C301.311 63.6696 305.171 64.5339 308.77 63.6104C315.021 62.0121 318.81 55.6189 317.205 49.3678C316.43 46.3369 314.524 43.7915 311.83 42.1991C311.209 41.8262 310.552 41.5124 309.877 41.2697C307.663 40.4587 305.271 40.3403 302.963 40.9323C299.369 41.8498 296.392 44.4604 295.007 47.9056L294.971 47.9885Z" fill="white"/>
<path d="M163.674 170.211L164.863 180.6L158.89 173.07L156.41 175.036L162.401 182.595C163.354 183.803 164.893 184.241 166.225 183.69C167.486 183.169 168.196 181.92 168.036 180.511L166.817 169.862C166.805 169.779 166.817 169.738 166.823 169.72C166.894 169.69 167.071 169.708 167.267 169.957L173.624 177.978L176.105 176.012L169.747 167.991C168.711 166.683 167.048 166.204 165.615 166.796C164.266 167.346 163.502 168.69 163.674 170.211Z" fill="white"/>
<path d="M225.824 37.7654L230.204 47.2605L222.177 41.9802L220.437 44.6263L228.494 49.9244C229.778 50.7709 231.376 50.7057 232.472 49.7704C233.508 48.8825 233.792 47.4736 233.194 46.1832L228.701 36.4513C228.665 36.3743 228.659 36.3329 228.659 36.3151C228.719 36.2678 228.89 36.2263 229.157 36.398L237.71 42.0216L239.451 39.3756L230.897 33.7519C229.506 32.8344 227.777 32.8995 226.599 33.9118C225.486 34.8589 225.185 36.3743 225.824 37.7654Z" fill="white"/>
<path d="M103.815 180.446L104.324 172.277C100.446 171.886 97.078 169.755 95.0772 166.417C93.402 163.628 92.9165 160.343 93.7098 157.188C94.4971 154.027 96.4742 151.363 99.2683 149.688C102.056 148.018 105.336 147.527 108.503 148.326C111.664 149.119 114.328 151.091 116.003 153.879C118.022 157.241 118.306 161.255 116.779 164.877L116.512 165.505L124.054 168.678L124.314 168.05C126.824 162.089 126.339 155.217 123.012 149.67C117.234 140.033 104.691 136.895 95.0535 142.673C90.3829 145.473 87.0857 149.924 85.7656 155.199C85.4578 156.424 85.2625 157.679 85.1855 158.916C84.931 163.019 85.9255 167.062 88.0565 170.62C91.3774 176.16 97.2024 179.83 103.649 180.428L103.815 180.446Z" fill="white"/>
<path d="M228.281 -70.2146L234.313 -56.345C241.02 -58.9614 248.354 -58.2925 254.451 -54.4744C259.554 -51.2896 263.112 -46.2993 264.461 -40.4448C265.823 -34.5785 264.811 -28.5405 261.62 -23.4377C258.435 -18.3469 253.451 -14.7892 247.579 -13.4336C241.712 -12.0839 235.674 -13.0843 230.572 -16.2631C224.427 -20.0991 220.591 -26.4627 220.046 -33.7083L219.958 -34.9692L204.88 -33.8444L204.981 -32.5895C205.869 -20.6733 212.44 -9.77523 222.568 -3.44715C240.173 7.54561 263.449 2.17058 274.442 -15.4344C279.77 -23.9646 281.451 -34.0576 279.189 -43.8486C278.669 -46.1218 277.94 -48.3475 277.023 -50.4608C273.998 -57.4223 268.954 -63.2413 262.461 -67.3022C252.344 -73.6244 239.67 -74.7609 228.565 -70.333L228.281 -70.2146Z" fill="white"/>
</g>
</g>
<defs>
<linearGradient id="paint0_linear_104_7099" x1="3.19624" y1="104.651" x2="338.239" y2="104.464" gradientUnits="userSpaceOnUse">
<stop stop-color="#94D357"/>
<stop offset="1" stop-color="#007EFF"/>
</linearGradient>
<clipPath id="clip0_104_7099">
<rect width="320" height="182" fill="white"/>
</clipPath>
</defs>
</svg>
