<svg width="891" height="120" viewBox="0 0 891 120" preserveAspectRatio="none" fill="none" xmlns="http://www.w3.org/2000/svg">
<g clip-path="url(#clip0_101_874)">
<path d="M0 20C0 8.95431 8.95431 0 20 0H871C882.046 0 891 8.95431 891 20V100C891 111.046 882.046 120 871 120H20C8.95431 120 0 111.046 0 100V20Z" fill="url(#paint0_linear_101_874)"/>
<g opacity="0.2">
<path d="M600.93 52.6334V45.8554C597.704 45.7311 594.809 44.1447 592.986 41.4868C591.459 39.2669 590.885 36.5794 591.382 33.9274C591.873 31.2754 593.365 28.9727 595.591 27.4454C597.811 25.9241 600.492 25.3499 603.15 25.8412C605.802 26.3325 608.105 27.8243 609.632 30.0441C611.473 32.7198 611.911 36.0229 610.84 39.0952L610.65 39.628L617.049 41.8597L617.233 41.3269C618.997 36.2716 618.245 30.6183 615.214 26.2023C609.94 18.5364 599.415 16.5888 591.749 21.8573C588.031 24.4146 585.539 28.2564 584.716 32.6902C584.527 33.7202 584.426 34.7621 584.426 35.798C584.426 39.2018 585.456 42.4931 587.404 45.3227C590.435 49.7328 595.437 52.4617 600.794 52.6275L600.93 52.6334Z" fill="white"/>
<path d="M573.646 121.792L578.063 123.414C578.915 121.343 580.638 119.839 582.81 119.288C584.621 118.827 586.51 119.093 588.114 120.046C589.724 120.999 590.867 122.521 591.328 124.338C591.79 126.149 591.524 128.032 590.565 129.642C589.612 131.252 588.09 132.395 586.279 132.862C584.095 133.419 581.839 132.921 580.099 131.483L579.797 131.234L576.813 134.869L577.115 135.118C579.986 137.474 583.846 138.338 587.445 137.414C593.696 135.816 597.485 129.423 595.881 123.172C595.105 120.141 593.199 117.595 590.506 116.003C589.884 115.63 589.227 115.316 588.552 115.074C586.338 114.263 583.947 114.144 581.638 114.736C578.045 115.654 575.067 118.264 573.682 121.71L573.646 121.792Z" fill="white"/>
<path d="M683.16 117.217L674.133 107.923C669.545 112.049 663.466 113.73 657.422 112.511C652.372 111.498 648.003 108.574 645.156 104.288C642.291 99.9965 641.273 94.8523 642.291 89.791C643.309 84.7416 646.222 80.3848 650.525 77.5256C654.823 74.6664 659.961 73.6423 665.016 74.6546C671.102 75.874 676.104 79.8106 678.726 85.4579L679.182 86.4405L690.927 80.9826L690.471 80.0059C686.155 70.718 677.596 63.9696 667.562 61.957C650.123 58.4644 633.092 69.8123 629.599 87.2515C627.906 95.7048 629.611 104.3 634.382 111.469C635.489 113.132 636.744 114.701 638.118 116.11C642.646 120.774 648.447 123.918 654.882 125.208C664.904 127.215 675.411 124.297 682.971 117.394L683.16 117.217Z" fill="white"/>
<path d="M475.038 44.8076H490.156C490.435 37.6094 493.969 31.157 499.906 27.0843C504.861 23.6746 510.857 22.4018 516.765 23.497C522.685 24.5862 527.823 27.9189 531.233 32.8855C534.631 37.8402 535.909 43.825 534.808 49.7565C533.707 55.6761 530.386 60.8143 525.431 64.224C519.464 68.3323 512.1 69.3149 505.24 66.9175L504.05 66.4972L499.071 80.7694L500.261 81.1838C511.544 85.1203 524.159 83.4451 533.997 76.673C551.099 64.9107 555.45 41.4275 543.688 24.3198C537.987 16.0323 529.403 10.4679 519.524 8.63279C517.233 8.20657 514.9 7.98755 512.598 7.98755C505.009 7.98755 497.662 10.2903 491.346 14.6294C481.514 21.3896 475.416 32.554 475.049 44.5057L475.038 44.8076Z" fill="white"/>
<path d="M757.244 -4.91707L745.636 -9.10224C743.434 -3.65618 738.929 0.321804 733.246 1.80763C728.498 3.05667 723.544 2.37592 719.311 -0.104404C715.067 -2.57881 712.048 -6.56273 710.805 -11.3162C709.567 -16.0578 710.242 -21.0066 712.728 -25.2569C715.209 -29.4954 719.187 -32.5203 723.934 -33.7693C729.653 -35.267 735.578 -33.9884 740.184 -30.2531L740.983 -29.6019L748.755 -39.1799L747.956 -39.8251C740.385 -45.9697 730.239 -48.1718 720.809 -45.6974C704.423 -41.3997 694.585 -24.5762 698.882 -8.19062C700.966 -0.252399 706.016 6.39534 713.095 10.5391C714.735 11.504 716.47 12.315 718.234 12.9543C724.059 15.0558 730.339 15.3222 736.383 13.7357C745.801 11.2672 753.574 4.38267 757.161 -4.6862L757.244 -4.91707Z" fill="white"/>
<path d="M660.02 -4.0115L664.436 -2.38952C665.288 -4.46139 667.011 -5.96497 669.184 -6.5155C670.995 -6.97723 672.883 -6.71085 674.488 -5.75779C676.098 -4.80473 677.24 -3.28338 677.702 -1.46606C678.164 0.345351 677.897 2.2278 676.938 3.83794C675.985 5.44808 674.464 6.59056 672.653 7.05822C670.468 7.61466 668.213 7.11741 666.472 5.67894L666.171 5.43032L663.187 9.06497L663.489 9.31359C666.36 11.6696 670.22 12.5339 673.819 11.6104C680.07 10.0121 683.858 3.61891 682.254 -2.63222C681.479 -5.66307 679.573 -8.20851 676.879 -9.80089C676.258 -10.1738 675.6 -10.4876 674.926 -10.7303C672.712 -11.5413 670.32 -11.6597 668.012 -11.0677C664.418 -10.1502 661.441 -7.5396 660.056 -4.09437L660.02 -4.0115Z" fill="white"/>
<path d="M528.723 118.211L529.913 128.6L523.94 121.07L521.459 123.036L527.45 130.595C528.403 131.803 529.942 132.241 531.274 131.69C532.535 131.169 533.245 129.92 533.086 128.511L531.866 117.862C531.854 117.779 531.866 117.738 531.872 117.72C531.943 117.69 532.121 117.708 532.316 117.957L538.674 125.978L541.154 124.012L534.796 115.991C533.76 114.683 532.097 114.204 530.664 114.796C529.315 115.346 528.551 116.69 528.723 118.211Z" fill="white"/>
<path d="M729.99 46.9387L719.595 45.7903L728.261 41.6406L726.894 38.7874L718.198 42.9548C716.813 43.6178 716.037 45.0207 716.28 46.4414C716.505 47.7852 717.565 48.756 718.979 48.9158L729.635 50.0938C729.718 50.1057 729.759 50.1175 729.771 50.1293C729.783 50.2004 729.729 50.378 729.445 50.5141L720.211 54.9361L721.578 57.7894L730.813 53.3674C732.316 52.6452 733.151 51.1357 732.896 49.6025C732.654 48.1522 731.511 47.1103 729.99 46.9387Z" fill="white"/>
<path d="M468.863 128.446L469.372 120.277C465.495 119.886 462.127 117.755 460.126 114.417C458.451 111.628 457.965 108.343 458.759 105.188C459.546 102.027 461.523 99.363 464.317 97.6877C467.105 96.0184 470.385 95.527 473.552 96.3262C476.713 97.1194 479.377 99.0906 481.052 101.879C483.071 105.241 483.355 109.255 481.827 112.877L481.561 113.505L489.103 116.678L489.363 116.05C491.873 110.089 491.388 103.217 488.061 97.6699C482.283 88.0328 469.74 84.8954 460.102 90.6729C455.432 93.4729 452.135 97.9245 450.814 103.199C450.507 104.424 450.311 105.679 450.234 106.916C449.98 111.019 450.974 115.062 453.105 118.62C456.426 124.16 462.251 127.83 468.698 128.428L468.863 128.446Z" fill="white"/>
<path d="M897.979 52.6334V45.8554C894.753 45.7311 891.858 44.1447 890.035 41.4868C888.508 39.2669 887.933 36.5794 888.431 33.9274C888.922 31.2754 890.414 28.9727 892.64 27.4454C894.859 25.9241 897.541 25.3499 900.199 25.8412C902.851 26.3325 905.154 27.8243 906.681 30.0441C908.522 32.7198 908.96 36.0229 907.888 39.0952L907.699 39.628L914.098 41.8597L914.282 41.3269C916.046 36.2716 915.294 30.6183 912.263 26.2023C906.989 18.5364 896.464 16.5888 888.798 21.8573C885.08 24.4146 882.588 28.2564 881.765 32.6902C881.576 33.7202 881.475 34.7621 881.475 35.798C881.475 39.2018 882.505 42.4931 884.453 45.3227C887.484 49.7328 892.486 52.4617 897.843 52.6275L897.979 52.6334Z" fill="white"/>
<path d="M870.696 121.792L875.112 123.414C875.964 121.343 877.687 119.839 879.859 119.288C881.671 118.827 883.559 119.093 885.163 120.046C886.774 120.999 887.916 122.521 888.378 124.338C888.839 126.149 888.573 128.032 887.614 129.642C886.661 131.252 885.14 132.395 883.328 132.862C881.144 133.419 878.889 132.921 877.148 131.483L876.846 131.234L873.863 134.869L874.165 135.118C877.036 137.474 880.895 138.338 884.494 137.414C890.746 135.816 894.534 129.423 892.93 123.172C892.154 120.141 890.248 117.595 887.555 116.003C886.933 115.63 886.276 115.316 885.601 115.074C883.387 114.263 880.996 114.144 878.687 114.736C875.094 115.654 872.117 118.264 870.731 121.71L870.696 121.792Z" fill="white"/>
<path d="M772.086 44.8076H787.205C787.483 37.6094 791.017 31.157 796.955 27.0843C801.91 23.6746 807.906 22.4018 813.814 23.497C819.734 24.5862 824.872 27.9189 828.281 32.8855C831.679 37.8402 832.958 43.825 831.857 49.7565C830.756 55.6761 827.435 60.8143 822.48 64.224C816.513 68.3323 809.149 69.3149 802.288 66.9175L801.099 66.4972L796.12 80.7694L797.31 81.1838C808.593 85.1203 821.208 83.4451 831.046 76.673C848.148 64.9107 852.499 41.4275 840.736 24.3198C835.036 16.0323 826.452 10.4679 816.572 8.63279C814.282 8.20657 811.949 7.98755 809.646 7.98755C802.058 7.98755 794.711 10.2903 788.395 14.6294C778.563 21.3896 772.465 32.554 772.098 44.5057L772.086 44.8076Z" fill="white"/>
<path d="M825.772 118.211L826.962 128.6L820.989 121.07L818.508 123.036L824.499 130.595C825.452 131.803 826.991 132.241 828.323 131.69C829.584 131.169 830.294 129.92 830.134 128.511L828.915 117.862C828.903 117.779 828.915 117.738 828.921 117.72C828.992 117.69 829.17 117.708 829.365 117.957L835.723 125.978L838.203 124.012L831.845 115.991C830.809 114.683 829.146 114.204 827.713 114.796C826.364 115.346 825.6 116.69 825.772 118.211Z" fill="white"/>
<path d="M765.912 128.446L766.421 120.277C762.544 119.886 759.176 117.755 757.175 114.417C755.5 111.628 755.014 108.343 755.807 105.188C756.595 102.027 758.572 99.363 761.366 97.6877C764.154 96.0184 767.434 95.527 770.601 96.3262C773.762 97.1194 776.426 99.0906 778.101 101.879C780.119 105.241 780.403 109.255 778.876 112.877L778.61 113.505L786.151 116.678L786.412 116.05C788.922 110.089 788.436 103.217 785.11 97.6699C779.332 88.0328 766.788 84.8954 757.151 90.6729C752.481 93.4729 749.183 97.9245 747.863 103.199C747.555 104.424 747.36 105.679 747.283 106.916C747.029 111.019 748.023 115.062 750.154 118.62C753.475 124.16 759.3 127.83 765.746 128.428L765.912 128.446Z" fill="white"/>
<path d="M6.83303 52.6334V45.8554C3.60683 45.7311 0.712135 44.1447 -1.11111 41.4868C-2.63837 39.2669 -3.21258 36.5794 -2.71533 33.9274C-2.224 31.2754 -0.732258 28.9727 1.49352 27.4454C3.71338 25.9241 6.39498 25.3499 9.05289 25.8412C11.7049 26.3325 14.0076 27.8243 15.5349 30.0441C17.3759 32.7198 17.8139 36.0229 16.7425 39.0952L16.5531 39.628L22.9522 41.8597L23.1357 41.3269C24.8997 36.2716 24.1479 30.6183 21.1171 26.2023C15.8427 18.5364 5.3176 16.5888 -2.34832 21.8573C-6.06585 24.4146 -8.558 28.2564 -9.38083 32.6902C-9.57026 33.7202 -9.6709 34.7621 -9.6709 35.798C-9.6709 39.2018 -8.64088 42.4931 -6.69333 45.3227C-3.66248 49.7328 1.33961 52.4617 6.69687 52.6275L6.83303 52.6334Z" fill="white"/>
<path d="M-20.4507 121.792L-16.0346 123.414C-15.1822 121.343 -13.4596 119.839 -11.2871 119.288C-9.47568 118.827 -7.58733 119.093 -5.98311 120.046C-4.37297 120.999 -3.23048 122.521 -2.76875 124.338C-2.30701 126.149 -2.5734 128.032 -3.53238 129.642C-4.48544 131.252 -6.00678 132.395 -7.81819 132.862C-10.0025 133.419 -12.2579 132.921 -13.9983 131.483L-14.3002 131.234L-17.2837 134.869L-16.9818 135.118C-14.1108 137.474 -10.2512 138.338 -6.65202 137.414C-0.40089 135.816 3.38767 129.423 1.78345 123.172C1.00798 120.141 -0.898142 117.595 -3.59157 116.003C-4.21313 115.63 -4.87021 115.316 -5.54505 115.074C-7.75899 114.263 -10.1505 114.144 -12.4592 114.736C-16.0524 115.654 -19.03 118.264 -20.4152 121.71L-20.4507 121.792Z" fill="white"/>
<path d="M89.0625 117.217L80.035 107.923C75.4473 112.049 69.3679 113.73 63.3239 112.511C58.2745 111.498 53.9058 108.574 51.0584 104.288C48.1933 99.9965 47.1752 94.8523 48.1933 89.791C49.2115 84.7416 52.124 80.3848 56.4275 77.5256C60.7252 74.6664 65.8634 73.6423 70.9188 74.6546C77.0042 75.874 82.0063 79.8106 84.6287 85.4579L85.0845 86.4405L96.829 80.9826L96.3732 80.0059C92.0578 70.718 83.498 63.9696 73.4642 61.957C56.025 58.4644 38.9942 69.8123 35.5017 87.2515C33.8086 95.7048 35.5135 104.3 40.2847 111.469C41.3917 113.132 42.6467 114.701 44.02 116.11C48.5485 120.774 54.3498 123.918 60.7844 125.208C70.8063 127.215 81.3137 124.297 88.873 117.394L89.0625 117.217Z" fill="white"/>
<path d="M163.146 -4.91707L151.538 -9.10224C149.336 -3.65618 144.831 0.321804 139.148 1.80763C134.401 3.05667 129.446 2.37592 125.213 -0.104404C120.969 -2.57881 117.95 -6.56273 116.707 -11.3162C115.47 -16.0578 116.144 -21.0066 118.631 -25.2569C121.111 -29.4954 125.089 -32.5203 129.837 -33.7693C135.555 -35.267 141.481 -33.9884 146.086 -30.2531L146.885 -29.6019L154.658 -39.1799L153.858 -39.8251C146.287 -45.9697 136.141 -48.1718 126.711 -45.6974C110.326 -41.3997 100.487 -24.5762 104.785 -8.19062C106.868 -0.252399 111.918 6.39534 118.998 10.5391C120.637 11.504 122.372 12.315 124.136 12.9543C129.961 15.0558 136.242 15.3222 142.286 13.7357C151.704 11.2672 159.476 4.38267 163.063 -4.6862L163.146 -4.91707Z" fill="white"/>
<path d="M65.9229 -4.0115L70.3389 -2.38952C71.1913 -4.46139 72.9139 -5.96497 75.0864 -6.5155C76.8978 -6.97723 78.7862 -6.71085 80.3904 -5.75779C82.0006 -4.80473 83.1431 -3.28338 83.6048 -1.46606C84.0665 0.345351 83.8001 2.2278 82.8411 3.83794C81.8881 5.44808 80.3667 6.59056 78.5553 7.05822C76.371 7.61466 74.1156 7.11741 72.3752 5.67894L72.0733 5.43032L69.0898 9.06497L69.3917 9.31359C72.2628 11.6696 76.1224 12.5339 79.7215 11.6104C85.9726 10.0121 89.7612 3.61891 88.157 -2.63222C87.3815 -5.66307 85.4754 -8.20851 82.7819 -9.80089C82.1604 -10.1738 81.5033 -10.4876 80.8285 -10.7303C78.6145 -11.5413 76.223 -11.6597 73.9144 -11.0677C70.3211 -10.1502 67.3436 -7.5396 65.9584 -4.09437L65.9229 -4.0115Z" fill="white"/>
<path d="M135.893 46.9387L125.498 45.7903L134.164 41.6406L132.797 38.7874L124.101 42.9548C122.716 43.6178 121.94 45.0207 122.183 46.4414C122.408 47.7852 123.467 48.756 124.882 48.9158L135.537 50.0938C135.62 50.1057 135.662 50.1175 135.674 50.1293C135.685 50.2004 135.632 50.378 135.348 50.5141L126.113 54.9361L127.481 57.7894L136.715 53.3674C138.219 52.6452 139.054 51.1357 138.799 49.6025C138.556 48.1522 137.414 47.1103 135.893 46.9387Z" fill="white"/>
<path d="M303.881 52.6334V45.8554C300.655 45.7311 297.76 44.1447 295.937 41.4868C294.41 39.2669 293.836 36.5794 294.333 33.9274C294.824 31.2754 296.316 28.9727 298.542 27.4454C300.762 25.9241 303.443 25.3499 306.101 25.8412C308.753 26.3325 311.056 27.8243 312.583 30.0441C314.424 32.7198 314.862 36.0229 313.791 39.0952L313.601 39.628L320.001 41.8597L320.184 41.3269C321.948 36.2716 321.196 30.6183 318.165 26.2023C312.891 18.5364 302.366 16.5888 294.7 21.8573C290.982 24.4146 288.49 28.2564 287.668 32.6902C287.478 33.7202 287.377 34.7621 287.377 35.798C287.377 39.2018 288.407 42.4931 290.355 45.3227C293.386 49.7328 298.388 52.4617 303.745 52.6275L303.881 52.6334Z" fill="white"/>
<path d="M276.598 121.792L281.014 123.414C281.866 121.343 283.589 119.839 285.761 119.288C287.573 118.827 289.461 119.093 291.065 120.046C292.675 120.999 293.818 122.521 294.28 124.338C294.741 126.149 294.475 128.032 293.516 129.642C292.563 131.252 291.042 132.395 289.23 132.862C287.046 133.419 284.79 132.921 283.05 131.483L282.748 131.234L279.765 134.869L280.067 135.118C282.938 137.474 286.797 138.338 290.396 137.414C296.647 135.816 300.436 129.423 298.832 123.172C298.056 120.141 296.15 117.595 293.457 116.003C292.835 115.63 292.178 115.316 291.503 115.074C289.289 114.263 286.898 114.144 284.589 114.736C280.996 115.654 278.018 118.264 276.633 121.71L276.598 121.792Z" fill="white"/>
<path d="M386.111 117.217L377.083 107.923C372.496 112.049 366.416 113.73 360.372 112.511C355.323 111.498 350.954 108.574 348.107 104.288C345.242 99.9965 344.224 94.8523 345.242 89.791C346.26 84.7416 349.172 80.3848 353.476 77.5256C357.774 74.6664 362.912 73.6423 367.967 74.6546C374.053 75.874 379.055 79.8106 381.677 85.4579L382.133 86.4405L393.877 80.9826L393.422 80.0059C389.106 70.718 380.546 63.9696 370.513 61.957C353.073 58.4644 336.043 69.8123 332.55 87.2515C330.857 95.7048 332.562 104.3 337.333 111.469C338.44 113.132 339.695 114.701 341.068 116.11C345.597 120.774 351.398 123.918 357.833 125.208C367.855 127.215 378.362 124.297 385.921 117.394L386.111 117.217Z" fill="white"/>
<path d="M177.989 44.8076H193.108C193.386 37.6094 196.92 31.157 202.857 27.0843C207.812 23.6746 213.808 22.4018 219.716 23.497C225.636 24.5862 230.774 27.9189 234.184 32.8855C237.582 37.8402 238.86 43.825 237.759 49.7565C236.658 55.6761 233.337 60.8143 228.383 64.224C222.416 68.3323 215.052 69.3149 208.191 66.9175L207.001 66.4972L202.022 80.7694L203.212 81.1838C214.495 85.1203 227.11 83.4451 236.948 76.673C254.05 64.9107 258.401 41.4275 246.639 24.3198C240.938 16.0323 232.355 10.4679 222.475 8.63279C220.184 8.20657 217.852 7.98755 215.549 7.98755C207.96 7.98755 200.614 10.2903 194.297 14.6294C184.465 21.3896 178.368 32.554 178.001 44.5057L177.989 44.8076Z" fill="white"/>
<path d="M460.195 -4.91707L448.587 -9.10224C446.385 -3.65618 441.88 0.321804 436.197 1.80763C431.449 3.05667 426.495 2.37592 422.262 -0.104404C418.018 -2.57881 414.999 -6.56273 413.756 -11.3162C412.518 -16.0578 413.193 -21.0066 415.68 -25.2569C418.16 -29.4954 422.138 -32.5203 426.885 -33.7693C432.604 -35.267 438.529 -33.9884 443.135 -30.2531L443.934 -29.6019L451.706 -39.1799L450.907 -39.8251C443.336 -45.9697 433.19 -48.1718 423.76 -45.6974C407.374 -41.3997 397.536 -24.5762 401.834 -8.19062C403.917 -0.252399 408.967 6.39534 416.047 10.5391C417.686 11.504 419.421 12.315 421.185 12.9543C427.01 15.0558 433.29 15.3222 439.334 13.7357C448.753 11.2672 456.525 4.38267 460.112 -4.6862L460.195 -4.91707Z" fill="white"/>
<path d="M362.971 -4.0115L367.387 -2.38952C368.24 -4.46139 369.962 -5.96497 372.135 -6.5155C373.946 -6.97723 375.835 -6.71085 377.439 -5.75779C379.049 -4.80473 380.191 -3.28338 380.653 -1.46606C381.115 0.345351 380.848 2.2278 379.889 3.83794C378.936 5.44808 377.415 6.59056 375.604 7.05822C373.419 7.61466 371.164 7.11741 369.424 5.67894L369.122 5.43032L366.138 9.06497L366.44 9.31359C369.311 11.6696 373.171 12.5339 376.77 11.6104C383.021 10.0121 386.81 3.61891 385.205 -2.63222C384.43 -5.66307 382.524 -8.20851 379.83 -9.80089C379.209 -10.1738 378.552 -10.4876 377.877 -10.7303C375.663 -11.5413 373.271 -11.6597 370.963 -11.0677C367.369 -10.1502 364.392 -7.5396 363.007 -4.09437L362.971 -4.0115Z" fill="white"/>
<path d="M231.674 118.211L232.863 128.6L226.89 121.07L224.41 123.036L230.401 130.595C231.354 131.803 232.893 132.241 234.225 131.69C235.486 131.169 236.196 129.92 236.036 128.511L234.817 117.862C234.805 117.779 234.817 117.738 234.823 117.72C234.894 117.69 235.071 117.708 235.267 117.957L241.624 125.978L244.105 124.012L237.747 115.991C236.711 114.683 235.048 114.204 233.615 114.796C232.266 115.346 231.502 116.69 231.674 118.211Z" fill="white"/>
<path d="M432.941 46.9387L422.546 45.7903L431.212 41.6406L429.845 38.7874L421.149 42.9548C419.764 43.6178 418.988 45.0207 419.231 46.4414C419.456 47.7852 420.516 48.756 421.93 48.9158L432.586 50.0938C432.669 50.1057 432.71 50.1175 432.722 50.1293C432.734 50.2004 432.681 50.378 432.396 50.5141L423.162 54.9361L424.529 57.7894L433.764 53.3674C435.267 52.6452 436.102 51.1357 435.848 49.6025C435.605 48.1522 434.462 47.1103 432.941 46.9387Z" fill="white"/>
<path d="M171.815 128.446L172.324 120.277C168.446 119.886 165.078 117.755 163.077 114.417C161.402 111.628 160.917 108.343 161.71 105.188C162.497 102.027 164.474 99.363 167.268 97.6877C170.056 96.0184 173.336 95.527 176.503 96.3262C179.664 97.1194 182.328 99.0906 184.003 101.879C186.022 105.241 186.306 109.255 184.779 112.877L184.512 113.505L192.054 116.678L192.314 116.05C194.824 110.089 194.339 103.217 191.012 97.6699C185.234 88.0328 172.691 84.8954 163.054 90.6729C158.383 93.4729 155.086 97.9245 153.766 103.199C153.458 104.424 153.262 105.679 153.186 106.916C152.931 111.019 153.925 115.062 156.057 118.62C159.377 124.16 165.202 127.83 171.649 128.428L171.815 128.446Z" fill="white"/>
</g>
</g>
<defs>
<linearGradient id="paint0_linear_101_874" x1="2.55292e-06" y1="68.9999" x2="891" y2="66.9999" gradientUnits="userSpaceOnUse">
<stop stop-color="#94D357"/>
<stop offset="1" stop-color="#007EFF"/>
</linearGradient>
<clipPath id="clip0_101_874">
<rect width="891" height="120" fill="white"/>
</clipPath>
</defs>
</svg>
