<svg width="26" height="26" viewBox="0 0 26 26" fill="none" xmlns="http://www.w3.org/2000/svg">
<path d="M13 0C5.8175 0 0 5.8175 0 13C0 20.1825 5.8175 26 13 26C20.1825 26 26 20.1825 26 13C26 5.8175 20.1825 0 13 0ZM24.2233 12.0683C24.3642 13.5525 23.5733 16.6183 16.6508 17.3767C14.1808 17.6475 11.4942 17.3008 8.85083 16.4233C9.12167 15.21 9.54417 13.9642 10.1183 12.7942C10.2917 12.4367 10.4758 12.1008 10.6708 11.7542C12.3392 11.9817 13.9317 12.1117 15.405 12.1117C16.7375 12.1117 17.9942 12.0142 19.0992 11.8192C21.255 11.4508 22.8583 10.7358 23.7683 9.72833C24.0067 10.4758 24.1583 11.2558 24.2233 12.0683ZM22.3275 6.695C22.8258 7.5725 22.5225 8.03833 22.4142 8.21167C21.4825 9.66333 17.3117 10.66 11.1258 9.83667C11.7975 8.85083 12.5342 7.95167 13.2925 7.16083C14.7983 5.61167 16.3258 4.60417 17.7125 4.26833C18.8175 3.9975 19.8033 4.16 20.6375 4.745C21.2767 5.31917 21.84 5.98 22.3275 6.695ZM13.4875 1.76583C15.4592 1.84167 17.3008 2.42667 18.8933 3.40167C18.46 3.39083 18.0158 3.43417 17.55 3.55333C16.0333 3.9325 14.3867 5.005 12.7942 6.64083C12.6967 6.73833 12.5992 6.83583 12.5125 6.93333C11.4292 5.50333 11.5158 3.9325 11.9492 2.97917C12.2958 2.22083 12.8917 1.755 13.4875 1.76583ZM1.755 13C1.755 12.8592 1.755 12.7183 1.76583 12.5883C1.82 12.9133 1.885 13.2492 1.97167 13.5742C2.71917 16.445 4.68 18.9475 6.51083 20.3017C6.63 21.4175 6.94417 22.1975 7.32333 22.7067C3.9975 20.7458 1.755 17.1275 1.755 13ZM6.70583 16.6075C6.5325 17.6475 6.45667 18.5575 6.4675 19.3375C4.89667 18.005 3.32583 15.8275 2.68667 13.3792C2.10167 11.1692 2.34 9.08917 3.39083 7.17167C3.98667 6.19667 4.72333 5.31917 5.56833 4.56083C5.24333 5.2325 5.04833 5.98 4.98333 6.80333C4.79917 9.24083 5.85 11.83 7.6375 13.4983C7.20417 14.5492 6.87917 15.5892 6.70583 16.6075ZM7.95167 12.7833C6.435 11.2667 5.5575 8.99167 5.72 6.8575C5.85 5.05917 6.71667 3.64 8.13583 2.86C9.28417 2.29667 10.5517 1.93917 11.8733 1.79833C11.6458 2.03667 11.4508 2.32917 11.2883 2.67583C10.9525 3.40167 10.8442 4.2575 10.9525 5.09167C11.0717 5.9475 11.44 6.76 12.0142 7.475C11.4075 8.19 10.8333 8.95917 10.3025 9.77167C10.0533 9.73917 9.815 9.70667 9.62 9.67417C9.15417 10.4 8.73167 11.1475 8.3525 11.9167C8.21167 12.2092 8.07083 12.5017 7.95167 12.7833ZM13.1842 24.245C10.66 24.1583 9.20833 23.075 8.69917 21.2117C8.49333 20.4533 8.43917 19.4458 8.53667 18.3408C10.725 19.0342 12.9025 19.3808 14.9825 19.3808C15.6217 19.3808 16.25 19.3483 16.8675 19.2833C17.8425 19.175 18.7525 19.0233 19.5758 18.8175C21.1358 18.4383 22.4358 17.8858 23.465 17.1708C21.8075 21.2658 17.8425 24.1692 13.1842 24.245Z" fill="#8F8F8F"/>
</svg>
