<svg width="27" height="27" viewBox="0 0 27 27" fill="none" xmlns="http://www.w3.org/2000/svg">
<path d="M13.0379 4.27515C8.20974 4.27515 4.2749 8.20999 4.2749 13.0381C4.2749 13.6231 4.75346 14.1016 5.33837 14.1016C5.92328 14.1016 6.40184 13.6231 6.40184 13.0381C6.40184 9.37981 9.37956 6.40209 13.0379 6.40209C13.6228 6.40209 14.1014 5.92353 14.1014 5.33862C14.1014 4.75371 13.6334 4.27515 13.0379 4.27515Z" fill="#8F8F8F"/>
<path d="M26.689 25.1815L22.9688 21.4608C24.9041 19.185 26.0738 16.2498 26.0738 13.0382C26.0738 5.84909 20.2253 0 13.0369 0C5.84853 0 0 5.84909 0 13.0382C0 20.2272 5.84853 26.0763 13.0369 26.0763C16.2483 26.0763 19.1832 24.9065 21.4588 22.971L25.179 26.6916C25.3917 26.9043 25.6575 27 25.934 27C26.2104 27 26.4763 26.8937 26.689 26.6916C27.1037 26.2768 27.1037 25.5962 26.689 25.1815ZM2.12674 13.0382C2.12674 7.01891 7.02887 2.12694 13.0369 2.12694C19.0449 2.12694 23.9471 7.01891 23.9471 13.0382C23.9471 19.0574 19.0556 23.9494 13.0369 23.9494C7.01823 23.9494 2.12674 19.0574 2.12674 13.0382Z" fill="#8F8F8F"/>
</svg>
