<svg width="25" height="26" viewBox="0 0 25 26" fill="none" xmlns="http://www.w3.org/2000/svg">
<path d="M19.11 12.46H16.82C16.6 12.46 16.39 12.53 16.22 12.66L12.5 15.47L8.78 12.66C8.61 12.53 8.4 12.46 8.18 12.46H5.89C2.64 12.46 0 15.07 0 18.28V25C0 25.55 0.45 26 1 26H24C24.55 26 25 25.55 25 25V18.28C25 15.07 22.36 12.46 19.11 12.46ZM23 24H2V18.28C2 16.18 3.74 14.46 5.89 14.46H7.84L11.9 17.52C12.26 17.79 12.75 17.79 13.11 17.52L17.17 14.46H19.12C21.26 14.46 23.01 16.17 23.01 18.28V24H23Z" fill="#8F8F8F"/>
<path d="M12.3101 12.29C15.7401 12.29 18.5301 9.53 18.5301 6.15C18.5301 2.77 15.7401 0 12.3101 0C8.88009 0 6.09009 2.76 6.09009 6.14C6.09009 9.52 8.88009 12.29 12.3101 12.29ZM12.3101 2C14.6401 2 16.5301 3.86 16.5301 6.14C16.5301 8.42 14.6401 10.28 12.3101 10.28C9.98009 10.28 8.09009 8.42 8.09009 6.14C8.09009 3.86 9.98009 2 12.3101 2Z" fill="#8F8F8F"/>
</svg>
