<svg width="29" height="26" viewBox="0 0 29 26" fill="none" xmlns="http://www.w3.org/2000/svg">
<path d="M10.3 19.45C8.49002 19.45 7.02002 20.92 7.02002 22.73C7.02002 24.54 8.49002 26 10.3 26C12.11 26 13.58 24.53 13.58 22.72C13.58 20.91 12.1 19.45 10.3 19.45ZM10.3 24C9.60002 24 9.02002 23.43 9.02002 22.72C9.02002 22.01 9.59002 21.44 10.3 21.44C11 21.44 11.58 22.01 11.58 22.72C11.58 23.43 11 24 10.3 24Z" fill="#8F8F8F"/>
<path d="M22.8501 19.45C21.0401 19.45 19.5701 20.92 19.5701 22.73C19.5701 24.54 21.0501 26 22.8501 26C24.6601 26 26.1301 24.53 26.1301 22.72C26.1301 20.91 24.6601 19.45 22.8501 19.45ZM22.8501 24C22.1501 24 21.5701 23.43 21.5701 22.72C21.5701 22.01 22.1401 21.44 22.8501 21.44C23.5501 21.44 24.1301 22.01 24.1301 22.72C24.1301 23.43 23.5601 24 22.8501 24Z" fill="#8F8F8F"/>
<path d="M27.99 5.73C27.8 5.49 27.51 5.35 27.2 5.35H7.91L6.59 0.73C6.47 0.3 6.07 0 5.63 0H1C0.45 0 0 0.45 0 1C0 1.55 0.45 2 1 2H4.87L9.4 17.9C9.52 18.34 9.92 18.63 10.36 18.63C10.42 18.63 10.47 18.63 10.53 18.62L25.28 16.07C25.67 16 25.99 15.71 26.08 15.32L28.17 6.6C28.25 6.29 28.18 5.97 27.99 5.73ZM24.29 14.2L11.08 16.49L8.48 7.36H25.94L24.29 14.2Z" fill="#8F8F8F"/>
</svg>
