<svg width="22" height="21" viewBox="0 0 22 21" fill="none" xmlns="http://www.w3.org/2000/svg">
<path d="M7.83034 15.4031C6.45433 15.4031 5.33679 16.5207 5.33679 17.8967C5.33679 19.2727 6.45433 20.3826 7.83034 20.3826C9.20636 20.3826 10.3239 19.2651 10.3239 17.8891C10.3239 16.513 9.19876 15.4031 7.83034 15.4031ZM7.83034 18.8622C7.29818 18.8622 6.85725 18.4288 6.85725 17.8891C6.85725 17.3493 7.29058 16.916 7.83034 16.916C8.3625 16.916 8.80344 17.3493 8.80344 17.8891C8.80344 18.4288 8.3625 18.8622 7.83034 18.8622Z" fill="#8F8F8F"/>
<path d="M17.3712 15.4031C15.9952 15.4031 14.8777 16.5207 14.8777 17.8967C14.8777 19.2727 16.0028 20.3826 17.3712 20.3826C18.7473 20.3826 19.8648 19.2651 19.8648 17.8891C19.8648 16.513 18.7473 15.4031 17.3712 15.4031ZM17.3712 18.8622C16.8391 18.8622 16.3981 18.4288 16.3981 17.8891C16.3981 17.3493 16.8315 16.916 17.3712 16.916C17.9034 16.916 18.3443 17.3493 18.3443 17.8891C18.3443 18.4288 17.911 18.8622 17.3712 18.8622Z" fill="#8F8F8F"/>
<path d="M21.2788 4.9733C21.1344 4.79085 20.9139 4.68441 20.6782 4.68441H6.01341L5.00991 1.17215C4.91868 0.845256 4.61459 0.617188 4.28009 0.617188H0.760229C0.342103 0.617188 0 0.959291 0 1.37742C0 1.79554 0.342103 2.13765 0.760229 2.13765H3.70232L7.14615 14.2253C7.23738 14.5598 7.54147 14.7803 7.87597 14.7803C7.92159 14.7803 7.9596 14.7803 8.00521 14.7727L19.2186 12.8341C19.5151 12.7809 19.7584 12.5604 19.8268 12.2639L21.4157 5.6347C21.4765 5.39903 21.4233 5.15576 21.2788 4.9733ZM18.466 11.4124L8.42334 13.1534L6.44674 6.21247H19.7203L18.466 11.4124Z" fill="#8F8F8F"/>
</svg>
