<svg width="18" height="18" viewBox="0 0 18 18" fill="none" xmlns="http://www.w3.org/2000/svg">
<path fill-rule="evenodd" clip-rule="evenodd" d="M6.90048 8.90133L0.448751 15.3531C-0.127312 15.9291 -0.148438 16.8506 0.401805 17.4009C0.952049 17.9511 1.87357 17.93 2.44963 17.3539L8.90136 10.9022L15.3531 17.3539C15.9291 17.93 16.8506 17.9511 17.4009 17.4009C17.9511 16.8506 17.93 15.9291 17.3539 15.353L10.9022 8.90133L17.354 2.44962C17.93 1.87355 17.9512 0.952029 17.4009 0.401786C16.8507 -0.148457 15.9344 -0.132567 15.3583 0.443496L8.90136 6.90045L2.44962 0.448703C1.87355 -0.127361 0.952029 -0.148487 0.401786 0.401756C-0.148457 0.951999 -0.132567 1.86829 0.443496 2.44435L6.90048 8.90133Z" fill="#ABABAB"/>
</svg>
