<svg width="41" height="35" viewBox="0 0 41 35" fill="none" xmlns="http://www.w3.org/2000/svg">
<g clip-path="url(#clip0_122_12361)">
<path d="M20.07 5.42029C20.9909 3.76526 22.3404 2.38868 23.9767 1.435C25.6131 0.481331 27.4761 -0.0142414 29.37 0.000311527C32.2175 0.149394 34.905 1.36292 36.8998 3.40034C38.8947 5.43775 40.0511 8.15032 40.14 11.0003C40.14 17.1703 36.53 24.7303 20.5 34.4303C20.3713 34.5123 20.2226 34.5573 20.07 34.5603C19.9144 34.5571 19.7624 34.5122 19.63 34.4303C3.63 24.7303 0 17.1703 0 11.0003C0.0888889 8.15032 1.24536 5.43775 3.24017 3.40034C5.23499 1.36292 7.92254 0.149394 10.77 0.000311527C12.6637 -0.0131762 14.5262 0.482845 16.1624 1.43641C17.7986 2.38997 19.1483 3.76597 20.07 5.42029Z" fill="#007EFF"/>
</g>
<defs>
<clipPath id="clip0_122_12361">
<rect width="40.14" height="34.56" fill="white"/>
</clipPath>
</defs>
</svg>
