<svg width="48" height="49" viewBox="0 0 48 49" fill="none" xmlns="http://www.w3.org/2000/svg">
<g clip-path="url(#clip0_122_12304)">
<path d="M0.400024 26.8203L21.72 48.7703L12.84 26.8203H0.400024Z" fill="#007EFF"/>
<path d="M15 26.8203L23.56 48.0003L32.13 26.8203H15Z" fill="#007EFF"/>
<path d="M32.1 24.8198L27.41 13.7598H19.72L15.03 24.8198H32.1Z" fill="#007EFF"/>
<path d="M25.42 48.7403L46.53 26.8203H34.29L25.42 48.7403Z" fill="#007EFF"/>
<path d="M17.54 13.7598H6.37L0 24.8198H12.85L17.54 13.7598Z" fill="#95D357"/>
<path d="M29.58 13.7598L34.27 24.8198H46.92L40.55 13.7598H29.58Z" fill="#007EFF"/>
<path d="M24.5601 1C24.5601 0.447715 24.1123 0 23.5601 0C23.0078 0 22.5601 0.447715 22.5601 1V7.4C22.5601 7.95228 23.0078 8.4 23.5601 8.4C24.1123 8.4 24.5601 7.95228 24.5601 7.4V1Z" fill="#95D357"/>
<path d="M35.5498 2.72378L31.5565 6.98516C31.1788 7.38815 31.1994 8.02098 31.6024 8.39863C32.0054 8.77627 32.6382 8.75572 33.0158 8.35273L37.0091 4.09134C37.3868 3.68835 37.3662 3.05552 36.9632 2.67788C36.5603 2.30023 35.9274 2.32078 35.5498 2.72378Z" fill="#95D357"/>
<path d="M11.4828 2.7266C11.105 2.32374 10.4722 2.30341 10.0693 2.6812C9.66643 3.05898 9.6461 3.69182 10.0239 4.09468L14.0186 8.35462C14.3964 8.75748 15.0293 8.77781 15.4321 8.40003C15.835 8.02225 15.8553 7.38941 15.4775 6.98655L11.4828 2.7266Z" fill="#95D357"/>
</g>
<defs>
<clipPath id="clip0_122_12304">
<rect width="47.5" height="48.77" fill="white"/>
</clipPath>
</defs>
</svg>
