<svg width="56" height="43" viewBox="0 0 56 43" fill="none" xmlns="http://www.w3.org/2000/svg">
<g clip-path="url(#clip0_122_12335)">
<path d="M36.1198 27.5604C35.4298 27.5104 34.7398 27.3704 34.0598 27.1604C31.6798 26.4204 29.7198 24.7904 28.5598 22.5804C27.3998 20.3704 27.1698 17.8404 27.9098 15.4504C28.6498 13.0604 30.2798 11.1104 32.4898 9.95036C37.0598 7.55036 42.7198 9.32036 45.1198 13.8804C47.5198 18.4404 45.7498 24.1104 41.1898 26.5004C39.6098 27.3404 37.8598 27.6904 36.1198 27.5604Z" fill="#94D357"/>
<path d="M31.2899 8.80048C30.9599 8.77048 30.6499 8.58048 30.4799 8.27048L27.5699 2.72048C27.3099 2.23048 27.4999 1.63048 27.9899 1.37048C28.4799 1.11048 29.0799 1.30048 29.3399 1.79048L32.2499 7.34048C32.5099 7.83048 32.3199 8.43048 31.8299 8.69048C31.6599 8.78048 31.4699 8.81048 31.2899 8.80048Z" fill="#94D357"/>
<path d="M45.1598 35.2106C44.8298 35.1806 44.5198 34.9906 44.3498 34.6806L41.4398 29.1306C41.1798 28.6406 41.3698 28.0406 41.8598 27.7806C42.3498 27.5206 42.9498 27.7106 43.2098 28.2006L46.1198 33.7506C46.3798 34.2406 46.1898 34.8406 45.6998 35.1006C45.5298 35.1906 45.3398 35.2206 45.1598 35.2106Z" fill="#94D357"/>
<path d="M20.7899 27.6195C20.4599 27.5895 20.1499 27.3995 19.9799 27.0895C19.7199 26.5995 19.9099 25.9995 20.3999 25.7395L25.9499 22.8295C26.4399 22.5695 27.0399 22.7595 27.2999 23.2495C27.5599 23.7395 27.3699 24.3395 26.8799 24.5995L21.3299 27.5095C21.1599 27.5995 20.9699 27.6295 20.7899 27.6195Z" fill="#94D357"/>
<path d="M47.1998 13.7503C46.8698 13.7203 46.5598 13.5303 46.3898 13.2203C46.1298 12.7303 46.3198 12.1303 46.8098 11.8703L52.3598 8.96032C52.8498 8.70032 53.4498 8.89032 53.7098 9.38032C53.9698 9.87032 53.7798 10.4703 53.2898 10.7303L47.7398 13.6403C47.5698 13.7303 47.3798 13.7703 47.1998 13.7503Z" fill="#94D357"/>
<path d="M31.4 36.4605C31.33 36.4505 31.25 36.4405 31.18 36.4205C30.65 36.2605 30.36 35.7005 30.52 35.1705L32.38 29.1805C32.54 28.6505 33.11 28.3605 33.63 28.5205C34.16 28.6805 34.45 29.2405 34.29 29.7705L32.43 35.7605C32.29 36.2105 31.86 36.5005 31.4 36.4605Z" fill="#94D357"/>
<path d="M40.2699 7.99002C40.1999 7.98002 40.1199 7.97002 40.0499 7.95002C39.5199 7.79002 39.2299 7.23002 39.3899 6.70002L41.2599 0.70002C41.4199 0.170021 41.9899 -0.11998 42.5099 0.0400205C43.0399 0.20002 43.3299 0.76002 43.1699 1.29002L41.2999 7.29002C41.1599 7.75002 40.7199 8.03002 40.2699 7.99002Z" fill="#94D357"/>
<path d="M25.5199 15.7309C25.4499 15.7209 25.3699 15.7109 25.2999 15.6909L19.3099 13.8309C18.7799 13.6709 18.4899 13.1109 18.6499 12.5809C18.8099 12.0509 19.3699 11.7609 19.8999 11.9209L25.8899 13.7809C26.4199 13.9409 26.7099 14.5009 26.5499 15.0309C26.4099 15.4809 25.9799 15.7609 25.5199 15.7309Z" fill="#94D357"/>
<path d="M53.9999 24.5903C53.9299 24.5803 53.8499 24.5703 53.7799 24.5503L47.7899 22.6903C47.2599 22.5303 46.9699 21.9703 47.1299 21.4403C47.2899 20.9103 47.8499 20.6203 48.3799 20.7803L54.3699 22.6403C54.8999 22.8003 55.1899 23.3603 55.0299 23.8903C54.8899 24.3503 54.4499 24.6303 53.9999 24.5903Z" fill="#94D357"/>
<path d="M31.88 25.0694C30.04 20.2694 25.39 16.8594 19.94 16.8594C13.57 16.8594 8.3 21.5094 7.32 27.5994C3.27 27.6594 0 30.9594 0 35.0194C0 39.1194 3.32 42.4394 7.42 42.4394H31.49C36.29 42.4394 40.19 38.5494 40.19 33.7394C40.19 29.0794 36.5 25.2794 31.88 25.0694Z" fill="#007EFF"/>
</g>
<defs>
<clipPath id="clip0_122_12335">
<rect width="55.08" height="42.44" fill="white"/>
</clipPath>
</defs>
</svg>
