<svg width="50" height="41" viewBox="0 0 50 41" fill="none" xmlns="http://www.w3.org/2000/svg">
<g clip-path="url(#clip0_122_12319)">
<path d="M19.55 8.9C15.11 2.4 8.33002 0 8.33002 0C8.33002 0 1.17002 5.78 0.130021 15.3C-0.669979 22.67 1.81002 31.89 11.74 35.02C7.11002 23.38 12.45 14.31 19.55 8.9Z" fill="#94D357"/>
<path d="M49.23 6.93935C49.23 6.93935 38.19 2.69935 26.96 7.66934C17.79 11.7193 8.66001 21.1093 13.01 35.2993L40.59 14.1393L14.68 37.3893C27.91 44.3293 38.84 37.0293 44.49 28.7193C51.41 18.5593 49.23 6.93935 49.23 6.93935Z" fill="#007EFF"/>
</g>
<defs>
<clipPath id="clip0_122_12319">
<rect width="49.55" height="40.16" fill="white"/>
</clipPath>
</defs>
</svg>
