<svg width="48" height="48" viewBox="0 0 48 48" fill="none" xmlns="http://www.w3.org/2000/svg">
<g clip-path="url(#clip0_122_12365)">
<path d="M17.8301 33.2187C17.5901 33.2187 17.3501 33.1387 17.1601 32.9587C16.7501 32.5887 16.7201 31.9587 17.0901 31.5487C17.1901 31.4387 19.5101 28.6987 16.9801 24.4987C13.6601 18.9987 16.9501 15.2387 17.0901 15.0787C17.4601 14.6687 18.0901 14.6387 18.5001 15.0087C18.9101 15.3787 18.9401 16.0087 18.5801 16.4187C18.4701 16.5387 16.1601 19.2887 18.6901 23.4687C22.0101 28.9687 18.7201 32.7287 18.5801 32.8887C18.3801 33.1087 18.1001 33.2187 17.8301 33.2187Z" fill="#94D357"/>
<path d="M23.98 33.2187C23.74 33.2187 23.5 33.1387 23.31 32.9587C22.9 32.5887 22.87 31.9587 23.24 31.5487C23.34 31.4387 25.66 28.6987 23.13 24.4987C19.81 18.9987 23.1 15.2387 23.24 15.0787C23.61 14.6687 24.24 14.6387 24.65 15.0087C25.06 15.3787 25.09 16.0087 24.73 16.4187C24.62 16.5387 22.31 19.2887 24.84 23.4687C28.16 28.9687 24.87 32.7287 24.73 32.8887C24.53 33.1087 24.26 33.2187 23.98 33.2187Z" fill="#94D357"/>
<path d="M30.1302 33.2187C29.8902 33.2187 29.6501 33.1387 29.4601 32.9587C29.0501 32.5887 29.0202 31.9587 29.3902 31.5487C29.4902 31.4387 31.8102 28.6987 29.2802 24.4987C25.9602 18.9987 29.2502 15.2387 29.3902 15.0787C29.7602 14.6687 30.3902 14.6387 30.8002 15.0087C31.2102 15.3787 31.2401 16.0087 30.8802 16.4187C30.7702 16.5487 28.4602 19.2887 30.9902 23.4687C34.3102 28.9687 31.0202 32.7287 30.8802 32.8887C30.6802 33.1087 30.4102 33.2187 30.1302 33.2187Z" fill="#94D357"/>
<path d="M28.5701 0.449184C15.5701 -2.09082 2.98007 6.39918 0.450071 19.3992C-2.07993 32.3992 6.40007 44.9892 19.4001 47.5192C32.4001 50.0492 44.9901 41.5692 47.5201 28.5692C50.0501 15.5692 41.5701 2.97918 28.5701 0.449184ZM5.61007 20.3992C7.59007 10.2592 17.4201 3.62918 27.5601 5.60918C32.0701 6.48918 35.8701 8.91918 38.5501 12.2392L7.63007 33.0692C5.56007 29.3492 4.73007 24.9092 5.61007 20.3992ZM20.4001 42.3492C15.8201 41.4592 11.9701 38.9592 9.30007 35.5592L40.2301 14.7092C42.3701 18.4692 43.2401 22.9692 42.3501 27.5492C40.3801 37.7092 30.5501 44.3292 20.4001 42.3492Z" fill="#007EFF"/>
</g>
<defs>
<clipPath id="clip0_122_12365">
<rect width="47.97" height="47.97" fill="white"/>
</clipPath>
</defs>
</svg>
