<svg width="44" height="50" viewBox="0 0 44 50" fill="none" xmlns="http://www.w3.org/2000/svg">
<g clip-path="url(#clip0_122_12330)">
<path d="M21.71 25.3605L20.77 24.8505L0 13.7305V34.6405C0 36.8405 1.21 38.8605 3.15 39.9005L18.9 48.3405C20.66 49.2805 22.78 49.2805 24.54 48.3405L40.29 39.9005C42.23 38.8605 43.44 36.8405 43.44 34.6405V13.7305L22.66 24.8605L21.71 25.3605Z" fill="#007EFF"/>
<path d="M41.3201 10.33L22.3201 0.15C21.9401 -0.05 21.4901 -0.05 21.1101 0.15L2.11006 10.33C1.21006 10.81 1.21006 12.11 2.11006 12.59L21.1101 22.77C21.4901 22.97 21.9401 22.97 22.3201 22.77L41.3201 12.59C42.2201 12.11 42.2201 10.81 41.3201 10.33Z" fill="#94D357"/>
</g>
<defs>
<clipPath id="clip0_122_12330">
<rect width="43.43" height="49.05" fill="white"/>
</clipPath>
</defs>
</svg>
