<svg width="46" height="53" viewBox="0 0 46 53" fill="none" xmlns="http://www.w3.org/2000/svg">
<g clip-path="url(#clip0_122_12315)">
<path d="M45.23 16.5702C45.2303 16.2329 45.1625 15.899 45.0308 15.5884C44.899 15.2779 44.7061 14.9971 44.4634 14.7628C44.2207 14.5285 43.9333 14.3455 43.6183 14.2248C43.3033 14.1041 42.9672 14.0481 42.6301 14.0602C41.9634 14.0963 41.3367 14.3895 40.8817 14.8781C40.4266 15.3667 40.1787 16.0126 40.1901 16.6802V25.5702C40.1916 26.5747 39.8004 27.5401 39.1 28.2602L32.8701 34.6802C32.7606 34.7974 32.6282 34.8908 32.4811 34.9547C32.3341 35.0186 32.1754 35.0515 32.0151 35.0515C31.8547 35.0515 31.6961 35.0186 31.549 34.9547C31.4019 34.8908 31.2695 34.7974 31.16 34.6802C30.959 34.4623 30.8475 34.1767 30.8475 33.8802C30.8475 33.5837 30.959 33.2981 31.16 33.0802L36.6 27.3402C37.0566 26.8517 37.3022 26.203 37.2834 25.5346C37.2647 24.8663 36.9832 24.2323 36.5001 23.7702C36.0145 23.3118 35.3668 23.0648 34.6993 23.0836C34.0318 23.1023 33.3991 23.3853 32.9401 23.8702L25.5201 31.7102C24.3477 32.9498 23.6685 34.575 23.61 36.2802L23.0601 52.4102C25.0011 52.3175 26.9227 51.9815 28.78 51.4102C32.15 50.4102 33.1801 49.2002 33.1801 49.2002L32.86 46.6102C32.8353 46.2712 32.8832 45.9309 33.0005 45.6118C33.1177 45.2928 33.3017 45.0025 33.54 44.7602L43.7501 34.2302C44.6929 33.2611 45.2203 31.9623 45.22 30.6102L45.23 16.5702Z" fill="#007EFF"/>
<path d="M3.23945e-07 16.5699C-0.000170618 16.2334 0.0673132 15.9003 0.198426 15.5904C0.329538 15.2806 0.52163 15.0003 0.763245 14.7661C1.00486 14.532 1.29104 14.3488 1.60486 14.2275C1.91868 14.1061 2.25374 14.0491 2.59003 14.0599C3.2576 14.096 3.88535 14.3888 4.34198 14.8771C4.79861 15.3654 5.0487 16.0114 5.03998 16.6799V25.5699C5.03847 26.5744 5.42965 27.5398 6.13001 28.2599L12.35 34.6799C12.4603 34.7973 12.5936 34.8909 12.7415 34.9549C12.8894 35.0189 13.0489 35.0519 13.21 35.0519C13.3712 35.0519 13.5306 35.0189 13.6785 34.9549C13.8264 34.8909 13.9597 34.7973 14.07 34.6799C14.2732 34.463 14.3862 34.177 14.3862 33.8799C14.3862 33.5827 14.2732 33.2967 14.07 33.0798L8.64001 27.3398C8.18101 26.8526 7.93377 26.2033 7.95252 25.5342C7.97126 24.865 8.25443 24.2306 8.73999 23.7698C9.22555 23.3114 9.87322 23.0645 10.5407 23.0832C11.2082 23.102 11.8409 23.3849 12.3 23.8699L19.71 31.7098C20.886 32.948 21.5688 34.5733 21.63 36.2798L22.18 52.4098C20.239 52.3172 18.3173 51.9812 16.46 51.4098C13.09 50.4098 12.06 49.1999 12.06 49.1999L12.38 46.6099C12.4022 46.2711 12.3531 45.9314 12.236 45.6128C12.1188 45.2941 11.9363 45.0036 11.7 44.7599L1.48999 34.2299C0.543521 33.2631 0.0155066 31.9628 0.0200199 30.6099L3.23945e-07 16.5699Z" fill="#007EFF"/>
<path d="M19.87 22.0504C19.87 22.0504 15.4801 17.8504 20.1401 13.6504C20.1401 13.6504 19.8401 20.2404 26.4501 21.8904C30.3201 21.2004 35.45 14.9604 29.55 6.7204C29.55 6.7204 29.32 9.6204 25.24 11.7204C26.3702 10.0054 26.803 7.9237 26.4501 5.90039C26.2276 4.57129 25.6675 3.32164 24.8235 2.27106C23.9796 1.22047 22.88 0.404152 21.6301 -0.0996094C21.6301 -0.0996094 22.8 2.23039 19.87 3.90039C16.41 5.90039 13.22 8.83041 13.03 13.0404C12.86 16.9204 14.62 21.2104 19.87 22.0504Z" fill="#95D357"/>
</g>
<defs>
<clipPath id="clip0_122_12315">
<rect width="45.23" height="52.38" fill="white"/>
</clipPath>
</defs>
</svg>
