<svg width="38" height="49" viewBox="0 0 38 49" fill="none" xmlns="http://www.w3.org/2000/svg">
<g clip-path="url(#clip0_122_12323)">
<path d="M0 14.8379V43.3285C0 46.4552 2.53475 48.999 5.67402 48.999H32.3366C35.4653 48.999 38.0106 46.4552 38.0106 43.3285V14.8379H0Z" fill="#007EFF"/>
<path d="M19.0053 42.4827C19.0902 42.4827 19.1856 42.4509 19.2598 42.4085C28.6458 36.7274 30.767 32.2969 30.767 28.6826C30.767 25.0471 27.458 22.2383 24.4566 22.2383C20.9143 22.2383 19.1856 24.9623 19.0053 25.418C18.825 24.9623 17.0963 22.2383 13.554 22.2383C10.5632 22.2383 7.24365 25.0471 7.24365 28.6826C7.24365 32.2969 9.35418 36.7274 18.7508 42.4085C18.825 42.4615 18.9205 42.4827 19.0053 42.4827Z" fill="white"/>
<path d="M19.0053 11.0231C19.5886 11.0231 20.0658 10.5462 20.0658 9.96323V1.05992C20.0658 0.476963 19.5886 0 19.0053 0C18.422 0 17.9447 0.476963 17.9447 1.05992V9.96323C17.9447 10.5568 18.4114 11.0231 19.0053 11.0231Z" fill="#94D357"/>
<path d="M27.5322 11.0223C27.8186 11.0223 28.0943 10.9057 28.3064 10.6831L34.0017 4.62037C34.4047 4.19641 34.3835 3.51806 33.9486 3.12589C33.5244 2.73372 32.8563 2.75492 32.4532 3.17888L26.758 9.24161C26.355 9.66558 26.3762 10.3439 26.811 10.7361C27.0126 10.9269 27.2777 11.0223 27.5322 11.0223Z" fill="#94D357"/>
<path d="M9.6936 10.6937C9.90571 10.9163 10.1815 11.0329 10.4678 11.0329C10.733 11.0329 10.9875 10.9375 11.189 10.7467C11.6132 10.3439 11.6344 9.67618 11.242 9.25221L5.5468 3.17888C5.14378 2.75492 4.47563 2.73372 4.0514 3.12589C3.62718 3.52866 3.60597 4.19641 3.99837 4.63097L9.6936 10.6937Z" fill="#94D357"/>
</g>
<defs>
<clipPath id="clip0_122_12323">
<rect width="38" height="49" fill="white"/>
</clipPath>
</defs>
</svg>
