<svg width="23" height="21" viewBox="0 0 23 21" fill="none" xmlns="http://www.w3.org/2000/svg">
<path d="M8.51544 20.5428C9.51083 20.5428 10.3178 19.7359 10.3178 18.7405C10.3178 17.7452 9.51083 16.9382 8.51544 16.9382C7.52006 16.9382 6.71313 17.7452 6.71313 18.7405C6.71313 19.7359 7.52006 20.5428 8.51544 20.5428Z" fill="white"/>
<path d="M18.4573 20.5428C19.4527 20.5428 20.2596 19.7359 20.2596 18.7405C20.2596 17.7452 19.4527 16.9382 18.4573 16.9382C17.462 16.9382 16.655 17.7452 16.655 18.7405C16.655 19.7359 17.462 20.5428 18.4573 20.5428Z" fill="white"/>
<path d="M6.0279 5.77829H21.9017L20.2433 12.6829L8.56636 14.7052L4.8179 1.53906H1.15405" stroke="white" stroke-width="2" stroke-miterlimit="10" stroke-linecap="round" stroke-linejoin="round"/>
</svg>
