<svg width="56" height="63" viewBox="0 0 56 63" fill="none" xmlns="http://www.w3.org/2000/svg">
<g clip-path="url(#clip0_101_1024)">
<path d="M27.9936 32.5724L26.7815 31.9173L0 17.6348V44.4916C0 47.3173 1.56021 49.9118 4.06171 51.2476L24.3702 62.088C26.6396 63.2953 29.3732 63.2953 31.6426 62.088L51.9512 51.2476C54.4527 49.9118 56.0129 47.3173 56.0129 44.4916V17.6348L29.2185 31.9302L27.9936 32.5724Z" fill="white"/>
<path d="M53.2791 13.2679L28.7799 0.192661C28.2899 -0.0642202 27.7096 -0.0642202 27.2197 0.192661L2.72046 13.2679C1.55998 13.8844 1.55998 15.5541 2.72046 16.1706L27.2197 29.2459C27.7096 29.5028 28.2899 29.5028 28.7799 29.2459L53.2791 16.1706C54.4395 15.5541 54.4395 13.8844 53.2791 13.2679Z" fill="white"/>
</g>
<defs>
<clipPath id="clip0_101_1024">
<rect width="56" height="63" fill="white"/>
</clipPath>
</defs>
</svg>
