<svg width="37" height="35" viewBox="0 0 37 35" fill="none" xmlns="http://www.w3.org/2000/svg">
<path d="M13.513 25.5162C11.1384 25.5162 9.20984 27.4447 9.20984 29.8194C9.20984 32.194 11.1384 34.1094 13.513 34.1094C15.8876 34.1094 17.8161 32.1808 17.8161 29.8062C17.8161 27.4316 15.8745 25.5162 13.513 25.5162ZM13.513 31.4855C12.5946 31.4855 11.8337 30.7377 11.8337 29.8062C11.8337 28.8748 12.5815 28.127 13.513 28.127C14.4313 28.127 15.1923 28.8748 15.1923 29.8062C15.1923 30.7377 14.4313 31.4855 13.513 31.4855Z" fill="#007EFF"/>
<path d="M29.9791 25.5162C27.6045 25.5162 25.6759 27.4447 25.6759 29.8194C25.6759 32.194 27.6176 34.1094 29.9791 34.1094C32.3537 34.1094 34.2822 32.1808 34.2822 29.8062C34.2822 27.4316 32.3537 25.5162 29.9791 25.5162ZM29.9791 31.4855C29.0607 31.4855 28.2998 30.7377 28.2998 29.8062C28.2998 28.8748 29.0476 28.127 29.9791 28.127C30.8974 28.127 31.6583 28.8748 31.6583 29.8062C31.6583 30.7377 30.9105 31.4855 29.9791 31.4855Z" fill="#007EFF"/>
<path d="M36.7217 7.51739C36.4724 7.20253 36.092 7.01886 35.6853 7.01886H10.378L8.64627 0.957713C8.48884 0.393581 7.96406 0 7.38681 0H1.31255C0.590982 0 0.000610352 0.590371 0.000610352 1.31194C0.000610352 2.0335 0.590982 2.62387 1.31255 2.62387H6.38974L12.3328 23.4837C12.4902 24.0609 13.015 24.4414 13.5923 24.4414C13.671 24.4414 13.7366 24.4414 13.8153 24.4283L33.1664 21.0828C33.678 20.991 34.0978 20.6105 34.2159 20.0989L36.9579 8.65878C37.0628 8.25208 36.971 7.83226 36.7217 7.51739ZM31.8675 18.6295L14.5369 21.6338L11.1258 9.65585H34.0322L31.8675 18.6295Z" fill="#007EFF"/>
</svg>
