<svg width="34" height="38" viewBox="0 0 34 38" fill="none" xmlns="http://www.w3.org/2000/svg">
<path d="M3.99994 2.15H29.9999C31.0217 2.15 31.8499 2.97827 31.8499 4V34C31.8499 35.0217 31.0217 35.85 29.9999 35.85H3.99994C2.97821 35.85 2.14994 35.0217 2.14994 34V4C2.14994 2.97827 2.97821 2.15 3.99994 2.15ZM3.99994 0.85C2.26024 0.85 0.849939 2.2603 0.849939 4V34C0.849939 35.7397 2.26024 37.15 3.99994 37.15H29.9999C31.7396 37.15 33.1499 35.7397 33.1499 34V4C33.1499 2.2603 31.7396 0.85 29.9999 0.85H3.99994Z" fill="#007EFF" stroke="#007EFF" stroke-width="0.3"/>
<path d="M28.6 17.4261H14.716C14.3068 17.4261 13.9999 17.1193 13.9999 16.7101C13.9999 16.3009 14.3068 15.994 14.716 15.994H28.6C29.0092 15.994 29.316 16.3009 29.316 16.7101C29.316 17.1193 28.9578 17.4261 28.6 17.4261Z" fill="#007EFF"/>
<path d="M28.6 14.4321H14.716C14.3068 14.4321 13.9999 14.1253 13.9999 13.7161C13.9999 13.3068 14.3068 13 14.716 13H28.6C29.0092 13 29.316 13.3068 29.316 13.7161C29.316 14.1253 28.9578 14.4321 28.6 14.4321Z" fill="#007EFF"/>
<path d="M28.6 11.4321H14.716C14.3068 11.4321 13.9999 11.1253 13.9999 10.7161C13.9999 10.3068 14.3068 10 14.716 10H28.6C29.0092 10 29.316 10.3068 29.316 10.7161C29.316 11.1253 28.9578 11.4321 28.6 11.4321Z" fill="#007EFF"/>
<path d="M28.6 8.4321H14.716C14.3068 8.4321 13.9999 8.12527 13.9999 7.71605C13.9999 7.30683 14.3068 7 14.716 7H28.6C29.0092 7 29.316 7.30683 29.316 7.71605C29.316 8.12527 28.9578 8.4321 28.6 8.4321Z" fill="#007EFF"/>
<rect x="4.99994" y="7" width="7" height="7" fill="#007EFF"/>
</svg>
