<svg width="34" height="38" viewBox="0 0 34 38" fill="none" xmlns="http://www.w3.org/2000/svg">
<path d="M28.5998 11.4261H13.7158C13.3066 11.4261 12.9998 11.1193 12.9998 10.7101C12.9998 10.3008 13.3066 9.99402 13.7158 9.99402H28.5998C29.0091 9.99402 29.3159 10.3008 29.3159 10.7101C29.3159 11.1193 28.9577 11.4261 28.5998 11.4261Z" fill="#007EFF"/>
<path d="M28.5998 21.4261H13.7158C13.3066 21.4261 12.9998 21.1193 12.9998 20.7101C12.9998 20.3008 13.3066 19.994 13.7158 19.994H28.5998C29.0091 19.994 29.3159 20.3008 29.3159 20.7101C29.3159 21.1193 28.9577 21.4261 28.5998 21.4261Z" fill="#007EFF"/>
<path d="M28.5998 31.4261H13.7158C13.3066 31.4261 12.9998 31.1193 12.9998 30.7101C12.9998 30.3008 13.3066 29.994 13.7158 29.994H28.5998C29.0091 29.994 29.3159 30.3008 29.3159 30.7101C29.3159 31.1193 28.9577 31.4261 28.5998 31.4261Z" fill="#007EFF"/>
<path d="M28.5998 8.4321H13.7158C13.3066 8.4321 12.9998 8.12527 12.9998 7.71605C12.9998 7.30683 13.3066 7 13.7158 7H28.5998C29.0091 7 29.3159 7.30683 29.3159 7.71605C29.3159 8.12492 28.9577 8.4321 28.5998 8.4321Z" fill="#007EFF"/>
<path d="M28.5998 18.4321H13.7158C13.3066 18.4321 12.9998 18.1253 12.9998 17.7161C12.9998 17.3068 13.3066 17 13.7158 17H28.5998C29.0091 17 29.3159 17.3068 29.3159 17.7161C29.3159 18.1249 28.9577 18.4321 28.5998 18.4321Z" fill="#007EFF"/>
<path d="M28.5998 28.4321H13.7158C13.3066 28.4321 12.9998 28.1253 12.9998 27.7161C12.9998 27.3068 13.3066 27 13.7158 27H28.5998C29.0091 27 29.3159 27.3068 29.3159 27.7161C29.3159 28.1249 28.9577 28.4321 28.5998 28.4321Z" fill="#007EFF"/>
<path d="M4.84908 11.5652V11.7152H4.99908H10.3324H10.4824V11.5652V10.007C10.4824 9.30374 9.90467 8.73995 9.19878 8.73995H8.66827H8.61799L8.57786 8.77026L7.66575 9.45924L6.75364 8.77026L6.71351 8.73995H6.66323H6.13272C5.42447 8.73995 4.84908 9.30607 4.84908 10.007V11.5652ZM4.84908 21.5652V21.7152H4.99908H10.3324H10.4824V21.5652V20.007C10.4824 19.3037 9.90467 18.74 9.19878 18.74H8.66827H8.61799L8.57786 18.7703L7.66575 19.4592L6.75364 18.7703L6.71351 18.74H6.66323H6.13272C5.42447 18.74 4.84908 19.3061 4.84908 20.007V21.5652ZM4.84908 31.5652V31.7152H4.99908H10.3324H10.4824V31.5652V30.007C10.4824 29.3037 9.90467 28.74 9.19878 28.74H8.66827H8.61799L8.57786 28.7703L7.66575 29.4592L6.75364 28.7703L6.71352 28.74H6.66323H6.13272C5.42447 28.74 4.84908 29.3061 4.84908 30.007V31.5652ZM7.62148 8.53509C8.37065 8.53509 8.98177 7.93609 8.98177 7.19255C8.98177 6.449 8.37065 5.85 7.62148 5.85C6.87231 5.85 6.26119 6.449 6.26119 7.19255C6.26119 7.93609 6.87231 8.53509 7.62148 8.53509ZM7.62148 18.5351C8.37065 18.5351 8.98177 17.9361 8.98177 17.1925C8.98177 16.449 8.37065 15.85 7.62148 15.85C6.87231 15.85 6.26119 16.449 6.26119 17.1925C6.26119 17.9361 6.87231 18.5351 7.62148 18.5351ZM7.62148 28.5351C8.37065 28.5351 8.98177 27.9361 8.98177 27.1925C8.98177 26.449 8.37065 25.85 7.62148 25.85C6.87231 25.85 6.26119 26.449 6.26119 27.1925C6.26119 27.9361 6.87231 28.5351 7.62148 28.5351ZM3.99908 2.15H29.9991C31.0208 2.15 31.8491 2.97827 31.8491 4V34C31.8491 35.0217 31.0208 35.85 29.9991 35.85H3.99908C2.97736 35.85 2.14908 35.0217 2.14908 34V4C2.14908 2.97827 2.97736 2.15 3.99908 2.15ZM3.99908 0.85C2.25939 0.85 0.849084 2.2603 0.849084 4V34C0.849084 35.7397 2.25939 37.15 3.99908 37.15H29.9991C31.7388 37.15 33.1491 35.7397 33.1491 34V4C33.1491 2.2603 31.7388 0.85 29.9991 0.85H3.99908Z" fill="#007EFF" stroke="#007EFF" stroke-width="0.3"/>
</svg>
