<svg width="43" height="34" viewBox="0 0 43 34" fill="none" xmlns="http://www.w3.org/2000/svg">
<path d="M33.2045 7.57983H8.89506V3.54094C8.89506 3.03277 9.28437 2.64387 9.79527 2.64387H39.9567C40.4665 2.64387 40.8514 3.0318 40.8514 3.54105V24.2064C40.8514 24.7159 40.4662 25.1052 39.9567 25.1052H35.8988V10.2661C35.8988 10.0813 35.8789 9.90086 35.8433 9.72693L35.8432 9.72662C35.7347 9.20333 35.4733 8.73385 35.1069 8.3687C34.9846 8.24675 34.8501 8.1378 34.7078 8.04162L34.7077 8.04157C34.2778 7.75125 33.7598 7.57983 33.2045 7.57983ZM5.60744 23.5233L5.60743 23.5233L4.92124 24.4576L4.77144 24.4653C4.77144 24.4654 4.77144 24.4654 4.77144 24.4655C4.79678 24.9529 5.20687 25.3298 5.69488 25.3166H13.5441C13.7853 25.3214 14.0182 25.2295 14.1907 25.0614L14.1909 25.0613C14.3638 24.8925 14.4615 24.6615 14.4615 24.4199C14.4615 24.1783 14.3638 23.9473 14.1909 23.7785L14.1907 23.7783C14.0181 23.6102 13.7849 23.5184 13.5438 23.5231H5.69612C5.66634 23.5217 5.63707 23.5218 5.60744 23.5233ZM5.05593 27.1473L5.0558 27.1474C4.88682 27.3158 4.79198 27.5441 4.79198 27.7824C4.79198 28.021 4.88679 28.2492 5.0558 28.4177L5.05593 28.4178C5.22532 28.5862 5.45438 28.6801 5.69278 28.6801H9.04915C9.28752 28.6801 9.51666 28.5863 9.6858 28.4177C9.85468 28.2493 9.94995 28.0211 9.94995 27.7824C9.94995 27.5439 9.85466 27.3157 9.6858 27.1474C9.51666 26.9788 9.28752 26.8849 9.04915 26.8849H5.69278C5.45438 26.8849 5.22532 26.9788 5.05593 27.1473ZM9.79527 0.850333C8.31495 0.850333 7.0965 2.06416 7.0965 3.54105V7.57994H3.04297C1.56288 7.57994 0.349939 8.78995 0.349939 10.2663V30.9377C0.349939 32.4136 1.56243 33.63 3.04297 33.63L33.2043 33.6297C34.6848 33.6297 35.8988 32.4137 35.8988 30.9373V26.8984H39.9569C41.4378 26.8984 42.6499 25.6823 42.6499 24.2061L42.6496 3.54071C42.6496 2.06435 41.4373 0.85 39.9566 0.85L9.79527 0.850333ZM3.04305 9.37475H33.2044C33.7157 9.37475 34.0992 9.75777 34.0992 10.2662V13.8268H2.14795V10.2662C2.14795 9.75782 2.53177 9.37475 3.04305 9.37475ZM2.14829 15.6203H34.0995V18.176H2.14829V15.6203ZM2.1483 19.9639H34.0995V30.9377C34.0995 31.4473 33.7149 31.8349 33.2048 31.8349H3.0434C2.53328 31.8349 2.14863 31.447 2.14863 30.9377L2.1483 19.9639Z" fill="#007EFF" stroke="#007EFF" stroke-width="0.3"/>
</svg>
