<svg width="39" height="39" viewBox="0 0 39 39" fill="none" xmlns="http://www.w3.org/2000/svg">
<path d="M1.66907 1.65629L1.66908 1.65629C2.13879 1.18662 2.77435 0.850434 3.52252 0.850434L28.3296 0.85C29.0777 0.85 29.7133 1.18614 30.183 1.65586C30.6519 2.12474 31.0021 2.77337 31.0021 3.52251V7.99767H35.4773C36.2255 7.99767 36.861 8.33382 37.3307 8.80353L37.2286 8.90567L37.3307 8.80353C37.7996 9.27241 38.1498 9.92104 38.1498 10.6702V35.4643V35.4775V35.4777C38.1486 36.2253 37.7984 36.8661 37.3304 37.3312C36.8605 37.7987 36.2238 38.15 35.4773 38.15H10.6703H10.6702C9.92049 38.1497 9.27234 37.8021 8.80335 37.3307C8.33361 36.8588 7.99773 36.2103 7.99773 35.4643V31.0023H3.52254H3.52248C2.77276 31.002 2.12456 30.6544 1.6556 30.183C1.18592 29.7108 0.850016 29.0626 0.850016 28.3166V16.9786C0.839802 16.4661 1.2225 16.0302 1.73233 15.9739L1.73244 15.9739C2.01609 15.9428 2.29944 16.0354 2.50992 16.2282C2.50996 16.2282 2.50999 16.2283 2.51002 16.2283L2.40869 16.3389C2.58759 16.5022 2.68702 16.7351 2.68174 16.9771L1.66907 1.65629ZM1.66907 1.65629C1.20019 2.12517 0.849993 2.77381 0.849993 3.52294V13.6128C0.846497 13.8775 0.94907 14.1328 1.13512 14.3213C1.32136 14.5103 1.5754 14.6167 1.84086 14.6167C2.10599 14.6167 2.36034 14.5103 2.5466 14.3213C2.73265 14.1328 2.83521 13.8775 2.83172 13.6128V3.52294C2.83172 3.48107 2.84697 3.40736 2.8874 3.31892C2.92684 3.23263 2.98603 3.14176 3.06369 3.06423L3.06386 3.06406C3.14139 2.9864 3.23227 2.92721 3.31856 2.88777C3.40699 2.84734 3.48071 2.83209 3.52258 2.83209H28.3296C28.3713 2.83209 28.4449 2.84732 28.5334 2.88777C28.6197 2.92722 28.7107 2.98643 28.7884 3.06414L28.7885 3.06423C28.8662 3.14176 28.9254 3.23263 28.9648 3.31892C29.0052 3.40736 29.0205 3.48107 29.0205 3.52294V7.9981H10.6703C9.92214 7.9981 9.28658 8.33429 8.81687 8.80396L8.81686 8.80396C8.34798 9.27284 7.99778 9.92148 7.99778 10.6706V29.0207H3.52259C3.48069 29.0207 3.40833 29.0038 3.31968 28.96C3.23356 28.9174 3.14264 28.8546 3.06405 28.7757L2.96138 28.8778L3.06404 28.7757C2.90369 28.6145 2.83174 28.4158 2.83174 28.3166V16.9786L1.66907 1.65629ZM29.2841 21.1149C28.216 18.1321 25.3668 15.9868 22.0225 15.9868V15.9868C17.7698 15.9869 14.3044 19.4523 14.3044 23.705C14.3044 26.565 15.8154 29.108 18.1707 30.4405C18.3988 30.6026 18.6849 30.6605 18.9583 30.6003L18.9586 30.6003C19.2346 30.5391 19.4717 30.3629 19.6097 30.1157C19.7475 29.8687 19.7735 29.5746 19.6805 29.3073C19.5885 29.0429 19.3895 28.8301 19.1325 28.7208C17.4064 27.7432 16.2861 25.8706 16.2861 23.705C16.2861 20.5267 18.8445 17.9687 22.0226 17.9687C24.7301 17.9687 26.9808 19.8327 27.5889 22.3493L25.4461 21.1564L25.4458 21.1563C24.9669 20.8912 24.3638 21.0643 24.0987 21.5433C23.8336 22.0219 24.0067 22.6249 24.4855 22.8901L29.2841 21.1149ZM29.2841 21.1149L29.9843 19.8626C30.1383 19.5699 30.4283 19.373 30.7573 19.3382C31.1295 19.2988 31.4916 19.472 31.6948 19.786L31.6948 19.7861C31.8974 20.0998 31.9063 20.5006 31.7182 20.8231L29.6169 24.6053L29.2841 21.1149ZM10.4664 10.0352C10.5464 9.9987 10.6142 9.98274 10.6573 9.98H10.6702H35.4773C35.5191 9.98 35.5929 9.99525 35.6813 10.0357C35.7676 10.0751 35.8585 10.1343 35.936 10.212L35.9361 10.2121C36.0138 10.2898 36.073 10.3807 36.1125 10.4671C36.1529 10.5555 36.1681 10.6292 36.1681 10.6709V35.4777L36.1681 35.4783C36.1685 35.5762 36.0965 35.7771 35.9364 35.9362L35.9363 35.9363C35.859 36.0132 35.7686 36.0725 35.6825 36.1122C35.5943 36.1529 35.5204 36.1686 35.4773 36.1686H10.6702C10.6283 36.1686 10.556 36.1517 10.4673 36.1079C10.3812 36.0654 10.2903 36.0026 10.2117 35.9236L10.2116 35.9235C10.0514 35.7628 9.97938 35.5638 9.97938 35.4645V10.6704C9.97938 10.6287 9.99461 10.5551 10.0351 10.4666C10.0745 10.3803 10.1337 10.2893 10.2114 10.2116C10.2891 10.1339 10.3801 10.0747 10.4664 10.0352ZM24.4858 22.8902L28.2695 24.9923L28.2697 24.9924C28.4998 25.1199 28.7708 25.1507 29.0234 25.0781C29.276 25.0056 29.4895 24.8357 29.6167 24.6056L24.4858 22.8902Z" fill="#007EFF" stroke="#007EFF" stroke-width="0.3"/>
</svg>
