<svg width="38" height="35" viewBox="0 0 38 35" fill="none" xmlns="http://www.w3.org/2000/svg">
<path d="M9.18857 14.1566H6.64103C8.09578 7.87017 13.7129 3.19733 20.4473 3.19733C28.2908 3.19733 34.6273 9.53389 34.6273 17.3773C34.6273 25.2208 28.2908 31.5573 20.4473 31.5573C15.3127 31.5573 10.8289 28.8446 8.34 24.7681L8.26459 24.6446L8.13845 24.7156L6.34702 25.7229L6.21191 25.7989L6.29228 25.9315C9.19117 30.7122 14.4566 33.9043 20.4471 33.9043C29.5626 33.9043 36.9743 26.4927 36.9743 17.3771C36.9743 8.26156 29.5627 0.85 20.4471 0.85L20.4471 0.850183C12.4358 0.850459 5.73991 6.58186 4.23481 14.1566H0.999817H0.687719L0.882688 14.4003L4.97707 19.5182L5.09419 19.6646L5.21132 19.5182L9.3057 14.4003L9.50067 14.1566H9.18857ZM19.4242 8.015L19.2742 8.01501V8.165V17.8569V17.9272L19.3282 17.9722L19.7119 18.292L19.7119 18.2921L19.7143 18.2939L25.6318 23.0281L25.7489 23.1218L25.8426 23.0046L27.1221 21.4053L27.2158 21.2882L27.0987 21.1945L26.299 20.5548L26.299 20.5547L21.6212 16.8092V8.16491V8.0149L21.4712 8.01491L19.4242 8.015Z" fill="#007EFF" stroke="#007EFF" stroke-width="0.3"/>
</svg>
