<svg width="37" height="46" viewBox="0 0 37 46" fill="none" xmlns="http://www.w3.org/2000/svg">
<mask id="path-1-outside-1_314_8459" maskUnits="userSpaceOnUse" x="-0.000183105" y="0.161285" width="37" height="46" fill="black">
<rect fill="white" x="-0.000183105" y="0.161285" width="37" height="46"/>
<path d="M10.1422 40.391H3.67948C3.06557 40.3903 2.56791 39.8856 2.56722 39.2626V8.12154C2.56789 7.49855 3.06556 6.99352 3.67948 6.99283H8.3138V7.25788C8.3138 7.69682 8.66484 8.05306 9.09738 8.05306H21.6351C22.0676 8.05306 22.4187 7.69682 22.4187 7.25788V6.93927C22.5022 6.97249 22.5903 6.99045 22.6798 6.99283H28.0977C28.7116 6.9935 29.2093 7.49853 29.21 8.12154V18.921C29.21 19.3603 29.5607 19.7165 29.9936 19.7165C30.4265 19.7165 30.7772 19.3603 30.7772 18.921V8.12154C30.7765 7.40059 30.4939 6.70952 29.9916 6.19974C29.4892 5.68997 28.8082 5.40322 28.0978 5.40254H22.6799C22.5904 5.40457 22.5022 5.42288 22.4187 5.45609V4.00781C22.418 3.25297 22.1221 2.52967 21.5964 1.99577C21.0703 1.46227 20.3576 1.16196 19.6137 1.16129H11.1185C10.3747 1.16196 9.66194 1.46227 9.13582 1.99577C8.6101 2.52961 8.31417 3.2529 8.3135 4.00781V5.40256H3.67918C2.96875 5.40323 2.28775 5.68998 1.7854 6.19976C1.28305 6.70954 1.00048 7.40066 0.999817 8.12155V39.2626C1.00048 39.9832 1.28305 40.6744 1.7854 41.1841C2.28775 41.6939 2.9688 41.9807 3.67918 41.9817H10.1419C10.5741 41.9807 10.9238 41.6248 10.9238 41.1862C10.9238 40.7479 10.5741 40.392 10.1419 40.391L10.1422 40.391ZM9.88097 4.00723C9.8813 3.67405 10.0119 3.35476 10.244 3.11957C10.4758 2.884 10.7905 2.75147 11.1188 2.75113H19.6139C19.9422 2.75147 20.2569 2.88399 20.4886 3.11957C20.7208 3.35479 20.8514 3.67408 20.8517 4.00723V6.46222H9.88133L9.88097 4.00723ZM24.7692 23.9566H13.2764C12.8435 23.9566 12.4928 23.6007 12.4928 23.1615C12.4928 22.7222 12.8435 22.3663 13.2764 22.3663H24.7692C25.2021 22.3663 25.5528 22.7222 25.5528 23.1615C25.5528 23.6007 25.2021 23.9566 24.7692 23.9566ZM25.814 15.4745H13.2763C12.8434 15.4745 12.4927 15.1186 12.4927 14.6793C12.4927 14.24 12.8434 13.8841 13.2763 13.8841H25.814C26.2469 13.8841 26.5979 14.24 26.5979 14.6793C26.5979 15.1186 26.2469 15.4745 25.814 15.4745ZM20.5901 26.6071C21.0223 26.6081 21.372 26.964 21.372 27.4026C21.372 27.8409 21.0223 28.1968 20.5901 28.1978H13.2764C12.8442 28.1968 12.4945 27.8409 12.4945 27.4026C12.4945 26.964 12.8442 26.6081 13.2764 26.6071H20.5901ZM12.4928 18.9201C12.4928 18.4812 12.8435 18.1253 13.2764 18.1249H22.6795C23.1117 18.126 23.4614 18.4819 23.4614 18.9201C23.4614 19.3587 23.1117 19.7146 22.6795 19.7156H13.2764C12.8435 19.7153 12.4928 19.3594 12.4928 18.9201ZM10.75 22.3235V22.3239C10.8969 22.4727 10.9794 22.675 10.9794 22.8858C10.9794 23.097 10.8969 23.299 10.75 23.4482L7.97573 26.2634C7.82877 26.4126 7.62937 26.4963 7.42161 26.4966H7.40224C7.18781 26.4909 6.98474 26.3963 6.84111 26.2346L5.39017 24.608C5.10225 24.2823 5.12797 23.7817 5.44762 23.4882C5.76726 23.1946 6.26059 23.2184 6.55115 23.5414L7.44999 24.5477L9.64175 22.3235L9.64209 22.3239C9.78871 22.1747 9.98812 22.0907 10.1959 22.0907C10.4036 22.0907 10.603 22.1747 10.75 22.3239L10.75 22.3235ZM10.595 13.3419V13.3422C10.742 13.4914 10.8244 13.6937 10.8244 13.9046C10.8244 14.1154 10.7419 14.3177 10.595 14.4669L8.02477 17.0741C7.87747 17.2229 7.67841 17.3066 7.47065 17.3069H7.45128C7.23652 17.3015 7.03377 17.2066 6.89015 17.0449L5.54609 15.5383C5.25617 15.2129 5.28055 14.7106 5.6012 14.416C5.92184 14.1215 6.41718 14.1466 6.70747 14.472L7.4994 15.3583L9.48706 13.3423H9.48673C9.63369 13.1932 9.83309 13.1094 10.0408 13.1094C10.2486 13.1094 10.448 13.1932 10.595 13.3423L10.595 13.3419ZM35.342 28.118L35.3417 28.1187C35.1754 27.954 34.9846 27.8174 34.7766 27.713L34.8073 27.6818V27.6815C35.7284 26.745 36.0879 25.3807 35.7498 24.1022C35.4118 22.8241 34.4281 21.8255 33.1683 21.4825C31.9088 21.1395 30.5644 21.5042 29.6412 22.4393L16.617 35.6562C15.2542 37.0381 14.318 38.7931 13.9236 40.7069L13.6604 41.9816H13.66C13.6199 42.2056 13.6777 42.4365 13.8187 42.6137L12.646 43.8038C12.34 44.1143 12.34 44.618 12.646 44.9284C12.9519 45.2389 13.4479 45.2389 13.7539 44.9284L14.9222 43.7428C15.0966 43.8902 15.328 43.9482 15.5498 43.9001L16.806 43.632H16.8056C18.6915 43.2313 20.4212 42.2813 21.783 40.8984L33.269 29.2425C33.5389 28.9815 33.9634 28.9815 34.2332 29.2425C34.4991 29.5133 34.4998 29.9516 34.2342 30.2231L28.1032 36.4437C27.9549 36.5925 27.8711 36.7952 27.8707 37.0071C27.8701 37.2186 27.9526 37.4216 28.1002 37.5714C28.2475 37.7209 28.4476 37.8046 28.6563 37.8043C28.8648 37.8036 29.0645 37.7189 29.2111 37.5684L35.3435 31.3477C35.764 30.9186 35.9998 30.3376 35.9998 29.7326C35.9995 29.1273 35.7633 28.547 35.3422 28.1183L35.342 28.118ZM20.6744 39.7748C19.5278 40.9394 18.0712 41.739 16.4829 42.0753L15.6422 42.2556L15.4625 42.0729L15.4615 42.0712L15.4598 42.0702L15.2808 41.8878L15.4572 41.0347H15.4575C15.7892 39.4234 16.5771 37.9449 17.7248 36.7812L22.3097 32.1285L25.26 35.1214L20.6744 39.7748ZM32.1604 28.1189L26.368 33.9969L23.4177 31.004L29.4653 24.867L32.4149 27.8603L32.1604 28.1189ZM33.6991 26.5574L33.5231 26.736L30.5735 23.7428L30.7495 23.5642V23.5638C31.2766 23.03 32.0442 22.8219 32.7633 23.0178C33.4827 23.2137 34.0445 23.7838 34.2376 24.5135C34.4303 25.2436 34.2252 26.0226 33.6991 26.5574L33.6991 26.5574Z"/>
</mask>
<path d="M10.1422 40.391H3.67948C3.06557 40.3903 2.56791 39.8856 2.56722 39.2626V8.12154C2.56789 7.49855 3.06556 6.99352 3.67948 6.99283H8.3138V7.25788C8.3138 7.69682 8.66484 8.05306 9.09738 8.05306H21.6351C22.0676 8.05306 22.4187 7.69682 22.4187 7.25788V6.93927C22.5022 6.97249 22.5903 6.99045 22.6798 6.99283H28.0977C28.7116 6.9935 29.2093 7.49853 29.21 8.12154V18.921C29.21 19.3603 29.5607 19.7165 29.9936 19.7165C30.4265 19.7165 30.7772 19.3603 30.7772 18.921V8.12154C30.7765 7.40059 30.4939 6.70952 29.9916 6.19974C29.4892 5.68997 28.8082 5.40322 28.0978 5.40254H22.6799C22.5904 5.40457 22.5022 5.42288 22.4187 5.45609V4.00781C22.418 3.25297 22.1221 2.52967 21.5964 1.99577C21.0703 1.46227 20.3576 1.16196 19.6137 1.16129H11.1185C10.3747 1.16196 9.66194 1.46227 9.13582 1.99577C8.6101 2.52961 8.31417 3.2529 8.3135 4.00781V5.40256H3.67918C2.96875 5.40323 2.28775 5.68998 1.7854 6.19976C1.28305 6.70954 1.00048 7.40066 0.999817 8.12155V39.2626C1.00048 39.9832 1.28305 40.6744 1.7854 41.1841C2.28775 41.6939 2.9688 41.9807 3.67918 41.9817H10.1419C10.5741 41.9807 10.9238 41.6248 10.9238 41.1862C10.9238 40.7479 10.5741 40.392 10.1419 40.391L10.1422 40.391ZM9.88097 4.00723C9.8813 3.67405 10.0119 3.35476 10.244 3.11957C10.4758 2.884 10.7905 2.75147 11.1188 2.75113H19.6139C19.9422 2.75147 20.2569 2.88399 20.4886 3.11957C20.7208 3.35479 20.8514 3.67408 20.8517 4.00723V6.46222H9.88133L9.88097 4.00723ZM24.7692 23.9566H13.2764C12.8435 23.9566 12.4928 23.6007 12.4928 23.1615C12.4928 22.7222 12.8435 22.3663 13.2764 22.3663H24.7692C25.2021 22.3663 25.5528 22.7222 25.5528 23.1615C25.5528 23.6007 25.2021 23.9566 24.7692 23.9566ZM25.814 15.4745H13.2763C12.8434 15.4745 12.4927 15.1186 12.4927 14.6793C12.4927 14.24 12.8434 13.8841 13.2763 13.8841H25.814C26.2469 13.8841 26.5979 14.24 26.5979 14.6793C26.5979 15.1186 26.2469 15.4745 25.814 15.4745ZM20.5901 26.6071C21.0223 26.6081 21.372 26.964 21.372 27.4026C21.372 27.8409 21.0223 28.1968 20.5901 28.1978H13.2764C12.8442 28.1968 12.4945 27.8409 12.4945 27.4026C12.4945 26.964 12.8442 26.6081 13.2764 26.6071H20.5901ZM12.4928 18.9201C12.4928 18.4812 12.8435 18.1253 13.2764 18.1249H22.6795C23.1117 18.126 23.4614 18.4819 23.4614 18.9201C23.4614 19.3587 23.1117 19.7146 22.6795 19.7156H13.2764C12.8435 19.7153 12.4928 19.3594 12.4928 18.9201ZM10.75 22.3235V22.3239C10.8969 22.4727 10.9794 22.675 10.9794 22.8858C10.9794 23.097 10.8969 23.299 10.75 23.4482L7.97573 26.2634C7.82877 26.4126 7.62937 26.4963 7.42161 26.4966H7.40224C7.18781 26.4909 6.98474 26.3963 6.84111 26.2346L5.39017 24.608C5.10225 24.2823 5.12797 23.7817 5.44762 23.4882C5.76726 23.1946 6.26059 23.2184 6.55115 23.5414L7.44999 24.5477L9.64175 22.3235L9.64209 22.3239C9.78871 22.1747 9.98812 22.0907 10.1959 22.0907C10.4036 22.0907 10.603 22.1747 10.75 22.3239L10.75 22.3235ZM10.595 13.3419V13.3422C10.742 13.4914 10.8244 13.6937 10.8244 13.9046C10.8244 14.1154 10.7419 14.3177 10.595 14.4669L8.02477 17.0741C7.87747 17.2229 7.67841 17.3066 7.47065 17.3069H7.45128C7.23652 17.3015 7.03377 17.2066 6.89015 17.0449L5.54609 15.5383C5.25617 15.2129 5.28055 14.7106 5.6012 14.416C5.92184 14.1215 6.41718 14.1466 6.70747 14.472L7.4994 15.3583L9.48706 13.3423H9.48673C9.63369 13.1932 9.83309 13.1094 10.0408 13.1094C10.2486 13.1094 10.448 13.1932 10.595 13.3423L10.595 13.3419ZM35.342 28.118L35.3417 28.1187C35.1754 27.954 34.9846 27.8174 34.7766 27.713L34.8073 27.6818V27.6815C35.7284 26.745 36.0879 25.3807 35.7498 24.1022C35.4118 22.8241 34.4281 21.8255 33.1683 21.4825C31.9088 21.1395 30.5644 21.5042 29.6412 22.4393L16.617 35.6562C15.2542 37.0381 14.318 38.7931 13.9236 40.7069L13.6604 41.9816H13.66C13.6199 42.2056 13.6777 42.4365 13.8187 42.6137L12.646 43.8038C12.34 44.1143 12.34 44.618 12.646 44.9284C12.9519 45.2389 13.4479 45.2389 13.7539 44.9284L14.9222 43.7428C15.0966 43.8902 15.328 43.9482 15.5498 43.9001L16.806 43.632H16.8056C18.6915 43.2313 20.4212 42.2813 21.783 40.8984L33.269 29.2425C33.5389 28.9815 33.9634 28.9815 34.2332 29.2425C34.4991 29.5133 34.4998 29.9516 34.2342 30.2231L28.1032 36.4437C27.9549 36.5925 27.8711 36.7952 27.8707 37.0071C27.8701 37.2186 27.9526 37.4216 28.1002 37.5714C28.2475 37.7209 28.4476 37.8046 28.6563 37.8043C28.8648 37.8036 29.0645 37.7189 29.2111 37.5684L35.3435 31.3477C35.764 30.9186 35.9998 30.3376 35.9998 29.7326C35.9995 29.1273 35.7633 28.547 35.3422 28.1183L35.342 28.118ZM20.6744 39.7748C19.5278 40.9394 18.0712 41.739 16.4829 42.0753L15.6422 42.2556L15.4625 42.0729L15.4615 42.0712L15.4598 42.0702L15.2808 41.8878L15.4572 41.0347H15.4575C15.7892 39.4234 16.5771 37.9449 17.7248 36.7812L22.3097 32.1285L25.26 35.1214L20.6744 39.7748ZM32.1604 28.1189L26.368 33.9969L23.4177 31.004L29.4653 24.867L32.4149 27.8603L32.1604 28.1189ZM33.6991 26.5574L33.5231 26.736L30.5735 23.7428L30.7495 23.5642V23.5638C31.2766 23.03 32.0442 22.8219 32.7633 23.0178C33.4827 23.2137 34.0445 23.7838 34.2376 24.5135C34.4303 25.2436 34.2252 26.0226 33.6991 26.5574L33.6991 26.5574Z" fill="#007EFF"/>
<path d="M10.1422 40.391H3.67948C3.06557 40.3903 2.56791 39.8856 2.56722 39.2626V8.12154C2.56789 7.49855 3.06556 6.99352 3.67948 6.99283H8.3138V7.25788C8.3138 7.69682 8.66484 8.05306 9.09738 8.05306H21.6351C22.0676 8.05306 22.4187 7.69682 22.4187 7.25788V6.93927C22.5022 6.97249 22.5903 6.99045 22.6798 6.99283H28.0977C28.7116 6.9935 29.2093 7.49853 29.21 8.12154V18.921C29.21 19.3603 29.5607 19.7165 29.9936 19.7165C30.4265 19.7165 30.7772 19.3603 30.7772 18.921V8.12154C30.7765 7.40059 30.4939 6.70952 29.9916 6.19974C29.4892 5.68997 28.8082 5.40322 28.0978 5.40254H22.6799C22.5904 5.40457 22.5022 5.42288 22.4187 5.45609V4.00781C22.418 3.25297 22.1221 2.52967 21.5964 1.99577C21.0703 1.46227 20.3576 1.16196 19.6137 1.16129H11.1185C10.3747 1.16196 9.66194 1.46227 9.13582 1.99577C8.6101 2.52961 8.31417 3.2529 8.3135 4.00781V5.40256H3.67918C2.96875 5.40323 2.28775 5.68998 1.7854 6.19976C1.28305 6.70954 1.00048 7.40066 0.999817 8.12155V39.2626C1.00048 39.9832 1.28305 40.6744 1.7854 41.1841C2.28775 41.6939 2.9688 41.9807 3.67918 41.9817H10.1419C10.5741 41.9807 10.9238 41.6248 10.9238 41.1862C10.9238 40.7479 10.5741 40.392 10.1419 40.391L10.1422 40.391ZM9.88097 4.00723C9.8813 3.67405 10.0119 3.35476 10.244 3.11957C10.4758 2.884 10.7905 2.75147 11.1188 2.75113H19.6139C19.9422 2.75147 20.2569 2.88399 20.4886 3.11957C20.7208 3.35479 20.8514 3.67408 20.8517 4.00723V6.46222H9.88133L9.88097 4.00723ZM24.7692 23.9566H13.2764C12.8435 23.9566 12.4928 23.6007 12.4928 23.1615C12.4928 22.7222 12.8435 22.3663 13.2764 22.3663H24.7692C25.2021 22.3663 25.5528 22.7222 25.5528 23.1615C25.5528 23.6007 25.2021 23.9566 24.7692 23.9566ZM25.814 15.4745H13.2763C12.8434 15.4745 12.4927 15.1186 12.4927 14.6793C12.4927 14.24 12.8434 13.8841 13.2763 13.8841H25.814C26.2469 13.8841 26.5979 14.24 26.5979 14.6793C26.5979 15.1186 26.2469 15.4745 25.814 15.4745ZM20.5901 26.6071C21.0223 26.6081 21.372 26.964 21.372 27.4026C21.372 27.8409 21.0223 28.1968 20.5901 28.1978H13.2764C12.8442 28.1968 12.4945 27.8409 12.4945 27.4026C12.4945 26.964 12.8442 26.6081 13.2764 26.6071H20.5901ZM12.4928 18.9201C12.4928 18.4812 12.8435 18.1253 13.2764 18.1249H22.6795C23.1117 18.126 23.4614 18.4819 23.4614 18.9201C23.4614 19.3587 23.1117 19.7146 22.6795 19.7156H13.2764C12.8435 19.7153 12.4928 19.3594 12.4928 18.9201ZM10.75 22.3235V22.3239C10.8969 22.4727 10.9794 22.675 10.9794 22.8858C10.9794 23.097 10.8969 23.299 10.75 23.4482L7.97573 26.2634C7.82877 26.4126 7.62937 26.4963 7.42161 26.4966H7.40224C7.18781 26.4909 6.98474 26.3963 6.84111 26.2346L5.39017 24.608C5.10225 24.2823 5.12797 23.7817 5.44762 23.4882C5.76726 23.1946 6.26059 23.2184 6.55115 23.5414L7.44999 24.5477L9.64175 22.3235L9.64209 22.3239C9.78871 22.1747 9.98812 22.0907 10.1959 22.0907C10.4036 22.0907 10.603 22.1747 10.75 22.3239L10.75 22.3235ZM10.595 13.3419V13.3422C10.742 13.4914 10.8244 13.6937 10.8244 13.9046C10.8244 14.1154 10.7419 14.3177 10.595 14.4669L8.02477 17.0741C7.87747 17.2229 7.67841 17.3066 7.47065 17.3069H7.45128C7.23652 17.3015 7.03377 17.2066 6.89015 17.0449L5.54609 15.5383C5.25617 15.2129 5.28055 14.7106 5.6012 14.416C5.92184 14.1215 6.41718 14.1466 6.70747 14.472L7.4994 15.3583L9.48706 13.3423H9.48673C9.63369 13.1932 9.83309 13.1094 10.0408 13.1094C10.2486 13.1094 10.448 13.1932 10.595 13.3423L10.595 13.3419ZM35.342 28.118L35.3417 28.1187C35.1754 27.954 34.9846 27.8174 34.7766 27.713L34.8073 27.6818V27.6815C35.7284 26.745 36.0879 25.3807 35.7498 24.1022C35.4118 22.8241 34.4281 21.8255 33.1683 21.4825C31.9088 21.1395 30.5644 21.5042 29.6412 22.4393L16.617 35.6562C15.2542 37.0381 14.318 38.7931 13.9236 40.7069L13.6604 41.9816H13.66C13.6199 42.2056 13.6777 42.4365 13.8187 42.6137L12.646 43.8038C12.34 44.1143 12.34 44.618 12.646 44.9284C12.9519 45.2389 13.4479 45.2389 13.7539 44.9284L14.9222 43.7428C15.0966 43.8902 15.328 43.9482 15.5498 43.9001L16.806 43.632H16.8056C18.6915 43.2313 20.4212 42.2813 21.783 40.8984L33.269 29.2425C33.5389 28.9815 33.9634 28.9815 34.2332 29.2425C34.4991 29.5133 34.4998 29.9516 34.2342 30.2231L28.1032 36.4437C27.9549 36.5925 27.8711 36.7952 27.8707 37.0071C27.8701 37.2186 27.9526 37.4216 28.1002 37.5714C28.2475 37.7209 28.4476 37.8046 28.6563 37.8043C28.8648 37.8036 29.0645 37.7189 29.2111 37.5684L35.3435 31.3477C35.764 30.9186 35.9998 30.3376 35.9998 29.7326C35.9995 29.1273 35.7633 28.547 35.3422 28.1183L35.342 28.118ZM20.6744 39.7748C19.5278 40.9394 18.0712 41.739 16.4829 42.0753L15.6422 42.2556L15.4625 42.0729L15.4615 42.0712L15.4598 42.0702L15.2808 41.8878L15.4572 41.0347H15.4575C15.7892 39.4234 16.5771 37.9449 17.7248 36.7812L22.3097 32.1285L25.26 35.1214L20.6744 39.7748ZM32.1604 28.1189L26.368 33.9969L23.4177 31.004L29.4653 24.867L32.4149 27.8603L32.1604 28.1189ZM33.6991 26.5574L33.5231 26.736L30.5735 23.7428L30.7495 23.5642V23.5638C31.2766 23.03 32.0442 22.8219 32.7633 23.0178C33.4827 23.2137 34.0445 23.7838 34.2376 24.5135C34.4303 25.2436 34.2252 26.0226 33.6991 26.5574L33.6991 26.5574Z" stroke="#007EFF" stroke-width="0.6" mask="url(#path-1-outside-1_314_8459)"/>
</svg>
