<svg width="47" height="30" viewBox="0 0 47 30" fill="none" xmlns="http://www.w3.org/2000/svg">
<path d="M6.85134 20.8261V20.9761H7.00134H18.3347H18.4847V20.8261V17.5148C18.4847 16.1162 17.3351 14.9911 15.9257 14.9911H14.7984H14.7481L14.708 15.0214L12.668 16.5623L10.6281 15.0214L10.5879 14.9911H10.5377H9.41032C7.99632 14.9911 6.85134 16.1207 6.85134 17.5148V20.8261ZM5.24097 29.7182H41.6583C44.4009 29.7182 46.6161 27.5028 46.6161 24.7602V5.27287C46.6161 2.52819 44.3477 0.314874 41.6071 0.314874H5.24097C2.49835 0.314874 0.282983 2.53024 0.282983 5.27287V24.7602C0.282983 27.5028 2.49835 29.7182 5.24097 29.7182ZM1.96407 5.27296C1.96407 3.46342 3.43144 1.99605 5.24097 1.99605H41.6073C43.4197 1.99605 44.9352 3.46628 44.9352 5.27296V24.7603C44.9352 26.5698 43.4678 28.0372 41.6583 28.0372H5.24097C3.43144 28.0372 1.96407 26.5698 1.96407 24.7603V5.27296ZM40.5841 9.16367L25.7001 9.16367C25.2664 9.16367 24.834 9.5308 24.834 10.0297C24.834 10.5218 25.208 10.8958 25.7001 10.8958L40.5841 10.8958C41.0762 10.8958 41.4502 10.5218 41.4502 10.0297C41.4502 9.53766 41.0762 9.16367 40.5841 9.16367ZM40.5841 14.125L25.7001 14.125C25.2664 14.125 24.834 14.4921 24.834 14.991C24.834 15.4831 25.208 15.8571 25.7001 15.8571L40.5841 15.8571C41.0762 15.8571 41.4502 15.4831 41.4502 14.991C41.4502 14.499 41.0762 14.125 40.5841 14.125ZM12.5738 14.2183C14.0749 14.2183 15.2956 13.0187 15.2956 11.5342C15.2956 10.0497 14.0749 8.85 12.5738 8.85C11.0726 8.85 9.8519 10.0497 9.8519 11.5342C9.8519 13.0187 11.0726 14.2183 12.5738 14.2183ZM40.5841 19.1375H25.7001C25.2664 19.1375 24.834 19.505 24.834 20.0035C24.834 20.4956 25.208 20.8696 25.7001 20.8696L40.5841 20.8696C41.0762 20.8696 41.4502 20.4956 41.4502 20.0035C41.4502 19.5115 41.0762 19.1375 40.5841 19.1375Z" fill="#007EFF" stroke="#007EFF" stroke-width="0.3"/>
</svg>
