<svg width="31" height="30" viewBox="0 0 31 30" fill="none" xmlns="http://www.w3.org/2000/svg">
<path d="M23.0962 29.1341L23.0958 29.1339L15.5017 25.0891L7.9087 29.1348C7.90868 29.1348 7.90867 29.1348 7.90865 29.1349C7.28784 29.4657 6.57421 29.424 6.14307 28.9068C5.93683 28.6594 5.75636 28.2471 5.85944 27.6338L5.85951 27.6334L7.31085 19.0623L1.16386 12.9914L1.16327 12.9908C0.748364 12.5791 0.538693 12.0339 0.710097 11.5011C0.881505 10.9682 1.36769 10.6483 1.94664 10.5638L10.4371 9.31338L14.2349 1.51716C14.235 1.51711 14.235 1.51705 14.235 1.51699C14.5016 0.969025 14.9796 0.650047 15.5001 0.65C16.0206 0.649953 16.4989 0.96896 16.7661 1.51792C16.7661 1.51797 16.7661 1.51803 16.7661 1.51808L20.5639 9.31312L29.0544 10.5635C29.6332 10.6479 30.1198 10.9677 30.291 11.5008C30.4622 12.0332 30.2544 12.5787 29.837 12.9903L23.6902 19.0623L25.1415 27.6329C25.2462 28.2462 25.0637 28.6584 24.859 28.9055C24.6196 29.1962 24.2696 29.35 23.894 29.35L23.8938 29.35L23.8894 29.35M23.0962 29.1341L23.2604 28.825C23.478 28.9406 23.6917 29 23.8938 29L23.8892 29.35L23.8894 29.35V29.35M23.0962 29.1341C23.3514 29.2696 23.6196 29.3491 23.8894 29.35M23.0962 29.1341L23.8894 29.35M21.8932 18.9052L23.3066 27.2559L15.91 23.3153L15.9085 23.3146C15.784 23.249 15.6444 23.2127 15.5014 23.2127H14.952L15.0177 23.3535L7.69746 27.2539L9.11094 18.9027L9.11126 18.9007C9.15735 18.6186 9.06748 18.3288 8.86086 18.125L2.86722 12.2065L11.1461 10.9871L11.1465 10.9871C11.4329 10.9445 11.6768 10.7631 11.8031 10.5052L11.8034 10.5045L15.5015 2.91399L19.2001 10.5063C19.2003 10.5067 19.2005 10.5071 19.2007 10.5075C19.3268 10.7679 19.5733 10.9475 19.8571 10.99L19.858 10.9902L28.1359 12.2094L22.1431 18.1276L22.143 18.1277C21.9378 18.3306 21.8451 18.6204 21.8932 18.9051L21.8932 18.9052Z" fill="#007EFF" stroke="#007EFF" stroke-width="0.7"/>
</svg>
