<svg width="30" height="30" viewBox="0 0 30 30" fill="none" xmlns="http://www.w3.org/2000/svg">
<g clip-path="url(#clip0_167_9228)">
<path fill-rule="evenodd" clip-rule="evenodd" d="M10.3994 0H19.6006C27.9997 0 30 2.00028 30 10.3994V19.6006C30 27.9997 27.9997 30 19.6006 30H10.3994C2.00028 30 0 27.9997 0 19.6006V10.3994C0 2.00028 2.00028 0 10.3994 0Z" fill="#007EFF"/>
<path fill-rule="evenodd" clip-rule="evenodd" d="M24.5703 10.3356C24.71 9.87204 24.5703 9.53125 23.9099 9.53125H21.7213C21.1646 9.53125 20.9085 9.82547 20.7688 10.1493C20.7688 10.1493 19.6554 12.8608 18.0805 14.6219C17.5704 15.132 17.3397 15.295 17.0603 15.295C16.9206 15.295 16.7195 15.132 16.7195 14.6685V10.3356C16.7195 9.7789 16.5586 9.53125 16.0951 9.53125H12.6576C12.3104 9.53125 12.1009 9.78949 12.1009 10.035C12.1009 10.5621 12.8883 10.6849 12.9708 12.1665V15.3882C12.9708 16.0951 12.8438 16.2221 12.5644 16.2221C11.8236 16.2221 10.018 13.4979 8.9491 10.3822C8.73954 9.77679 8.52999 9.53125 7.97118 9.53125H5.78251C5.15809 9.53125 5.0332 9.82547 5.0332 10.1493C5.0332 10.7293 5.77405 13.6017 8.48554 17.4033C10.2932 19.9983 12.8396 21.4059 15.1574 21.4059C16.5481 21.4059 16.7195 21.0927 16.7195 20.555V18.5928C16.7195 17.9684 16.8507 17.8435 17.291 17.8435C17.6149 17.8435 18.1716 18.0044 19.4691 19.2575C20.9529 20.7413 21.1963 21.4059 22.0303 21.4059H24.2169C24.8413 21.4059 25.1546 21.0927 24.9746 20.4767C24.7778 19.8629 24.0687 18.9696 23.1289 17.9134C22.6187 17.3101 21.8546 16.6624 21.6218 16.3364C21.2979 15.9195 21.3911 15.7332 21.6218 15.3628C21.626 15.3649 24.2931 11.6099 24.5703 10.3356Z" fill="white"/>
</g>
<defs>
<clipPath id="clip0_167_9228">
<rect width="30" height="30" fill="white"/>
</clipPath>
</defs>
</svg>
