<svg width="30" height="30" viewBox="0 0 30 30" fill="none" xmlns="http://www.w3.org/2000/svg">
<g clip-path="url(#clip0_167_9226)">
<path d="M15 0C6.716 0 0 6.716 0 15C0 23.284 6.716 30 15 30C23.284 30 30 23.284 30 15C30 6.716 23.284 0 15 0ZM19.6197 22.1375C19.6197 22.1375 19.2432 23.0761 18.2147 22.6265L12.0382 17.8887L12.0495 17.7707C12.0495 17.7707 18.906 11.6055 19.187 11.3469C19.468 11.0884 19.3724 11.0266 19.3724 11.0266C19.3893 10.7063 18.8666 11.0266 18.8666 11.0266L9.78456 16.7984L6.00225 15.5227C6.00225 15.5227 5.42338 15.3147 5.36718 14.8651C5.31098 14.4155 6.02473 14.1738 6.02473 14.1738L21.0697 8.27276C21.0697 8.27276 22.3061 7.72761 22.3061 8.62683L19.6197 22.1375Z" fill="#007EFF"/>
</g>
<defs>
<clipPath id="clip0_167_9226">
<rect width="30" height="30" fill="white"/>
</clipPath>
</defs>
</svg>
