<svg width="30" height="30" viewBox="0 0 30 30" fill="none" xmlns="http://www.w3.org/2000/svg">
<g clip-path="url(#clip0_167_9221)">
<path d="M21.9433 17.9999C21.5193 17.7894 19.7172 16.9473 19.3992 16.842C19.0811 16.7367 18.7631 16.6315 18.5511 17.0525C18.3391 17.4736 17.597 18.2104 17.385 18.5262C17.173 18.7367 16.961 18.842 16.537 18.6315C16.1129 18.4209 14.9469 18.1051 13.5688 16.842C12.5087 15.8946 11.6606 14.6315 11.4486 14.3157C11.2366 13.8946 11.4486 13.7894 11.6606 13.5788C11.8727 13.3683 12.0847 13.1578 12.1907 12.9473C12.2967 12.7367 12.4027 12.5262 12.6147 12.3157C12.7207 12.1051 12.7207 11.8946 12.6147 11.6841C12.5087 11.4736 11.7667 9.68409 11.4486 8.94725C11.1306 8.21041 10.8126 8.31567 10.6006 8.31567C10.3886 8.31567 10.1765 8.31567 9.85852 8.31567C9.5405 7.99988 9.11647 8.10515 8.79845 8.42094C8.48043 8.84199 7.52637 9.68409 7.52637 11.5788C7.52637 13.4736 8.90446 15.1578 9.01047 15.3683C9.11647 15.5788 11.6606 19.3683 15.3709 20.9473C16.2189 21.3683 16.961 21.5788 17.491 21.6841C18.3391 21.9999 19.1871 21.8946 19.8232 21.7894C20.5652 21.6841 22.0493 20.842 22.3674 19.9999C22.6854 19.1578 22.6854 18.4209 22.5794 18.2104C22.5794 18.2104 22.2614 18.1051 21.9433 17.9999Z" fill="#007EFF"/>
<path d="M25.6537 4.31579C22.8975 1.57895 19.0813 0 15.053 0C6.89046 0 0.106007 6.63158 0.106007 14.8421C0.106007 17.4737 0.74205 20 2.12014 22.3158L0 30L7.95053 27.8947C10.1767 29.0526 12.6148 29.6842 15.053 29.6842C23.3216 29.6842 30 23.0526 30 14.8421C30 10.8421 28.5159 7.1579 25.6537 4.31579ZM15.053 27.1579C12.8269 27.1579 10.6007 26.5263 8.69258 25.4737L8.26855 25.2632L3.60424 26.5263L4.87633 22L4.5583 21.5789C3.28622 19.5789 2.65018 17.3684 2.65018 15.0526C2.65018 8.21053 8.26855 2.73684 15.053 2.73684C18.3392 2.73684 21.5194 4 23.8516 6.31579C26.1837 8.63158 27.5618 11.5789 27.5618 14.8421C27.5618 21.6842 21.9435 27.1579 15.053 27.1579Z" fill="#007EFF"/>
</g>
<defs>
<clipPath id="clip0_167_9221">
<rect width="30" height="30" fill="white"/>
</clipPath>
</defs>
</svg>
