<svg width="22" height="19" viewBox="0 0 22 19" fill="none" xmlns="http://www.w3.org/2000/svg">
<path d="M17.773 17.9482L21.238 1.28139C21.3275 0.851657 20.9049 0.493223 20.4959 0.651374L1.18845 8.10005C0.711406 8.28348 0.715943 8.95821 1.19364 9.13711L5.898 10.893L7.71868 16.7491C7.83535 17.1238 8.2936 17.2625 8.59824 17.0136L11.2207 14.8759C11.4955 14.6517 11.887 14.6406 12.1741 14.8494L16.9044 18.2833C17.2298 18.5199 17.6913 18.3417 17.773 17.9482Z" fill="white"/>
<path fill-rule="evenodd" clip-rule="evenodd" d="M16.6207 4.29334L7.42647 9.95635C7.07387 10.1735 6.90794 10.5993 7.02202 10.9979L8.0163 14.4909C8.08695 14.7385 8.44603 14.7132 8.48038 14.4572L8.739 12.5419C8.78761 12.1815 8.96003 11.849 9.22642 11.6007L16.8145 4.54742C16.9558 4.4152 16.7853 4.19158 16.6207 4.29334Z" fill="#007EFF"/>
</svg>
