<svg width="23" height="23" viewBox="0 0 23 23" fill="none" xmlns="http://www.w3.org/2000/svg">
<path d="M22.4855 5.52951L22.4787 5.50296C21.9238 3.33275 19.4223 1.00399 17.125 0.519509L17.0991 0.514347C13.3834 -0.171449 9.61585 -0.171449 5.90091 0.514347L5.87424 0.519509C3.57774 1.00399 1.07622 3.33275 0.520579 5.50223L0.514482 5.52877C-0.171494 8.55955 -0.171494 11.6331 0.514482 14.6639L0.520579 14.6904C1.05259 16.7677 3.36814 18.9896 5.57927 19.6009V22.0233C5.57927 22.9001 6.68369 23.3307 7.31174 22.698L9.84832 20.1466C10.3986 20.1761 10.9489 20.193 11.5 20.193C13.3704 20.193 15.2416 20.0219 17.0991 19.679L17.125 19.6739C19.4223 19.1894 21.9238 16.8606 22.4787 14.6904L22.4855 14.6639C23.1715 11.6331 23.1715 8.56029 22.4855 5.52951ZM20.4779 14.2251C20.1075 15.641 18.2081 17.4012 16.6989 17.7264C14.7233 18.0899 12.7317 18.2455 10.7424 18.1917C10.7027 18.1909 10.6646 18.2057 10.6372 18.233C10.3552 18.5132 8.78506 20.0728 8.78506 20.0728L6.81479 22.0292C6.67073 22.1745 6.41768 22.0756 6.41768 21.8751V17.8621C6.41768 17.7957 6.3689 17.7396 6.30183 17.7264C6.30107 17.7264 6.30107 17.7264 6.30107 17.7264C4.79192 17.4012 2.89329 15.641 2.5221 14.2251C1.90473 11.4856 1.90473 8.70851 2.5221 5.96901C2.89329 4.55317 4.79192 2.79296 6.30107 2.46776C9.75152 1.83285 13.25 1.83285 16.6997 2.46776C18.2096 2.79296 20.1082 4.55317 20.4787 5.96901C21.096 8.70851 21.096 11.4856 20.4779 14.2251Z" fill="white"/>
<path d="M14.783 16.0778C14.5513 16.01 14.3295 15.9635 14.1245 15.8817C11.9965 15.0277 10.0384 13.926 8.48731 12.2366C7.60545 11.2765 6.9149 10.1918 6.33106 9.04435C6.05438 8.50014 5.82115 7.93454 5.58335 7.37263C5.36688 6.86012 5.68624 6.33066 6.02237 5.94499C6.33792 5.58292 6.74341 5.30565 7.18319 5.10139C7.52618 4.94211 7.8646 5.03355 8.11536 5.31524C8.65728 5.92361 9.15499 6.56295 9.55743 7.26865C9.80514 7.70225 9.73731 8.23245 9.28837 8.52742C9.17938 8.59895 9.07953 8.68375 8.97816 8.76413C8.88898 8.83492 8.80514 8.90719 8.74417 9.00305C8.63213 9.1793 8.62679 9.38651 8.6992 9.5775C9.25331 11.0501 10.1862 12.1946 11.7183 12.8118C11.9637 12.9106 12.2099 13.0257 12.4919 12.9932C12.9652 12.9394 13.1176 12.4379 13.4492 12.1754C13.7731 11.9188 14.187 11.9158 14.5361 12.1297C14.8852 12.3435 15.2236 12.5729 15.5597 12.8044C15.8897 13.0323 16.2182 13.2543 16.5231 13.5138C16.8158 13.7631 16.9164 14.0905 16.7518 14.429C16.45 15.0491 16.0109 15.5646 15.3775 15.8942C15.1984 15.9871 14.985 16.0173 14.783 16.0778C14.5513 16.0092 14.985 16.0173 14.783 16.0778Z" fill="white"/>
<path d="M11.5061 4.39161C14.2889 4.46682 16.5755 6.25432 17.0648 8.9164C17.1486 9.36991 17.1776 9.83374 17.215 10.2939C17.2302 10.4878 17.1174 10.6715 16.9009 10.6737C16.6776 10.6766 16.5778 10.4959 16.5633 10.302C16.5343 9.91855 16.5145 9.53435 16.4604 9.15385C16.1723 7.14807 14.5191 5.48815 12.4558 5.13271C12.1456 5.07888 11.8278 5.06487 11.513 5.03316C11.3141 5.01325 11.0534 5.00145 11.0099 4.76179C10.9726 4.56121 11.1479 4.40193 11.3453 4.39161C11.3979 4.3894 11.452 4.39161 11.5061 4.39161C14.2889 4.46756 11.452 4.39161 11.5061 4.39161Z" fill="white"/>
<path d="M15.7357 9.69622C15.7311 9.73014 15.7288 9.80904 15.7083 9.88352C15.6343 10.1542 15.2105 10.1873 15.113 9.91523C15.084 9.83412 15.0795 9.74194 15.0795 9.65492C15.0787 9.0849 14.9506 8.51488 14.6534 8.0186C14.3477 7.5083 13.8813 7.07986 13.3333 6.82029C13.0025 6.66322 12.6442 6.56588 12.2814 6.50763C12.1229 6.48256 11.9628 6.46707 11.8035 6.44568C11.6107 6.41988 11.507 6.30041 11.5162 6.1168C11.5246 5.94424 11.6549 5.82035 11.8493 5.83068C12.488 5.86607 13.1046 5.99955 13.6724 6.29009C14.8272 6.8815 15.4865 7.81581 15.6793 9.06278C15.6877 9.11956 15.7022 9.17487 15.7067 9.23165C15.7174 9.37176 15.7243 9.51187 15.7357 9.69622C15.7311 9.73014 15.7243 9.51187 15.7357 9.69622Z" fill="white"/>
<path d="M14.0043 9.63131C13.7718 9.635 13.6468 9.51037 13.6224 9.3039C13.6057 9.1601 13.5927 9.01409 13.5569 8.87398C13.4868 8.59819 13.3351 8.3423 13.0958 8.17343C12.9822 8.09379 12.8542 8.03554 12.72 7.99793C12.5493 7.95 12.3717 7.96327 12.2017 7.92271C12.0165 7.87847 11.9144 7.73393 11.9433 7.5658C11.97 7.41316 12.1232 7.29369 12.2962 7.30549C13.3755 7.38071 14.1461 7.9205 14.2566 9.14978C14.2642 9.23679 14.2734 9.32823 14.2535 9.41082C14.2185 9.55314 14.1103 9.62393 14.0043 9.63131C13.7711 9.635 14.1103 9.62393 14.0043 9.63131Z" fill="white"/>
</svg>
