<svg width="21" height="21" viewBox="0 0 21 21" fill="none" xmlns="http://www.w3.org/2000/svg">
<path d="M0.291992 20.7195L1.72163 15.6415C0.802484 14.0793 0.318254 12.3025 0.318254 10.4764C0.318254 4.85518 4.89155 0.28125 10.5134 0.28125C16.1352 0.28125 20.7085 4.85454 20.7085 10.4764C20.7085 16.0982 16.1352 20.6715 10.5134 20.6715C8.76155 20.6715 7.04689 20.2231 5.5295 19.3719L0.291992 20.7195ZM5.79724 17.5169L6.10917 17.7078C7.43184 18.5155 8.95499 18.9421 10.5134 18.9421C15.1815 18.9421 18.9791 15.1445 18.9791 10.4764C18.9791 5.80827 15.1815 2.01065 10.5134 2.01065C5.84528 2.01065 2.04765 5.80827 2.04765 10.4764C2.04765 12.1026 2.5101 13.6822 3.38441 15.0439L3.5945 15.3712L2.77079 18.2958L5.79724 17.5169Z" fill="white"/>
<path d="M7.65013 5.73241L6.98848 5.69654C6.78095 5.68501 6.57662 5.75483 6.4197 5.89126C6.0988 6.16989 5.58638 6.70792 5.42882 7.40993C5.19375 8.45589 5.55692 9.73692 6.49656 11.018C7.4362 12.299 9.18673 14.3486 12.2823 15.2242C13.2803 15.5061 14.0649 15.3158 14.6702 14.929C15.1499 14.6221 15.4805 14.1296 15.5996 13.573L15.7053 13.0798C15.7386 12.9229 15.6592 12.764 15.5138 12.6968L13.2784 11.6662C13.133 11.5995 12.9613 11.6418 12.8633 11.768L11.9858 12.9056C11.9192 12.9914 11.8058 13.0253 11.7033 12.9895C11.1025 12.7781 9.08873 11.9352 7.98384 9.80674C7.9358 9.71451 7.94797 9.60242 8.01587 9.52363L8.85494 8.55325C8.94077 8.45397 8.96255 8.31498 8.91067 8.19456L7.94669 5.93994C7.89545 5.81952 7.78016 5.73946 7.65013 5.73241Z" fill="white"/>
</svg>
