<svg width="12" height="13" viewBox="0 0 12 13" fill="none" xmlns="http://www.w3.org/2000/svg">
<path d="M5.54747 0.512472C2.894 0.677283 0.726285 2.7686 0.517458 5.36771C0.385806 7.00022 1.00775 8.49243 2.07912 9.54365C2.61254 10.0693 3.25945 10.4835 3.979 10.7508C4.47383 10.9356 4.89829 11.263 5.16613 11.7107L5.50434 12.2764C5.68139 12.5726 6.11947 12.5726 6.29652 12.2764L6.63473 11.7107C6.90258 11.263 7.32704 10.9356 7.8196 10.7508C8.53915 10.4835 9.18379 10.067 9.71947 9.54365C10.6955 8.58597 11.2993 7.2608 11.2993 5.79978C11.2993 2.75969 8.68896 0.316481 5.54747 0.512472ZM5.8993 8.61047C4.31721 8.61047 3.03473 7.35212 3.03473 5.79978C3.03473 4.24744 4.31721 2.98909 5.8993 2.98909C7.48139 2.98909 8.76386 4.24744 8.76386 5.79978C8.76386 7.35212 7.48139 8.61047 5.8993 8.61047Z" fill="#ABABAB"/>
</svg>
