<svg width="255" height="66" viewBox="0 0 255 66" fill="none" xmlns="http://www.w3.org/2000/svg">
<path d="M55.8389 9.66589C49.6641 3.42962 41.4509 0 32.7132 0C23.9755 0 15.7624 3.42962 9.58092 9.66589C3.39947 15.9022 0 24.1882 0 33.0033C0 41.8185 3.39947 50.1045 9.58092 56.3341C15.7624 62.5704 23.9755 66 32.7132 66C41.4509 66 49.6641 62.5704 55.8456 56.3341C62.027 50.0978 65.4265 41.8118 65.4265 32.9967C65.4265 24.1815 62.0204 15.9022 55.8389 9.66589ZM42.4801 44.8864C35.8471 45.6166 28.6233 44.6721 21.499 42.3008C22.2227 39.0253 23.3647 35.6358 24.925 32.4541C25.3964 31.5029 25.8878 30.5584 26.4056 29.634C30.8807 30.2637 35.1566 30.5785 39.1271 30.5785C42.7257 30.5785 46.0721 30.3173 49.0732 29.8015C54.8895 28.7967 59.1853 26.8475 61.6353 24.1279C62.2528 26.1709 62.6578 28.301 62.8371 30.4914H62.8238C63.2089 34.4971 61.0975 42.8367 42.4801 44.8864ZM13.0866 16.3644C13.4518 11.4812 15.769 7.63625 19.6133 5.52624L19.6067 5.51284C22.7007 4.00568 26.0936 3.01431 29.659 2.65259C29.0482 3.31574 28.517 4.12626 28.0921 5.05734C27.1958 7.01999 26.8837 9.34436 27.2024 11.6084C27.5277 13.9194 28.5037 16.1433 30.0375 18.0859C28.4108 19.9882 26.8571 22.0782 25.4296 24.2752C24.7524 24.1882 24.1482 24.1011 23.6037 24.0073C22.3621 25.9633 21.2135 27.9996 20.191 30.0895C19.8059 30.8732 19.4407 31.657 19.0888 32.434C15.0187 28.3077 12.6551 22.1451 13.0866 16.3644ZM31.3521 16.5988C28.4374 12.7204 28.6764 8.46017 29.8582 5.87456C30.8077 3.79133 32.3879 2.51862 33.988 2.55212V2.52532C39.2931 2.74637 44.2528 4.354 48.5155 6.9999C47.3602 6.95971 46.1518 7.09368 44.8969 7.40851C40.8335 8.42667 36.4115 11.3271 32.109 15.795C31.8567 16.0629 31.6044 16.3309 31.3521 16.5988ZM57.7511 15.929C59.0857 18.3136 58.2757 19.5796 57.9902 20.0284C55.4671 23.9604 44.2794 26.6733 27.6605 24.4293C29.4598 21.77 31.4384 19.2983 33.4967 17.1615C37.5402 12.9615 41.6435 10.2487 45.3617 9.31087C48.3362 8.56734 50.9788 8.99604 53.2097 10.597C54.916 12.1979 56.4431 13.9797 57.7511 15.929ZM12.6949 10.1616C11.845 11.9635 11.3139 13.9931 11.1545 16.217C10.6632 22.8016 13.4784 29.8417 18.2721 34.3564C17.1036 37.2301 16.2338 40.0501 15.769 42.8032C15.291 45.63 15.0918 48.0816 15.1117 50.1983C10.8956 46.5945 6.66615 40.7066 4.93321 34.0483C3.37291 28.0532 4.01031 22.4064 6.83214 17.2419C8.42564 14.5893 10.4109 12.2046 12.6949 10.1616ZM2.47657 33.0033C2.47657 32.6282 2.48321 32.2531 2.49648 31.8847C2.63592 32.7689 2.82182 33.6598 3.05421 34.5507C5.07928 42.3142 10.3312 49.1199 15.2578 52.8107C15.5831 55.8183 16.4064 57.9484 17.4356 59.3149C8.49203 54.0097 2.47657 44.2032 2.47657 33.0033ZM33.178 63.4948C26.3791 63.2871 22.475 60.3331 21.1205 55.2959C20.5628 53.226 20.4167 50.5265 20.6823 47.5189C26.5451 49.3878 32.4211 50.3524 37.9984 50.3524C39.7114 50.3524 41.3978 50.2653 43.0444 50.0777C45.6671 49.7897 48.0972 49.3677 50.3281 48.8184C54.5243 47.7869 58.0167 46.2931 60.7721 44.3506C56.3502 55.4231 45.6737 63.3005 33.178 63.4948Z" fill="white"/>
<path d="M245.771 24.5097H240.22L230.998 43.0912H235.413L237.08 39.7353H248.918L250.585 43.0912H255L245.771 24.5097ZM239.058 35.7564L243.002 27.812L246.946 35.7564H239.058Z" fill="white"/>
<path d="M135.089 35.7564C138.17 35.7564 140.68 33.2244 140.68 30.1163C140.68 27.0082 138.17 24.4762 135.089 24.4762H122.188V43.0979H126.132V35.7564H129.286L136.849 43.0979H142.539L134.983 35.7564H135.089ZM126.139 31.7775V28.4618H135.096C136.005 28.4618 136.742 29.2053 136.742 30.123C136.742 31.0407 136.005 31.7842 135.096 31.7842H126.139V31.7775Z" fill="white"/>
<path d="M95.4374 23.7394C95.4374 24.148 95.1121 24.4762 94.7071 24.4762H80.8901V43.0979H84.834V35.3143H97.4094V31.3354H84.834V28.4618H94.7004C97.2832 28.4618 99.3813 26.3451 99.3813 23.7394V22.7212H95.4374V23.7394Z" fill="white"/>
<path d="M209.492 24.5097H205.548V43.0912H209.492V24.5097Z" fill="white"/>
<path d="M183.292 28.4551H191.001V43.0979H194.952V28.4551H202.66V24.4762H183.292V28.4551Z" fill="white"/>
<path d="M109.799 23.8867C104.381 23.8867 99.9656 28.3345 99.9656 33.8072C99.9656 39.2731 104.374 43.7276 109.799 43.7276C115.223 43.7276 119.632 39.2798 119.632 33.8072C119.632 28.3345 115.223 23.8867 109.799 23.8867ZM109.799 39.742C106.552 39.742 103.916 37.0827 103.916 33.8072C103.916 30.5316 106.552 27.8723 109.799 27.8723C113.046 27.8723 115.682 30.5316 115.682 33.8072C115.682 37.076 113.046 39.742 109.799 39.742Z" fill="white"/>
<path d="M179.495 35.4081L168.426 28.4618H180.404V24.4829H168.387C166.468 24.4829 164.848 25.6551 164.35 27.3967C163.878 29.0446 164.549 30.7192 166.056 31.6704L177.403 38.7908C177.489 38.8444 177.529 38.8846 177.536 38.9047C177.509 38.9918 177.357 39.1592 176.965 39.1592H164.204V43.1381H176.965C179.043 43.1381 180.796 41.8788 181.334 39.9965C181.838 38.2282 181.115 36.4263 179.495 35.4081Z" fill="white"/>
<path d="M231.708 34.0282H227.758C227.685 35.9239 226.762 37.6253 225.215 38.6971C223.92 39.5946 222.353 39.9296 220.813 39.6415C219.266 39.3535 217.925 38.476 217.035 37.1698C216.145 35.8636 215.813 34.2895 216.099 32.722C216.384 31.1613 217.254 29.8082 218.549 28.9106C220.109 27.8254 222.028 27.5709 223.82 28.2006L224.133 28.3144L225.434 24.5566L225.122 24.4494C222.174 23.4112 218.881 23.8533 216.311 25.635C211.843 28.7364 210.707 34.9191 213.781 39.4272C215.269 41.6109 217.513 43.0778 220.096 43.5601C220.693 43.674 221.304 43.7276 221.902 43.7276C223.887 43.7276 225.806 43.1247 227.452 41.9793C230.022 40.1975 231.615 37.2569 231.708 34.1086V34.0282Z" fill="white"/>
<path d="M144.471 43.1314H161.322V39.1525H148.421V35.3143H160.446V31.3354H148.421V28.4551H161.322V24.4762H144.471V43.1314Z" fill="white"/>
</svg>
