<svg width="35" height="27" viewBox="0 0 35 27" fill="none" xmlns="http://www.w3.org/2000/svg">
<path d="M6.36855 26.851V25.0629C6.36855 24.3894 5.93597 23.9364 5.23904 23.9305C4.87254 23.9245 4.49403 24.0377 4.22968 24.4371C4.03141 24.1212 3.71899 23.9305 3.28041 23.9305C2.97399 23.9305 2.67359 24.0199 2.43928 24.3536V24.002H1.81444V26.851H2.44528V25.2715C2.44528 24.7768 2.72165 24.5146 3.14823 24.5146C3.56278 24.5146 3.77307 24.7828 3.77307 25.2656V26.851H4.40391V25.2715C4.40391 24.7768 4.6923 24.5146 5.10686 24.5146C5.53343 24.5146 5.7377 24.7828 5.7377 25.2656V26.851H6.36855ZM15.7021 24.002H14.6807V23.1377H14.0499V24.002H13.4671V24.5682H14.0499V25.8675C14.0499 26.5291 14.3082 26.9225 15.0472 26.9225C15.3176 26.9225 15.63 26.8391 15.8283 26.702L15.648 26.1715C15.4618 26.2788 15.2575 26.3324 15.0953 26.3324C14.7829 26.3324 14.6807 26.1417 14.6807 25.8556V24.5682H15.7021V24.002ZM21.0312 23.9305C20.6708 23.9305 20.4364 24.0973 20.2742 24.3477V24.002H19.6554V26.851H20.2802V25.2536C20.2802 24.7828 20.4845 24.5205 20.8931 24.5205C21.0192 24.5205 21.1514 24.5384 21.2836 24.5921L21.4758 24.0079C21.3377 23.9543 21.1574 23.9305 21.0312 23.9305ZM12.9744 24.2285C12.674 24.0318 12.2595 23.9305 11.8028 23.9305C11.0759 23.9305 10.6072 24.2762 10.6072 24.8424C10.6072 25.3073 10.9557 25.5934 11.5986 25.6828L11.893 25.7245C12.2354 25.7722 12.3976 25.8616 12.3976 26.0225C12.3976 26.243 12.1693 26.3682 11.7428 26.3682C11.3102 26.3682 10.9978 26.2311 10.7875 26.0702L10.4931 26.553C10.8356 26.8033 11.2681 26.9225 11.7368 26.9225C12.5659 26.9225 13.0465 26.5351 13.0465 25.9927C13.0465 25.4921 12.668 25.2298 12.0432 25.1404L11.7488 25.0987C11.4784 25.0629 11.2621 25.0093 11.2621 24.8185C11.2621 24.6099 11.4664 24.4848 11.8089 24.4848C12.1753 24.4848 12.5298 24.6219 12.7041 24.7291L12.9744 24.2285ZM29.7099 23.9305C29.3494 23.9305 29.1151 24.0973 28.9529 24.3477V24.002H28.334V26.851H28.9589V25.2536C28.9589 24.7828 29.1632 24.5205 29.5717 24.5205C29.6979 24.5205 29.8301 24.5384 29.9622 24.5921L30.1545 24.0079C30.0163 23.9543 29.8361 23.9305 29.7099 23.9305ZM21.6621 25.4265C21.6621 26.2907 22.2689 26.9225 23.1941 26.9225C23.6267 26.9225 23.9151 26.8271 24.2275 26.5828L23.9271 26.0821C23.6928 26.249 23.4465 26.3384 23.1761 26.3384C22.6775 26.3324 22.311 25.9748 22.311 25.4265C22.311 24.8781 22.6775 24.5205 23.1761 24.5146C23.4465 24.5146 23.6928 24.604 23.9271 24.7709L24.2275 24.2702C23.9151 24.0258 23.6267 23.9305 23.1941 23.9305C22.2689 23.9305 21.6621 24.5623 21.6621 25.4265ZM27.5139 25.4265V24.002H26.8891V24.3477C26.6908 24.0914 26.3904 23.9305 25.9819 23.9305C25.1768 23.9305 24.546 24.5563 24.546 25.4265C24.546 26.2967 25.1768 26.9225 25.9819 26.9225C26.3904 26.9225 26.6908 26.7616 26.8891 26.5053V26.851H27.5139V25.4265ZM25.1888 25.4265C25.1888 24.9258 25.5193 24.5146 26.06 24.5146C26.5767 24.5146 26.9252 24.9079 26.9252 25.4265C26.9252 25.945 26.5767 26.3384 26.06 26.3384C25.5193 26.3384 25.1888 25.9272 25.1888 25.4265ZM17.6487 23.9305C16.8076 23.9305 16.2188 24.5384 16.2188 25.4265C16.2188 26.3324 16.8316 26.9225 17.6908 26.9225C18.1233 26.9225 18.5199 26.8152 18.8683 26.5232L18.5619 26.0642C18.3216 26.255 18.0152 26.3623 17.7268 26.3623C17.3243 26.3623 16.9578 26.1775 16.8677 25.6649H19.0005C19.0065 25.5874 19.0125 25.5099 19.0125 25.4265C19.0065 24.5384 18.4538 23.9305 17.6487 23.9305ZM17.6367 24.4848C18.0392 24.4848 18.2976 24.7351 18.3637 25.1762H16.8737C16.9397 24.7649 17.1921 24.4848 17.6367 24.4848ZM33.3087 25.4265V22.8576H32.6839V24.3477C32.4856 24.0914 32.1852 23.9305 31.7767 23.9305C30.9716 23.9305 30.3407 24.5563 30.3407 25.4265C30.3407 26.2967 30.9716 26.9225 31.7767 26.9225C32.1852 26.9225 32.4856 26.7616 32.6839 26.5053V26.851H33.3087V25.4265ZM30.9836 25.4265C30.9836 24.9258 31.314 24.5146 31.8548 24.5146C32.3715 24.5146 32.7199 24.9079 32.7199 25.4265C32.7199 25.945 32.3715 26.3384 31.8548 26.3384C31.314 26.3384 30.9836 25.9272 30.9836 25.4265ZM9.88628 25.4265V24.002H9.26144V24.3477C9.06317 24.0914 8.76277 23.9305 8.35422 23.9305C7.54914 23.9305 6.91829 24.5563 6.91829 25.4265C6.91829 26.2967 7.54914 26.9225 8.35422 26.9225C8.76277 26.9225 9.06317 26.7616 9.26144 26.5053V26.851H9.88628V25.4265ZM7.56115 25.4265C7.56115 24.9258 7.8916 24.5146 8.43232 24.5146C8.94902 24.5146 9.29748 24.9079 9.29748 25.4265C9.29748 25.945 8.94902 26.3384 8.43232 26.3384C7.8916 26.3384 7.56115 25.9272 7.56115 25.4265ZM34.3511 26.4368C34.3902 26.4368 34.4292 26.4427 34.4653 26.4576C34.5013 26.4725 34.5314 26.4934 34.5584 26.5172C34.5854 26.544 34.6065 26.5738 34.6215 26.6066C34.6365 26.6394 34.6455 26.6781 34.6455 26.7169C34.6455 26.7556 34.6365 26.7914 34.6215 26.8272C34.6065 26.8599 34.5854 26.8927 34.5584 26.9166C34.5314 26.9434 34.5013 26.9613 34.4653 26.9762C34.4292 26.9911 34.3932 27 34.3511 27C34.3091 27 34.273 26.9911 34.237 26.9762C34.2009 26.9613 34.1709 26.9404 34.1438 26.9166C34.1168 26.8897 34.0958 26.8599 34.0808 26.8272C34.0657 26.7944 34.0567 26.7556 34.0567 26.7169C34.0567 26.6781 34.0657 26.6424 34.0808 26.6066C34.0958 26.5709 34.1168 26.5411 34.1438 26.5172C34.1709 26.4904 34.2009 26.4725 34.237 26.4576C34.273 26.4457 34.3091 26.4368 34.3511 26.4368ZM34.3511 26.9404C34.3812 26.9404 34.4112 26.9344 34.4382 26.9225C34.4653 26.9106 34.4893 26.8957 34.5073 26.8748C34.5284 26.854 34.5434 26.8301 34.5554 26.8033C34.5674 26.7765 34.5734 26.7467 34.5734 26.7169C34.5734 26.6871 34.5674 26.6573 34.5554 26.6305C34.5434 26.6036 34.5284 26.5798 34.5073 26.5589C34.4863 26.5381 34.4653 26.5232 34.4382 26.5113C34.4112 26.4993 34.3842 26.4934 34.3511 26.4934C34.3211 26.4934 34.291 26.4993 34.264 26.5113C34.237 26.5232 34.2129 26.5381 34.1919 26.5589C34.1709 26.5798 34.1559 26.6036 34.1438 26.6305C34.1318 26.6573 34.1258 26.6871 34.1258 26.7169C34.1258 26.7467 34.1318 26.7765 34.1438 26.8033C34.1559 26.8301 34.1709 26.854 34.1919 26.8748C34.2129 26.8957 34.237 26.9106 34.264 26.9225C34.291 26.9344 34.3211 26.9404 34.3511 26.9404ZM34.3692 26.5887C34.4022 26.5887 34.4292 26.5977 34.4473 26.6126C34.4653 26.6275 34.4743 26.6483 34.4743 26.6752C34.4743 26.696 34.4683 26.7139 34.4533 26.7288C34.4382 26.7437 34.4172 26.7526 34.3902 26.7556L34.4773 26.854H34.4082L34.3271 26.7556H34.3001V26.854H34.243V26.5917H34.3692V26.5887ZM34.3031 26.6364V26.7079H34.3692C34.3842 26.7079 34.3962 26.705 34.4052 26.699C34.4142 26.693 34.4172 26.6841 34.4172 26.6722C34.4172 26.6603 34.4142 26.6513 34.4052 26.6454C34.3962 26.6394 34.3842 26.6364 34.3692 26.6364H34.3031ZM33.9636 17.3742V17.0285H34.1048V16.957H33.7473V17.0285H33.8885V17.3742H33.9636ZM34.6575 17.3742V16.957H34.5494L34.4232 17.243L34.2971 16.957H34.1889V17.3742H34.267V17.0613L34.3842 17.3324H34.4653L34.5824 17.0613V17.3772H34.6575V17.3742ZM16.5402 19.4483C16.6243 19.5199 16.7144 19.5914 16.8016 19.6629C15.0863 20.7954 13.0285 21.457 10.8145 21.457C4.8425 21.457 0 16.653 0 10.7285C0 4.80397 4.8425 0 10.8145 0C13.0285 0 15.0863 0.66159 16.8016 1.79404C16.7144 1.86556 16.6243 1.93411 16.5402 2.00861C13.9928 4.20795 12.5298 7.38775 12.5298 10.7285C12.5328 14.0692 13.9928 17.249 16.5402 19.4483ZM24.1825 0C21.9685 0 19.9107 0.66159 18.1954 1.79404C18.2826 1.86556 18.3727 1.93411 18.4568 2.00861C21.0042 4.20795 22.4672 7.38477 22.4672 10.7285C22.4672 14.0722 21.0072 17.249 18.4598 19.4483C18.3757 19.5199 18.2856 19.5914 18.1984 19.6629C19.9137 20.7954 21.9715 21.457 24.1855 21.457C30.1575 21.457 35 16.653 35 10.7285C34.997 4.80099 30.1545 0 24.1825 0ZM17.4985 2.29768C17.3603 2.40497 17.2221 2.51821 17.0899 2.63444C14.8099 4.60132 13.368 7.49801 13.368 10.7285C13.368 13.9589 14.8099 16.8556 17.0899 18.8225C17.2221 18.9387 17.3603 19.049 17.4985 19.1593C17.6367 19.049 17.7749 18.9387 17.907 18.8225C20.1871 16.8556 21.629 13.9589 21.629 10.7285C21.629 7.49801 20.1871 4.60132 17.907 2.63444C17.7749 2.51821 17.6397 2.40497 17.4985 2.29768Z" fill="#ABABAB"/>
</svg>
