<svg width="62" height="17" viewBox="0 0 62 17" fill="none" xmlns="http://www.w3.org/2000/svg">
<path d="M34.5188 1.79637L30.6032 10.0449H30.2053V0H24.6417V16.9979H29.3639C30.6032 16.9979 31.7294 16.2984 32.2512 15.2015L36.169 6.95301H36.5669V16.9979H42.1305V0H37.4083C36.1668 0 35.0384 0.701641 34.5188 1.79637Z" fill="#ABABAB"/>
<path d="M13.6449 2.23384L11.3273 10.0449H10.9294L8.61178 2.23384C8.21826 0.910865 6.97247 0 5.55711 0H0V17H5.56363V6.95301H5.9615L9.14009 16.9979H13.1144L16.2952 6.95301H16.6931V16.9979H22.2567V0H16.6996C15.2842 0 14.0384 0.910865 13.6449 2.23384Z" fill="#ABABAB"/>
<path d="M44.5134 7.72658V16.998H50.0661V11.5898H56.0385C58.6322 11.5898 60.8346 9.97521 61.6543 7.72658H44.5134Z" fill="#ABABAB"/>
<path d="M56.0385 0H43.7176C44.4655 3.95624 48.0268 6.95301 52.312 6.95301H61.8804C61.9587 6.57894 62 6.19008 62 5.79276C62 2.59523 59.3302 0 56.0385 0Z" fill="#ABABAB"/>
</svg>
