<svg width="57" height="23" viewBox="0 0 57 23" fill="none" xmlns="http://www.w3.org/2000/svg">
<path d="M30.0085 13.1789V18.6085H27.6455V3.96875H32.8486C34.3681 3.96875 35.5749 4.39373 36.4689 5.24709C37.363 6.10046 37.8084 7.22581 37.8084 8.62995C37.8084 10.0647 37.3693 11.1832 36.4942 11.9822C35.6191 12.7812 34.3934 13.1789 32.817 13.1789H30.0085ZM30.0085 11.1288H32.8486C33.6889 11.1288 34.3302 10.9146 34.7725 10.4897C35.2148 10.0647 35.4359 9.44931 35.4359 8.64355C35.4359 7.85138 35.2116 7.22241 34.763 6.74983C34.3144 6.27725 33.6984 6.03586 32.9149 6.02226H30.0085V11.1288Z" fill="#ABABAB"/>
<path d="M45.286 18.608C45.1849 18.4006 45.0996 18.0606 45.0238 17.5914C44.3004 18.4006 43.4158 18.8086 42.3702 18.8086C41.3561 18.8086 40.5284 18.4958 39.8839 17.8736C39.2426 17.2514 38.9204 16.4797 38.9204 15.5617C38.9204 14.4024 39.3216 13.5116 40.1209 12.8928C40.9201 12.274 42.0669 11.9613 43.5548 11.9613H44.948V11.2473C44.948 10.6829 44.8027 10.2341 44.5089 9.89415C44.2151 9.55416 43.7697 9.38757 43.1726 9.38757C42.6545 9.38757 42.2312 9.52696 41.9026 9.80575C41.5741 10.0845 41.4066 10.4381 41.4066 10.8665H39.1352C39.1352 10.2715 39.3185 9.71056 39.6849 9.19378C40.0514 8.6736 40.5537 8.26902 41.1855 7.97323C41.8173 7.67744 42.5218 7.53125 43.3021 7.53125C44.4868 7.53125 45.4282 7.85084 46.1327 8.49001C46.8372 9.12918 47.1973 10.0301 47.2163 11.1895V16.0955C47.2163 17.0746 47.3426 17.8532 47.5985 18.438V18.608H45.286ZM42.7935 16.8468C43.2421 16.8468 43.6622 16.7313 44.0603 16.4933C44.4552 16.2587 44.7521 15.9425 44.9512 15.5481V13.498H43.7286C42.8883 13.498 42.2564 13.6544 41.8331 13.9706C41.4098 14.2868 41.1981 14.7321 41.1981 15.3067C41.1981 15.7759 41.3435 16.1499 41.6341 16.4287C41.9184 16.7075 42.307 16.8468 42.7935 16.8468Z" fill="#ABABAB"/>
<path d="M52.5267 15.111L54.5801 7.72996H57L52.9816 20.255C52.3656 22.0841 51.3199 22.9987 49.8415 22.9987C49.5129 22.9987 49.1465 22.9375 48.7484 22.8151V20.9146L49.178 20.9452C49.7498 20.9452 50.1826 20.833 50.4701 20.6086C50.7608 20.3842 50.9882 20.0068 51.1557 19.4798L51.4842 18.5449L47.9333 7.72656H50.3817L52.5267 15.111Z" fill="#ABABAB"/>
<path d="M6.37194 8.12225V11.3113L10.3082 13.9768L19.6845 6.53111C19.3401 5.74575 18.9326 5.00118 18.4461 4.32461L10.2861 10.7639L6.37194 8.12225ZM20.4332 9.1048L18.2218 10.8727V11.0903C18.2218 13.4532 17.3246 15.5815 15.8841 17.1149L15.8683 17.0979C14.4467 18.6686 12.4785 19.6103 10.2893 19.6103C10.204 19.6103 10.1218 19.6069 10.0365 19.6035C9.98598 19.6001 9.93543 19.5967 9.88173 19.5899V19.6001C7.85673 19.4879 6.03392 18.5564 4.69761 17.1081L4.70709 17.0979C3.26653 15.5679 2.3725 13.4498 2.3725 11.0937C2.3725 11.0019 2.38514 10.6551 2.38514 10.6551C2.48939 8.49283 3.35814 6.52092 4.70077 5.07938L4.70709 5.08618C6.12869 3.53585 8.11578 2.57369 10.2861 2.57369C10.4283 2.57369 10.6936 2.57709 10.6936 2.57709C12.2005 2.67568 13.5969 3.19926 14.7499 4.06282L16.7591 2.46829C14.9963 0.938359 12.7439 0 10.2861 0C7.63875 0.0067997 5.22202 1.11175 3.39605 2.88987L3.38658 2.87967C1.31103 4.89919 0.0189547 7.79926 0 11.0257C0 11.0393 0 11.1209 0 11.1345C0.0157956 13.9666 1.02355 16.5539 2.66946 18.5088L2.65682 18.519C4.53018 20.7527 7.22491 22.1466 10.2261 22.1636C10.2387 22.1636 10.2545 22.167 10.2671 22.167C10.2703 22.167 10.2735 22.167 10.2766 22.167C10.2798 22.167 10.2829 22.167 10.2861 22.167C12.9398 22.1602 15.3628 21.0689 17.1888 19.284L17.2046 19.3044C19.2738 17.295 20.5943 14.3474 20.5943 11.0937C20.5943 10.4137 20.5343 9.75757 20.4332 9.1048Z" fill="#ABABAB"/>
</svg>
