<svg width="96" height="18" viewBox="0 0 96 18" fill="none" xmlns="http://www.w3.org/2000/svg">
<path d="M83.0249 4.83567C82.1369 4.83567 81.1661 5.1561 80.3813 5.989C79.6585 6.75782 79.287 7.71861 79.287 8.82914C79.287 9.34169 79.3901 9.83267 79.5758 10.3241C79.7619 10.8155 80.0303 11.2426 80.3607 11.6055C80.7118 11.9901 81.1248 12.2888 81.5587 12.481C82.0129 12.6732 82.4257 12.7801 82.9628 12.7801C83.355 12.7801 83.7269 12.7159 84.0987 12.5878C84.4498 12.481 84.9454 12.1823 85.1313 11.862V12.6307H86.7419V5.00627H85.1107V5.77543C84.8837 5.39102 84.4498 5.13441 84.0987 5.00627C83.7476 4.89949 83.3967 4.83567 83.0249 4.83567ZM74.5988 4.85694C74.227 4.85694 73.8757 4.89982 73.5246 5.02796C73.1735 5.1561 72.7404 5.41229 72.513 5.7967V5.02796H70.8814V15.5143H72.492V11.8837C72.6779 12.204 73.1735 12.4813 73.5246 12.6095C73.8757 12.7378 74.2681 12.8013 74.6605 12.8013C75.1974 12.8013 75.6106 12.6949 76.065 12.5027C76.4989 12.3107 76.9121 12.0114 77.2629 11.6267C77.5936 11.2639 77.862 10.8368 78.0479 10.3454C78.2335 9.87551 78.3367 9.36296 78.3367 8.85041C78.3367 7.73988 77.9648 6.7791 77.242 6.01027C76.4572 5.17737 75.5072 4.85694 74.5988 4.85694ZM87.7337 5.02796L90.8727 12.1823L89.5097 15.4926H91.203L95.4782 5.02796H93.764L91.6782 10.4096L89.4476 5.02796H87.7337ZM83.0871 6.30934C83.6651 6.30934 84.1815 6.50155 84.6154 6.95003C85.0489 7.41987 85.214 8.10327 85.214 8.76532C85.214 9.49144 85.0698 10.1748 84.6359 10.6444C84.2023 11.1141 83.6856 11.2851 83.0661 11.2851C82.4465 11.2851 81.9509 11.0289 81.5587 10.6232C81.1248 10.1531 80.9182 9.53403 80.9182 8.85041C80.9182 8.12429 81.1248 7.46242 81.5587 6.99258C81.9305 6.5868 82.4466 6.33091 83.0871 6.30934ZM74.537 6.33061C75.1566 6.33061 75.6934 6.58672 76.0654 7.01385C76.4993 7.48369 76.7059 8.12463 76.7059 8.8721C76.7059 9.5555 76.4993 10.1748 76.0654 10.6444C75.6936 11.0504 75.1776 11.3064 74.558 11.3064C73.9385 11.3064 73.4218 11.1358 72.9881 10.6657C72.5751 10.1961 72.4097 9.49114 72.4097 8.78659C72.4097 8.10319 72.575 7.44114 73.0087 6.9713C73.4218 6.52282 73.9381 6.33061 74.537 6.33061Z" fill="#424242"/>
<path d="M26.459 5.86094C25.3438 5.86094 24.4352 6.24561 24.27 7.29207C24.2287 7.5697 24.2286 7.82589 24.2906 8.16759C24.5384 9.51262 26.7688 9.87577 27.0786 10.7087C27.1406 10.8579 27.1198 11.0716 27.0992 11.1783C27.0372 11.3919 26.9133 11.6055 26.4796 11.6055C26.0872 11.6055 25.86 11.3705 25.86 11.029V10.4096H24.1873V10.901C24.1873 12.3534 25.2819 12.7805 26.459 12.7805C27.5949 12.7805 28.5245 12.3746 28.669 11.3068C28.7516 10.7515 28.6897 10.3887 28.669 10.239C28.4006 8.89376 26.0253 8.48781 25.86 7.71919C25.8394 7.59106 25.8394 7.463 25.86 7.37758C25.9013 7.16401 26.0461 6.95045 26.4385 6.95045C26.8102 6.95045 27.0169 7.1852 27.0169 7.5269V7.93276H28.5658V7.48436C28.5658 6.07484 27.3471 5.86094 26.459 5.86094ZM65.6567 5.90349C64.5413 5.90349 63.6118 6.2879 63.4673 7.50521C63.4673 7.612 63.4467 7.82556 63.4467 7.93234V10.6444C63.4467 10.7726 63.4466 10.858 63.4673 11.0716C63.5705 12.2462 64.5619 12.6733 65.6567 12.6733C66.7717 12.6733 67.763 12.2462 67.8663 11.0716C67.8872 10.858 67.8869 10.7726 67.8869 10.6444V8.91465H65.6773V9.85441H66.3174V10.7938C66.3174 10.858 66.3175 10.9647 66.2968 11.029C66.2553 11.1996 66.1108 11.4987 65.6567 11.4987C65.2024 11.4987 65.0371 11.2211 65.0371 11.0073C65.0163 10.9435 65.0162 10.8579 65.0162 10.7725V7.82556C65.0162 7.71878 65.0163 7.61191 65.0371 7.52649C65.0782 7.37699 65.2024 7.05681 65.6567 7.05681C66.1317 7.05681 66.2554 7.37699 66.2763 7.52649C66.2969 7.63327 66.2968 7.78259 66.2968 7.78259V8.1459H67.8663V7.93234C67.8663 7.93234 67.8664 7.69742 67.8457 7.50521C67.7425 6.2879 66.7717 5.90349 65.6567 5.90349ZM46.8017 5.94645C45.7071 5.94645 44.7984 6.30942 44.6332 7.35589C44.5919 7.63352 44.5712 7.88979 44.6538 8.21014C44.8807 9.51266 47.0699 9.87577 47.3797 10.7087C47.4416 10.8579 47.4209 11.0504 47.4002 11.1783C47.3589 11.3919 47.2143 11.6055 46.8013 11.6055C46.4089 11.6055 46.1817 11.3705 46.1817 11.029V10.4096H44.5295V10.901C44.5295 12.332 45.6242 12.7588 46.7807 12.7588C47.8959 12.7588 48.8251 12.3742 48.9697 11.3064C49.0523 10.7511 48.9906 10.3886 48.9697 10.2603C48.7012 8.91503 46.3677 8.53049 46.2027 7.78301C46.1614 7.65487 46.182 7.52682 46.2027 7.44139C46.244 7.22783 46.3884 7.01427 46.7601 7.01427C47.1318 7.01427 47.3385 7.24902 47.3385 7.59072V7.99658H48.8874V7.54818C48.8874 6.16001 47.669 5.94645 46.8017 5.94645ZM30.8786 6.09578L29.7222 12.5452H31.3949L32.2622 6.67223H32.2831L33.1298 12.5452H34.8025L33.6461 6.09578H30.8786ZM36.1861 6.09578L36.0416 12.5452H37.6111L37.6527 6.73647H37.6938L38.7264 12.5452H40.3165L41.3491 6.73647H41.3906L41.4317 12.5452H43.0012L42.8568 6.09578H40.3165L39.5319 11.029H39.5113L38.747 6.09578H36.1861ZM50.4359 6.09578V10.7299C50.4359 10.8581 50.4565 11.0928 50.4565 11.1571C50.5598 12.3742 51.4684 12.7588 52.625 12.7588C53.7817 12.7588 54.7111 12.353 54.8144 11.1571C54.8144 11.0928 54.835 10.8581 54.835 10.7299V6.09578H53.2449V10.8367C53.2449 10.9221 53.2445 11.029 53.2239 11.0928C53.2033 11.2639 53.0593 11.5629 52.6254 11.5629C52.1917 11.5629 52.0674 11.2639 52.0465 11.1358C52.0259 11.0504 52.026 10.9647 52.026 10.8793V6.09578H50.4359ZM56.5698 6.09578V12.481H58.0981L58.0155 7.22741H58.0566L59.5849 12.481H61.8155V6.09578H60.2666L60.3489 11.1571H60.3283L58.8827 6.09578H56.5698Z" fill="#424242"/>
<path d="M17.269 6.30913C17.0625 4.64334 16.4842 3.12704 15.4723 2.01651C14.3984 0.970045 12.9321 0.372068 11.3212 0.158504C9.7723 -0.0550593 8.71905 0.00900971 8.71905 0.00900971C8.71905 0.00900971 7.6658 -0.033703 6.1169 0.158504C4.50605 0.372068 3.03975 0.970045 1.96585 2.01651C0.953902 3.12704 0.375646 4.64334 0.169126 6.30913C-0.0373936 7.91086 0.00391044 9.00003 0.00391044 9.00003C0.00391044 9.00003 -0.0373936 10.0892 0.148474 11.6909C0.354994 13.3565 0.93325 14.873 1.9452 15.9836C3.0191 17.03 4.48539 17.6278 6.09625 17.8414C7.64515 18.0549 8.6984 17.9911 8.6984 17.9911C8.6984 17.9911 9.75165 18.0336 11.3006 17.8414C12.9114 17.6278 14.3777 17.03 15.4516 15.9836C16.4636 14.8732 17.0418 13.3565 17.2483 11.6909C17.4548 10.0892 17.3929 9.00003 17.3929 9.00003C17.3929 9.00003 17.4755 7.91086 17.269 6.30913Z" fill="#424242"/>
<path d="M3.22554 6.37316V11.0928H4.07219V9.74763H4.77444C5.02226 9.74763 5.24968 9.70458 5.43555 9.61916C5.62141 9.53416 5.80728 9.40555 5.95185 9.25626C6.09641 9.10698 6.22016 8.93592 6.30277 8.72236C6.38538 8.50879 6.4266 8.29531 6.4266 8.06039C6.4266 7.82547 6.38538 7.61199 6.30277 7.39843C6.22016 7.18487 6.09641 7.01402 5.95185 6.86452C5.80728 6.71503 5.64207 6.58664 5.43555 6.50121C5.22903 6.41579 5.02226 6.37316 4.77444 6.37316L3.22554 6.37316ZM4.05162 7.16359H4.71273C4.83664 7.16359 4.96039 7.18512 5.06365 7.22783C5.16691 7.27054 5.24968 7.33428 5.33229 7.4197C5.39424 7.50513 5.45596 7.59072 5.49726 7.6975C5.53857 7.80429 5.55938 7.91098 5.55938 8.03912C5.55938 8.16726 5.53857 8.27396 5.49726 8.38074C5.45596 8.48752 5.41489 8.57311 5.33229 8.65854C5.24968 8.74397 5.16691 8.80812 5.06365 8.85083C4.96039 8.89354 4.83664 8.91465 4.71273 8.91465H4.05162V7.16359ZM8.38854 7.29165C8.14072 7.29165 7.93444 7.33428 7.70727 7.4197C7.50075 7.50513 7.29406 7.61174 7.12885 7.78259C6.96363 7.95344 6.81907 8.14582 6.71581 8.38074C6.61255 8.61566 6.57141 8.89346 6.57141 9.19245C6.57141 9.49144 6.63312 9.76882 6.73638 10.0037C6.83964 10.2387 6.9842 10.4308 7.14942 10.6019C7.31464 10.7512 7.52132 10.8793 7.72784 10.9648C7.95501 11.0504 8.16137 11.0928 8.38854 11.0928C8.63636 11.0928 8.84313 11.0506 9.04965 10.9648C9.25617 10.858 9.44203 10.73 9.56594 10.5589V11.0928H10.4126V7.29165H9.56594V7.78259C9.42138 7.6331 9.25617 7.50513 9.04965 7.4197C8.86378 7.33428 8.63636 7.29165 8.38854 7.29165ZM10.7018 7.31292L12.1886 10.9222L11.4246 12.823H12.2918L14.4603 7.31292H13.5721L12.6222 9.89695L11.5896 7.31292H10.7018ZM8.53335 8.10336C8.67791 8.10336 8.82239 8.12471 8.96696 8.21014C9.11152 8.27421 9.21462 8.33819 9.31788 8.44497C9.42114 8.5304 9.48302 8.65845 9.54497 8.78659C9.60693 8.91452 9.62766 9.06401 9.62766 9.21372C9.62766 9.363 9.60693 9.51228 9.54497 9.64085C9.48302 9.76898 9.42114 9.87568 9.31788 9.98246C9.21462 10.0892 9.09087 10.1536 8.96696 10.2177C8.84305 10.2818 8.69856 10.3028 8.53335 10.3028C8.36813 10.3028 8.22324 10.2602 8.09933 10.2177C7.97542 10.1534 7.85167 10.0892 7.74841 9.98246C7.6658 9.87568 7.58327 9.74814 7.52132 9.61957C7.45936 9.49143 7.43863 9.34194 7.43863 9.19245C7.43863 9.04295 7.45936 8.89346 7.52132 8.76532C7.56262 8.63718 7.64515 8.53048 7.74841 8.4237C7.85167 8.31692 7.95477 8.25293 8.09933 8.18886C8.2439 8.12479 8.38878 8.10336 8.53335 8.10336Z" fill="black"/>
</svg>
