<svg width="40" height="19" viewBox="0 0 40 19" fill="none" xmlns="http://www.w3.org/2000/svg">
<path d="M11.9574 4.89779C11.8054 5.03848 11.6509 5.17789 11.5001 5.32116C10.9671 5.82843 10.5669 6.41895 10.4257 7.15404C10.2301 8.1731 10.4386 9.10761 11.0524 9.94531C11.3597 10.3642 11.7259 10.712 12.2134 10.9121C12.2705 10.9353 12.3282 10.956 12.3981 10.9831C12.3346 11.1567 12.2782 11.3277 12.2102 11.4942C11.8131 12.4623 11.2962 13.3581 10.5919 14.1351C10.461 14.2797 10.3129 14.4107 10.1608 14.5346C9.64579 14.9535 9.06915 15.1155 8.4194 14.9244C8.09484 14.8296 7.77414 14.7224 7.4515 14.6217C7.11861 14.5185 6.78187 14.4352 6.43101 14.4268C5.99677 14.4165 5.5946 14.5475 5.19372 14.696C4.88905 14.8089 4.58245 14.9264 4.26751 15.0012C3.7717 15.12 3.32335 14.9657 2.9122 14.6863C2.49721 14.4036 2.16944 14.0332 1.88465 13.6246C1.17268 12.6011 0.630045 11.4942 0.29715 10.2874C0.00145748 9.2141 -0.0819266 8.12469 0.0848415 7.02174C0.231726 6.04915 0.592202 5.17143 1.27274 4.44603C1.97766 3.6948 2.8455 3.38567 3.86278 3.48764C4.3695 3.53798 4.85313 3.68577 5.33868 3.82775C5.54137 3.88713 5.7479 3.93166 5.95187 3.98393C6.24436 4.0588 6.533 4.02459 6.81586 3.94134C7.21418 3.82388 7.60865 3.69029 8.00697 3.57089C8.599 3.39406 9.2 3.34307 9.81063 3.46247C10.6009 3.61671 11.2256 4.0446 11.7483 4.64222C11.8138 4.71709 11.8779 4.79324 11.9427 4.86939C11.9485 4.87649 11.9517 4.88553 11.9574 4.89779Z" fill="#424242"/>
<path d="M8.9864 0C8.99474 0.174898 9.01911 0.33947 9.00757 0.501461C8.94599 1.38628 8.60091 2.14718 7.99349 2.7874C7.7196 3.07653 7.41686 3.33081 7.04291 3.47925C6.72477 3.60574 6.3861 3.63285 6.04872 3.65802C6.04359 3.65866 6.03781 3.65285 6.03268 3.64963C6.08015 1.67476 7.07113 0.396909 8.9864 0Z" fill="#424242"/>
<path d="M16.178 2.34854C16.9618 2.21688 17.988 2.10459 19.294 2.10459C20.8988 2.10459 22.0739 2.4802 22.8205 3.15591C23.5106 3.75676 23.9211 4.67643 23.9211 5.80262C23.9211 6.94752 23.585 7.84912 22.9507 8.50611C22.0925 9.42578 20.6929 9.89497 19.1073 9.89497C18.6224 9.89497 18.1747 9.87626 17.8014 9.78203V14.8509H16.178V2.34854ZM17.8007 8.44932C18.1554 8.54355 18.6032 8.58098 19.1439 8.58098C21.1028 8.58098 22.2971 7.62388 22.2971 5.87748C22.2971 4.20659 21.1214 3.39922 19.3305 3.39922C18.6218 3.39922 18.0804 3.45537 17.8007 3.53088V8.44932Z" fill="#424242"/>
<path d="M29.7779 14.8515L29.6471 13.7066H29.5913C29.0877 14.4197 28.1173 15.058 26.83 15.058C25.0013 15.058 24.0687 13.7627 24.0687 12.4487C24.0687 10.2525 26.0089 9.05082 29.4983 9.06953V8.88173C29.4983 8.1305 29.293 6.77908 27.4457 6.77908C26.6061 6.77908 25.7293 7.04175 25.0949 7.45479L24.7216 6.36603C25.4682 5.87813 26.5503 5.55866 27.6882 5.55866C30.4495 5.55866 31.121 7.45479 31.121 9.27605V12.674C31.121 13.4626 31.1582 14.2319 31.2705 14.8515H29.7779ZM29.5355 10.2144C27.744 10.177 25.7107 10.4958 25.7107 12.2609C25.7107 13.331 26.4195 13.8382 27.2591 13.8382C28.4348 13.8382 29.1807 13.087 29.4418 12.3177C29.4976 12.1486 29.5355 11.9608 29.5355 11.7924V10.2144Z" fill="#424242"/>
<path d="M33.3019 5.76518L35.2793 11.1341C35.4846 11.735 35.7084 12.4481 35.8579 12.9928H35.8951C36.0631 12.4481 36.2498 11.7537 36.4737 11.0967L38.2651 5.76518H40.0002L37.5371 12.2422C36.3614 15.3588 35.5596 16.9541 34.4397 17.9306C33.6373 18.6437 32.8355 18.9258 32.425 19.0006L32.0145 17.6111C32.425 17.4795 32.9664 17.2168 33.4513 16.8038C33.899 16.4469 34.459 15.8086 34.8323 14.9638C34.9067 14.7947 34.9625 14.6637 34.9625 14.5695C34.9625 14.4752 34.9253 14.3442 34.8509 14.1377L31.511 5.76518H33.3019Z" fill="#424242"/>
</svg>
