<svg width="47" height="18" viewBox="0 0 47 18" fill="none" xmlns="http://www.w3.org/2000/svg">
<g clip-path="url(#clip0_2_358)">
<path d="M25.0253 10.313V14.5622H23.1064V3.10498H27.3315C28.5654 3.10498 29.5454 3.43757 30.2713 4.10542C30.9973 4.77327 31.359 5.65398 31.359 6.75287C31.359 7.87571 31.0024 8.7511 30.2919 9.37638C29.5813 10.0017 28.5859 10.313 27.3058 10.313H25.0253ZM25.0253 8.70853H27.3315C28.0139 8.70853 28.5346 8.5409 28.8938 8.20831C29.2529 7.87571 29.4325 7.39411 29.4325 6.76352C29.4325 6.14356 29.2503 5.65132 28.8861 5.28148C28.5218 4.91163 28.0216 4.72272 27.3854 4.71208H25.0253V8.70853Z" fill="#2F2F2F"/>
<path d="M37.431 14.5623C37.349 14.4 37.2797 14.1339 37.2181 13.7667C36.6307 14.4 35.9124 14.7193 35.0633 14.7193C34.2398 14.7193 33.5677 14.4745 33.0444 13.9876C32.5236 13.5007 32.262 12.8967 32.262 12.1783C32.262 11.2709 32.5878 10.5738 33.2368 10.0896C33.8858 9.60531 34.817 9.36052 36.0253 9.36052H37.1566V8.80176C37.1566 8.36007 37.0386 8.00885 36.8 7.74278C36.5614 7.4767 36.1997 7.34633 35.7149 7.34633C35.2941 7.34633 34.9504 7.45542 34.6836 7.6736C34.4168 7.89178 34.2809 8.1685 34.2809 8.50375H32.4364C32.4364 8.03812 32.5852 7.5991 32.8828 7.19466C33.1803 6.78757 33.5882 6.47094 34.1013 6.23945C34.6143 6.00797 35.1864 5.89355 35.82 5.89355C36.782 5.89355 37.5465 6.14367 38.1185 6.64389C38.6906 7.14411 38.9831 7.84921 38.9984 8.75653V12.596C38.9984 13.3623 39.1011 13.9716 39.3088 14.4293V14.5623H37.431ZM35.407 13.184C35.7713 13.184 36.1125 13.0936 36.4357 12.9073C36.7564 12.7237 36.9975 12.4763 37.1591 12.1676V10.5632H36.1663C35.484 10.5632 34.9709 10.6856 34.6272 10.933C34.2834 11.1805 34.1115 11.529 34.1115 11.9787C34.1115 12.3459 34.2295 12.6386 34.4656 12.8567C34.6964 13.0749 35.012 13.184 35.407 13.184Z" fill="#2F2F2F"/>
<path d="M43.3108 11.8241L44.9782 6.04758H46.9432L43.6802 15.8498C43.1799 17.2813 42.3308 17.997 41.1303 17.997C40.8635 17.997 40.5659 17.9491 40.2427 17.8533V16.366L40.5915 16.3899C41.0559 16.3899 41.4073 16.3021 41.6407 16.1265C41.8768 15.9509 42.0615 15.6556 42.1974 15.2431L42.4642 14.5114L39.5808 6.04492H41.5689L43.3108 11.8241Z" fill="#2F2F2F"/>
<path d="M5.83168 6.35654V8.85233L9.02805 10.9384L16.6419 5.11131C16.3622 4.49667 16.0313 3.91397 15.6363 3.38448L9.01009 8.42395L5.83168 6.35654ZM17.2498 7.1255L15.4541 8.50909V8.67938C15.4541 10.5286 14.7256 12.1942 13.5558 13.3942L13.543 13.3809C12.3886 14.6102 10.7904 15.3472 9.01266 15.3472C8.94339 15.3472 8.87669 15.3446 8.80743 15.3419C8.76639 15.3392 8.72534 15.3366 8.68173 15.3313V15.3392C7.03737 15.2514 5.5572 14.5224 4.47207 13.3889L4.47977 13.3809C3.30999 12.1836 2.58401 10.5259 2.58401 8.68204C2.58401 8.6102 2.59427 8.3388 2.59427 8.3388C2.67893 6.64656 3.38439 5.10332 4.47464 3.97517L4.47977 3.98049C5.63415 2.76718 7.24773 2.01419 9.01009 2.01419C9.12553 2.01419 9.34101 2.01685 9.34101 2.01685C10.5647 2.09401 11.6985 2.50377 12.6349 3.1796L14.2664 1.93171C12.835 0.734368 11.0059 0 9.01009 0C6.86037 0.00532151 4.89791 0.870066 3.41517 2.26164L3.40747 2.25366C1.72207 3.83415 0.672863 6.10377 0.657471 8.62882C0.657471 8.63947 0.657471 8.70332 0.657471 8.71397C0.670297 10.9304 1.48863 12.9552 2.82515 14.4851L2.81489 14.4931C4.33611 16.2412 6.52431 17.3321 8.96135 17.3455C8.97161 17.3455 8.98444 17.3481 8.9947 17.3481C8.99726 17.3481 8.99983 17.3481 9.00239 17.3481C9.00496 17.3481 9.00753 17.3481 9.01009 17.3481C11.1649 17.3428 13.1325 16.4887 14.6153 15.0918L14.6281 15.1078C16.3084 13.5353 17.3807 11.2284 17.3807 8.68204C17.3807 8.14989 17.3319 7.63636 17.2498 7.1255Z" fill="#2F2F2F"/>
</g>
<defs>
<clipPath id="clip0_2_358">
<rect width="46.2857" height="18" fill="white" transform="translate(0.657471)"/>
</clipPath>
</defs>
</svg>
