<svg width="74" height="18" viewBox="0 0 74 18" fill="none" xmlns="http://www.w3.org/2000/svg">
<path fill-rule="evenodd" clip-rule="evenodd" d="M6.45717 4.23682H11.5138C14.2288 4.23682 15.2508 5.61679 15.0929 7.64679C14.8331 10.9939 12.8165 12.8456 10.1433 12.8456H8.79361C8.42683 12.8456 8.18013 13.0894 8.08093 13.7499L7.50139 17.5871C7.46354 17.8361 7.33301 17.9829 7.13722 17.9999H3.9667C3.6678 17.9999 3.56207 17.7706 3.64039 17.2739L5.57741 4.96416C5.65443 4.4714 5.92201 4.23682 6.45717 4.23682Z" fill="#626262"/>
<path fill-rule="evenodd" clip-rule="evenodd" d="M28.4107 4.00888C30.1167 4.00888 31.6908 4.93804 31.4755 7.25373C31.2196 9.99927 29.746 11.5286 27.4278 11.5352H25.4059C25.1148 11.5352 24.9739 11.7737 24.8982 12.2625L24.5079 14.7617C24.4492 15.1391 24.256 15.3252 23.9714 15.3252H22.0879C21.7877 15.3252 21.6833 15.1326 21.7498 14.7014L23.307 4.6838C23.3841 4.19104 23.5707 4.00757 23.9036 4.00757H28.4107V4.00888ZM25.342 9.37153H26.8757C27.835 9.33483 28.472 8.66778 28.536 7.46472C28.5751 6.72166 28.0752 6.18958 27.2803 6.19352L25.8354 6.20007L25.342 9.37153ZM36.5948 14.5586C36.767 14.4013 36.942 14.3201 36.9172 14.514L36.8558 14.9779C36.8245 15.2204 36.9198 15.3488 37.1443 15.3488H38.8176C39.0996 15.3488 39.2366 15.2348 39.3058 14.7971L40.337 8.29952C40.3892 7.9732 40.3096 7.81332 40.0629 7.81332H38.2237C38.058 7.81332 37.977 7.90637 37.934 8.16061L37.8661 8.56032C37.8308 8.76869 37.7356 8.80538 37.6468 8.5957C37.3348 7.85394 36.5386 7.52107 35.4213 7.54335C32.8408 7.59708 31.1008 9.56417 30.9142 12.0856C30.7706 14.0357 32.162 15.5677 33.9973 15.5677C35.3286 15.5677 35.9251 15.1693 36.5948 14.5586ZM35.1955 13.5599C34.0847 13.5599 33.3107 12.6701 33.4712 11.5798C33.6331 10.4894 34.6708 9.59956 35.7816 9.59956C36.8924 9.59956 37.6664 10.4894 37.5058 11.5798C37.344 12.6714 36.3063 13.5599 35.1955 13.5599ZM43.6145 7.79235H41.9242C41.5744 7.79235 41.4321 8.04921 41.5431 8.37684L43.6498 14.5704L41.5744 17.5164C41.4008 17.7628 41.5352 17.9869 41.7793 17.9869H43.6863C43.9709 17.9869 44.1092 17.9135 44.2528 17.7077L50.7322 8.37684C50.9319 8.08984 50.8379 7.78842 50.5103 7.78842L48.7064 7.78711C48.3971 7.78711 48.2731 7.9103 48.0955 8.16847L45.3936 12.1053L44.1915 8.16192C44.1158 7.91816 43.9395 7.79235 43.6145 7.79235Z" fill="#424242"/>
<path fill-rule="evenodd" clip-rule="evenodd" d="M57.4739 4.00888C59.1799 4.00888 60.7541 4.93804 60.5387 7.25373C60.2829 9.99927 58.8092 11.5286 56.491 11.5352H54.4692C54.1781 11.5352 54.0371 11.7737 53.9614 12.2625L53.5711 14.7617C53.5124 15.1391 53.3192 15.3252 53.0347 15.3252H51.1511C50.8509 15.3252 50.7465 15.1326 50.8131 14.7014L52.3703 4.6838C52.4473 4.19104 52.6339 4.00757 52.9668 4.00757H57.4739V4.00888ZM54.4065 9.37153H55.9402C56.8996 9.33483 57.5366 8.66778 57.6018 7.46472C57.641 6.72166 57.1411 6.18958 56.3461 6.19352L54.9012 6.20007L54.4065 9.37153ZM65.6593 14.5586C65.8316 14.4013 66.0065 14.3201 65.9817 14.514L65.9203 14.9779C65.889 15.2204 65.9843 15.3488 66.2088 15.3488H67.8822C68.1641 15.3488 68.3012 15.2348 68.3703 14.7971L69.4015 8.29952C69.4537 7.9732 69.3741 7.81332 69.1274 7.81332H67.2883C67.1225 7.81332 67.0416 7.90637 66.9985 8.16061L66.9306 8.56032C66.8954 8.76869 66.8001 8.80538 66.7113 8.5957C66.3994 7.85394 65.6032 7.52107 64.4858 7.54335C61.9053 7.59708 60.1654 9.56417 59.9787 12.0856C59.8351 14.0357 61.2266 15.5677 63.0618 15.5677C64.3932 15.5677 64.9884 15.1693 65.6593 14.5586ZM64.2587 13.5599C63.1479 13.5599 62.3739 12.6701 62.5345 11.5798C62.6963 10.4894 63.734 9.59956 64.8448 9.59956C65.9556 9.59956 66.7296 10.4894 66.5691 11.5798C66.4085 12.6714 65.3695 13.5599 64.2587 13.5599ZM71.9768 15.3606H70.045C69.891 15.3606 69.7853 15.24 69.8088 15.0919L71.5069 4.2985C71.5304 4.15041 71.6753 4.02985 71.828 4.02985H73.7598C73.9139 4.02985 74.0196 4.15041 73.9961 4.2985L72.2979 15.0919C72.2757 15.24 72.1308 15.3606 71.9768 15.3606Z" fill="#626262"/>
<path fill-rule="evenodd" clip-rule="evenodd" d="M3.29454 0H8.3564C9.78176 0 11.4734 0.0458683 12.6038 1.04842C13.3595 1.71809 13.7563 2.78355 13.665 3.92763C13.3543 7.80808 11.0427 9.98224 7.94132 9.98224H5.44564C5.02012 9.98224 4.73948 10.2653 4.6194 11.0307L3.92238 15.4799C3.87669 15.7682 3.75269 15.9386 3.52557 15.9595H0.40727C0.0613717 15.9595 -0.0613242 15.6935 0.0287398 15.1182L2.27381 0.843975C2.36388 0.272588 2.67584 0 3.29454 0Z" fill="#424242"/>
<path fill-rule="evenodd" clip-rule="evenodd" d="M4.69244 10.5824L5.57612 4.96425C5.65313 4.47149 5.92201 4.2356 6.45718 4.2356H11.5138C12.3505 4.2356 13.0279 4.36665 13.5579 4.60909C13.0501 8.06363 10.8246 9.98223 7.91125 9.98223H5.41426C5.08533 9.98223 4.83994 10.1513 4.69244 10.5824Z" fill="#424242"/>
</svg>
