<svg width="50" height="14" viewBox="0 0 50 14" fill="none" xmlns="http://www.w3.org/2000/svg">
<path d="M27.714 1.47936L24.5703 8.27225H24.2509V0H19.784V13.9983H23.5753C24.5703 13.9983 25.4745 13.4222 25.8934 12.5189L29.0389 5.72601H29.3583V13.9983H33.8252V0H30.0339C29.0372 0 28.1312 0.577822 27.714 1.47936Z" fill="#2F2F2F"/>
<path d="M10.9551 1.83963L9.0943 8.27225H8.77487L6.91411 1.83963C6.59817 0.750124 5.59797 0 4.46162 0H0V14H4.46686V5.72601H4.78629L7.33828 13.9983H10.5291L13.0829 5.72601H13.4023V13.9983H17.8692V0H13.4076C12.2712 0 11.271 0.750124 10.9551 1.83963Z" fill="#2F2F2F"/>
<path d="M35.7383 6.36306V13.9983H40.1965V9.54456H44.9915C47.0739 9.54456 48.8422 8.21488 49.5002 6.36306H35.7383Z" fill="#2F2F2F"/>
<path d="M44.9915 0H35.0995C35.6999 3.25808 38.5591 5.72601 41.9996 5.72601H49.6818C49.7446 5.41795 49.7778 5.09771 49.7778 4.77051C49.7778 2.13724 47.6342 0 44.9915 0Z" fill="#2F2F2F"/>
</svg>
