<svg width="29" height="22" viewBox="0 0 29 22" fill="none" xmlns="http://www.w3.org/2000/svg">
<path d="M5.19891 21.7V20.255C5.19891 19.7107 4.84578 19.3446 4.27684 19.3398C3.97766 19.3349 3.66866 19.4265 3.45286 19.7492C3.29101 19.4939 3.03597 19.3398 2.67793 19.3398C2.42779 19.3398 2.18256 19.412 1.99128 19.6818V19.3976H1.4812V21.7H1.99619V20.4236C1.99619 20.0238 2.2218 19.8118 2.57003 19.8118C2.90845 19.8118 3.08011 20.0286 3.08011 20.4187V21.7H3.5951V20.4236C3.5951 20.0238 3.83052 19.8118 4.16894 19.8118C4.51717 19.8118 4.68392 20.0286 4.68392 20.4187V21.7H5.19891ZM12.8183 19.3976H11.9845V18.6991H11.4695V19.3976H10.9937V19.8552H11.4695V20.9052C11.4695 21.4399 11.6804 21.7578 12.2836 21.7578C12.5044 21.7578 12.7594 21.6904 12.9213 21.5796L12.7741 21.1509C12.6221 21.2376 12.4553 21.281 12.3229 21.281C12.0678 21.281 11.9845 21.1268 11.9845 20.8956V19.8552H12.8183V19.3976ZM17.1687 19.3398C16.8744 19.3398 16.6831 19.4746 16.5507 19.6769V19.3976H16.0455V21.7H16.5556V20.4091C16.5556 20.0286 16.7223 19.8166 17.0559 19.8166C17.1589 19.8166 17.2668 19.8311 17.3747 19.8744L17.5316 19.4024C17.4188 19.359 17.2717 19.3398 17.1687 19.3398ZM10.5916 19.5806C10.3463 19.4216 10.0079 19.3398 9.63515 19.3398C9.04169 19.3398 8.65913 19.6191 8.65913 20.0767C8.65913 20.4525 8.9436 20.6837 9.46839 20.7559L9.70872 20.7896C9.98828 20.8282 10.1207 20.9004 10.1207 21.0305C10.1207 21.2087 9.93433 21.3099 9.5861 21.3099C9.23297 21.3099 8.97793 21.1991 8.80627 21.069L8.56594 21.4592C8.8455 21.6615 9.19864 21.7578 9.5812 21.7578C10.258 21.7578 10.6504 21.4447 10.6504 21.0064C10.6504 20.6018 10.3414 20.3898 9.83134 20.3176L9.59101 20.2839C9.3703 20.255 9.19373 20.2116 9.19373 20.0575C9.19373 19.8889 9.36049 19.7877 9.64005 19.7877C9.93924 19.7877 10.2286 19.8985 10.3708 19.9852L10.5916 19.5806ZM24.2534 19.3398C23.9591 19.3398 23.7678 19.4746 23.6354 19.6769V19.3976H23.1302V21.7H23.6403V20.4091C23.6403 20.0286 23.8071 19.8166 24.1406 19.8166C24.2436 19.8166 24.3515 19.8311 24.4594 19.8744L24.6163 19.4024C24.5035 19.359 24.3564 19.3398 24.2534 19.3398ZM17.6837 20.5488C17.6837 21.2472 18.179 21.7578 18.9343 21.7578C19.2875 21.7578 19.5229 21.6808 19.7779 21.4833L19.5327 21.0786C19.3414 21.2135 19.1403 21.2858 18.9196 21.2858C18.5125 21.281 18.2134 20.9919 18.2134 20.5488C18.2134 20.1056 18.5125 19.8166 18.9196 19.8118C19.1403 19.8118 19.3414 19.8841 19.5327 20.0189L19.7779 19.6143C19.5229 19.4168 19.2875 19.3398 18.9343 19.3398C18.179 19.3398 17.6837 19.8503 17.6837 20.5488ZM22.4608 20.5488V19.3976H21.9507V19.6769C21.7888 19.4698 21.5436 19.3398 21.2101 19.3398C20.5529 19.3398 20.0379 19.8455 20.0379 20.5488C20.0379 21.2521 20.5529 21.7578 21.2101 21.7578C21.5436 21.7578 21.7888 21.6278 21.9507 21.4206V21.7H22.4608V20.5488ZM20.5627 20.5488C20.5627 20.1442 20.8324 19.8118 21.2738 19.8118C21.6956 19.8118 21.9801 20.1297 21.9801 20.5488C21.9801 20.9679 21.6956 21.2858 21.2738 21.2858C20.8324 21.2858 20.5627 20.9534 20.5627 20.5488ZM14.4074 19.3398C13.7207 19.3398 13.2401 19.8311 13.2401 20.5488C13.2401 21.281 13.7403 21.7578 14.4417 21.7578C14.7948 21.7578 15.1185 21.6711 15.403 21.4351L15.1529 21.0642C14.9567 21.2183 14.7065 21.305 14.4711 21.305C14.1425 21.305 13.8433 21.1557 13.7698 20.7415H15.5109C15.5158 20.6788 15.5207 20.6162 15.5207 20.5488C15.5158 19.8311 15.0646 19.3398 14.4074 19.3398ZM14.3975 19.7877C14.7262 19.7877 14.9371 19.99 14.991 20.3465H13.7747C13.8286 20.0141 14.0346 19.7877 14.3975 19.7877ZM27.1913 20.5488V18.4727H26.6812V19.6769C26.5193 19.4698 26.2741 19.3398 25.9406 19.3398C25.2834 19.3398 24.7684 19.8455 24.7684 20.5488C24.7684 21.2521 25.2834 21.7578 25.9406 21.7578C26.2741 21.7578 26.5193 21.6278 26.6812 21.4206V21.7H27.1913V20.5488ZM25.2932 20.5488C25.2932 20.1442 25.5629 19.8118 26.0044 19.8118C26.4262 19.8118 26.7106 20.1297 26.7106 20.5488C26.7106 20.9679 26.4262 21.2858 26.0044 21.2858C25.5629 21.2858 25.2932 20.9534 25.2932 20.5488ZM8.07057 20.5488V19.3976H7.56049V19.6769C7.39864 19.4698 7.15341 19.3398 6.81989 19.3398C6.16267 19.3398 5.64768 19.8455 5.64768 20.5488C5.64768 21.2521 6.16267 21.7578 6.81989 21.7578C7.15341 21.7578 7.39864 21.6278 7.56049 21.4206V21.7H8.07057V20.5488ZM6.17248 20.5488C6.17248 20.1442 6.44223 19.8118 6.88365 19.8118C7.30545 19.8118 7.58992 20.1297 7.58992 20.5488C7.58992 20.9679 7.30545 21.2858 6.88365 21.2858C6.44223 21.2858 6.17248 20.9534 6.17248 20.5488ZM28.0422 21.3653C28.0741 21.3653 28.106 21.3701 28.1354 21.3821C28.1649 21.3942 28.1894 21.411 28.2114 21.4303C28.2335 21.452 28.2507 21.476 28.2629 21.5025C28.2752 21.529 28.2826 21.5603 28.2826 21.5916C28.2826 21.623 28.2752 21.6519 28.2629 21.6808C28.2507 21.7073 28.2335 21.7337 28.2114 21.753C28.1894 21.7747 28.1649 21.7891 28.1354 21.8012C28.106 21.8132 28.0766 21.8204 28.0422 21.8204C28.0079 21.8204 27.9785 21.8132 27.949 21.8012C27.9196 21.7891 27.8951 21.7723 27.873 21.753C27.851 21.7313 27.8338 21.7073 27.8215 21.6808C27.8093 21.6543 27.8019 21.623 27.8019 21.5916C27.8019 21.5603 27.8093 21.5314 27.8215 21.5025C27.8338 21.4736 27.851 21.4495 27.873 21.4303C27.8951 21.4086 27.9196 21.3942 27.949 21.3821C27.9785 21.3725 28.0079 21.3653 28.0422 21.3653ZM28.0422 21.7723C28.0668 21.7723 28.0913 21.7675 28.1133 21.7578C28.1354 21.7482 28.155 21.7361 28.1698 21.7193C28.1869 21.7024 28.1992 21.6832 28.209 21.6615C28.2188 21.6398 28.2237 21.6157 28.2237 21.5916C28.2237 21.5676 28.2188 21.5435 28.209 21.5218C28.1992 21.5001 28.1869 21.4809 28.1698 21.464C28.1526 21.4471 28.1354 21.4351 28.1133 21.4255C28.0913 21.4158 28.0692 21.411 28.0422 21.411C28.0177 21.411 27.9932 21.4158 27.9711 21.4255C27.949 21.4351 27.9294 21.4471 27.9123 21.464C27.8951 21.4809 27.8828 21.5001 27.873 21.5218C27.8632 21.5435 27.8583 21.5676 27.8583 21.5916C27.8583 21.6157 27.8632 21.6398 27.873 21.6615C27.8828 21.6832 27.8951 21.7024 27.9123 21.7193C27.9294 21.7361 27.949 21.7482 27.9711 21.7578C27.9932 21.7675 28.0177 21.7723 28.0422 21.7723ZM28.0569 21.4881C28.0839 21.4881 28.106 21.4953 28.1207 21.5073C28.1354 21.5194 28.1428 21.5362 28.1428 21.5579C28.1428 21.5748 28.1379 21.5892 28.1256 21.6013C28.1133 21.6133 28.0962 21.6205 28.0741 21.623L28.1452 21.7024H28.0888L28.0226 21.623H28.0005V21.7024H27.9539V21.4905H28.0569V21.4881ZM28.003 21.5266V21.5844H28.0569C28.0692 21.5844 28.079 21.582 28.0864 21.5772C28.0937 21.5724 28.0962 21.5652 28.0962 21.5555C28.0962 21.5459 28.0937 21.5387 28.0864 21.5338C28.079 21.529 28.0692 21.5266 28.0569 21.5266H28.003ZM27.7259 14.0412V13.7618H27.8411V13.704H27.5493V13.7618H27.6646V14.0412H27.7259ZM28.2924 14.0412V13.704H28.2041L28.1011 13.9352L27.9981 13.704H27.9098V14.0412H27.9736V13.7883L28.0692 14.0075H28.1354L28.2311 13.7883V14.0436H28.2924V14.0412ZM13.5025 15.7175C13.5711 15.7753 13.6447 15.8331 13.7158 15.8909C12.3155 16.8061 10.6357 17.3408 8.82834 17.3408C3.95313 17.3408 0 13.4584 0 8.67038C0 3.8824 3.95313 0 8.82834 0C10.6357 0 12.3155 0.534673 13.7158 1.44988C13.6447 1.50768 13.5711 1.56308 13.5025 1.62329C11.4229 3.40071 10.2286 5.97052 10.2286 8.67038C10.2311 11.3702 11.4229 13.94 13.5025 15.7175ZM19.7411 0C17.9338 0 16.254 0.534673 14.8537 1.44988C14.9248 1.50768 14.9984 1.56308 15.067 1.62329C17.1466 3.40071 18.3409 5.96811 18.3409 8.67038C18.3409 11.3726 17.149 13.94 15.0695 15.7175C15.0008 15.7753 14.9272 15.8331 14.8561 15.8909C16.2564 16.8061 17.9362 17.3408 19.7436 17.3408C24.6188 17.3408 28.5719 13.4584 28.5719 8.67038C28.5695 3.87999 24.6163 0 19.7411 0ZM14.2847 1.85691C14.1719 1.94361 14.0591 2.03513 13.9512 2.12906C12.0899 3.71863 10.9128 6.05963 10.9128 8.67038C10.9128 11.2811 12.0899 13.6221 13.9512 15.2117C14.0591 15.3056 14.1719 15.3947 14.2847 15.4838C14.3975 15.3947 14.5104 15.3056 14.6183 15.2117C16.4796 13.6221 17.6567 11.2811 17.6567 8.67038C17.6567 6.05963 16.4796 3.71863 14.6183 2.12906C14.5104 2.03513 14.4 1.94361 14.2847 1.85691Z" fill="#2F2F2F"/>
</svg>
