<svg width="47" height="14" viewBox="0 0 47 14" fill="none" xmlns="http://www.w3.org/2000/svg">
<path d="M30.1621 0C26.8742 0 23.9358 1.59035 23.9358 4.52797C23.9358 7.89725 29.147 8.12994 29.147 9.82279C29.147 10.5356 28.2718 11.1735 26.7764 11.1735C24.6548 11.1735 23.069 10.2821 23.069 10.2821L22.3904 13.247C22.3904 13.247 24.2172 14 26.6425 14C30.2372 14 33.0662 12.3318 33.0662 9.34357C33.0662 5.78313 27.8333 5.55735 27.8333 3.98647C27.8333 3.42809 28.5518 2.81652 30.0425 2.81652C31.7247 2.81609 33.0968 3.46443 33.0968 3.46443L33.761 0.601192C33.761 0.601192 32.2675 0 30.1621 0ZM0.079729 0.216256L0 0.648336C0 0.648336 1.3832 0.884488 2.6292 1.35593C4.23352 1.89614 4.34755 2.211 4.61779 3.18762L7.56174 13.7768H11.5083L17.5881 0.216256H13.6508L9.74408 9.43613L8.14997 1.62062C8.00349 0.726189 7.26322 0.216256 6.35653 0.216256H0.079729ZM19.1711 0.216256L16.0825 13.7768H19.8372L22.9151 0.216256H19.1711ZM40.112 0.216256C39.2067 0.216256 38.727 0.668664 38.3751 1.45886L32.8743 13.7768H36.8116L37.5732 11.7237H42.3699L42.833 13.7768H46.3077L43.2771 0.216256H40.112ZM40.6242 3.87964L41.7914 8.96815H38.6648L40.6242 3.87964Z" fill="#2F2F2F"/>
</svg>
