<svg width="42" height="22" viewBox="0 0 42 22" fill="none" xmlns="http://www.w3.org/2000/svg">
<path d="M30.2742 0.873315C31.6289 0.873315 32.9451 1.13747 34.1846 1.65499C35.3857 2.15633 36.4607 2.87332 37.393 3.78437C38.3199 4.69542 39.0493 5.75741 39.5594 6.93801C40.0859 8.15634 40.3546 9.45014 40.3546 10.7817C40.3546 12.1132 40.0859 13.407 39.5594 14.6253C39.0493 15.8059 38.3199 16.8625 37.393 17.779C36.4662 18.69 35.3857 19.407 34.1846 19.9084C32.9451 20.4259 31.6289 20.69 30.2742 20.69H10.9689C9.61426 20.69 8.29799 20.4259 7.0585 19.9084C5.8574 19.407 4.78245 18.69 3.85009 17.779C2.92322 16.8679 2.19378 15.8059 1.68373 14.6253C1.15722 13.407 0.888482 12.1132 0.888482 10.7817C0.888482 9.45014 1.15722 8.15634 1.68373 6.93801C2.19378 5.75741 2.92322 4.70081 3.85009 3.78437C4.77696 2.87332 5.8574 2.15633 7.0585 1.65499C8.29799 1.13747 9.61426 0.873315 10.9689 0.873315H30.2742ZM30.2742 0H10.9689C4.93601 0 0 4.85175 0 10.7817C0 16.7116 4.93601 21.5633 10.9689 21.5633H30.2742C36.3071 21.5633 41.2431 16.7116 41.2431 10.7817C41.2431 4.85175 36.3071 0 30.2742 0Z" fill="#424242"/>
<path d="M19.6673 14.8088H18.6143V6.75484H21.4059C22.1134 6.75484 22.7167 6.98665 23.2103 7.45026C23.7148 7.91387 23.9671 8.47991 23.9671 9.14838C23.9671 9.83302 23.7148 10.3991 23.2103 10.8573C22.7221 11.3155 22.1188 11.5419 21.4059 11.5419H19.6673V14.8088ZM19.6673 7.74676V10.5554H21.4278C21.8446 10.5554 22.1956 10.4152 22.4699 10.1403C22.7496 9.86536 22.8922 9.53113 22.8922 9.15377C22.8922 8.7818 22.7496 8.45296 22.4699 8.17802C22.1956 7.89231 21.8501 7.75215 21.4278 7.75215H19.6673V7.74676Z" fill="#424242"/>
<path d="M26.7203 9.11602C27.4991 9.11602 28.1134 9.32088 28.5631 9.73058C29.0128 10.1403 29.2377 10.7009 29.2377 11.4125V14.8087H28.234V14.0432H28.1901C27.7569 14.674 27.1755 14.9866 26.4516 14.9866C25.8318 14.9866 25.3163 14.8087 24.8995 14.4476C24.4826 14.0864 24.2742 13.6389 24.2742 13.0999C24.2742 12.5284 24.4936 12.0756 24.9324 11.7414C25.3711 11.4017 25.958 11.2346 26.6874 11.2346C27.3126 11.2346 27.8282 11.3478 28.2285 11.5742V11.337C28.2285 10.9759 28.0859 10.674 27.7953 10.4206C27.5046 10.1672 27.1646 10.0432 26.7752 10.0432C26.1883 10.0432 25.7221 10.2858 25.3821 10.7764L24.4552 10.205C24.9653 9.47721 25.7221 9.11602 26.7203 9.11602ZM25.3602 13.116C25.3602 13.3856 25.4753 13.612 25.7112 13.7899C25.9415 13.9678 26.2157 14.0594 26.5284 14.0594C26.9726 14.0594 27.3675 13.8977 27.713 13.5742C28.0585 13.2508 28.234 12.8734 28.234 12.4368C27.905 12.1834 27.4497 12.054 26.8629 12.054C26.4351 12.054 26.0786 12.1565 25.7934 12.3559C25.5028 12.5662 25.3602 12.8195 25.3602 13.116Z" fill="#424242"/>
<path d="M34.9634 9.29392L31.4533 17.2293H30.3674L31.6727 14.453L29.3583 9.29392H30.5045L32.1718 13.2508H32.1937L33.8171 9.29392H34.9634Z" fill="#424242"/>
<path d="M15.4788 10.8896C15.4788 10.5521 15.4481 10.2292 15.3911 9.91872H10.9772V11.6977L13.5192 11.6982C13.4161 12.2901 13.0843 12.7947 12.5759 13.1311V14.2853H14.089C14.9726 13.4815 15.4788 12.2934 15.4788 10.8896Z" fill="#2F2F2F"/>
<path d="M12.5759 13.1311C12.1547 13.4104 11.6128 13.5737 10.9783 13.5737C9.75248 13.5737 8.71263 12.7618 8.34023 11.6675L7.40795 12.3784L6.77936 12.8578C7.55267 14.3661 9.14206 15.4012 10.9783 15.4012C12.2474 15.4012 13.313 14.9915 14.089 14.2853L12.5759 13.1311Z" fill="#424242"/>
<path d="M8.19325 10.7845C8.19325 10.4772 8.24535 10.1802 8.34024 9.90093L7.90233 9.56699L6.77936 8.71063C6.45961 9.33435 6.27972 10.0384 6.27972 10.7845C6.27972 11.5306 6.46016 12.2341 6.77936 12.8578L8.34023 11.6675C8.24535 11.3882 8.19325 11.0918 8.19325 10.7845Z" fill="#424242"/>
<path d="M10.9783 7.99473C11.6709 7.99473 12.2912 8.22923 12.781 8.68745L14.122 7.37047C13.3075 6.62492 12.2457 6.16724 10.9783 6.16724C9.14261 6.16724 7.55267 7.20228 6.77936 8.71063L8.34024 9.90093C8.71263 8.80659 9.75248 7.99473 10.9783 7.99473Z" fill="#424242"/>
</svg>
