<svg width="82" height="18" viewBox="0 0 82 18" fill="none" xmlns="http://www.w3.org/2000/svg">
<path d="M19.3915 12.191C21.2064 12.1989 22.3446 13.3117 22.3446 15.1034C22.3446 16.7729 21.2301 18 19.3915 18C17.5529 18 16.4384 16.8861 16.4384 15.0876C16.4384 13.417 17.5517 12.191 19.3915 12.191ZM33.6209 13.8039C34.6579 13.8039 35.2746 14.1496 35.2746 15.2567V17.9197H34.6375V17.2283C34.4277 17.673 33.9117 17.9796 33.2741 17.9796C32.4747 17.9796 31.9424 17.5519 31.9424 16.7282C31.9424 15.8411 32.5715 15.5832 33.6452 15.5832H34.6053V15.2607C34.6053 14.5688 34.2019 14.381 33.6209 14.381C33.3455 14.3738 33.0731 14.4403 32.832 14.5736C32.5908 14.7069 32.3895 14.9021 32.249 15.1391V14.192C32.5149 13.9906 33.0003 13.8039 33.6209 13.8039ZM31.1079 13.8848V17.9174H30.4386V14.4828H28.8744L28.8659 14.7889C28.7612 17.7986 28.1565 17.9683 27.5675 17.9683C27.4583 17.9698 27.3494 17.9561 27.2439 17.9276V17.2091C27.3101 17.2244 27.3774 17.2323 27.4453 17.2329C27.8583 17.2329 28.1723 17.1174 28.2521 14.4421L28.2679 13.8848H31.1079ZM41.5548 13.886V15.5719H43.6854V13.886H44.3546V17.9197H43.6854V16.1761H41.5548V17.9197H40.8861V13.886H41.5548ZM23.8376 13.886V15.5719H25.9682V13.886H26.6375V17.9197H25.9682V16.1761H23.8376V17.9197H23.1684V13.886H23.8376ZM36.965 13.8871V16.8827L39.2393 13.8871H39.8276V17.9197H39.1584V14.8941L36.969 17.8229L36.8965 17.9191H36.2952V13.8871H36.965ZM34.6053 16.1201H33.665C32.9392 16.1201 32.628 16.2349 32.628 16.696C32.628 17.0914 32.9036 17.3652 33.4438 17.3652C34.2664 17.3652 34.5646 16.8334 34.6053 16.5591V16.1201ZM19.387 12.836C18.0309 12.8444 17.1976 13.7474 17.1976 15.0955C17.1976 16.3299 17.9166 17.2855 19.2682 17.3517L19.4 17.3545L19.5245 17.3522C20.7985 17.2979 21.5888 16.408 21.5888 15.0955C21.5888 13.8215 20.8228 12.8439 19.387 12.836ZM37.4408 11.881C37.4408 12.2764 37.6501 12.5022 38.0936 12.5022C38.4489 12.5022 38.699 12.3868 38.699 11.881H39.336C39.336 12.6877 38.7307 13.026 38.11 13.026C37.3842 13.026 36.7953 12.6877 36.7953 11.881H37.4408ZM20.4596 2.40489C21.5068 2.40489 22.4244 2.72454 23.1095 3.32705L23.187 3.39493L22.0126 4.26108C21.578 3.95238 21.056 3.791 20.523 3.80057C19.047 3.80057 17.9755 4.85454 17.9755 6.30678C17.9755 7.75846 19.047 8.81243 20.523 8.81243C21.0168 8.81522 21.5033 8.6932 21.9373 8.45771L22.296 8.25235L23.3562 9.03363C22.6569 9.78267 21.6267 10.1934 20.446 10.1934C19.318 10.1934 18.2877 9.79512 17.5483 9.07154C17.1785 8.70343 16.8865 8.26462 16.6899 7.78126C16.4933 7.2979 16.396 6.77989 16.4038 6.25813C16.395 5.74148 16.4927 5.22856 16.691 4.75139C16.8893 4.27423 17.1838 3.84308 17.5562 3.48489C18.2923 2.78903 19.3236 2.40489 20.4596 2.40489ZM38.4478 2.51238L36.7336 3.77624H34.3462V5.63129H37.8436V6.89515H34.3462V8.83789H38.4472V10.1017H32.7084V2.51238H38.4478ZM43.1015 2.51238C45.0958 2.51238 46.3342 3.55277 46.3342 5.22792C46.3342 6.90307 45.0958 7.95194 43.1015 7.95194H41.6148V10.1006H39.9719V2.51238H43.1015ZM31.281 2.50786L29.5668 3.77511H26.3851V5.47006H28.3777C30.188 5.46553 31.1837 6.26379 31.1837 7.71207C31.1837 9.22712 30.0851 10.0961 28.1666 10.0961H24.7479V2.50786H31.281ZM55.6914 2.50786V3.77511H51.4088V5.47006H53.3946C55.2049 5.46553 56.2017 6.26379 56.2017 7.71207C56.2017 9.22712 55.1025 10.0961 53.1841 10.0961H49.7654V2.50786H55.6914ZM76.2809 2.49711V5.6856H77.1855L79.6244 2.49711H81.5072L78.6117 6.10821L81.9722 10.087H79.7698L77.2992 7.10277H76.2809V10.087H74.6204V2.49711H76.2809ZM61.7907 2.53558L65.004 10.0655H63.1897L62.5974 8.60254H59.1125L58.5201 10.0661H56.7663L60.0374 2.53558H61.7907ZM67.844 2.53558V5.67712H71.2554V2.53558H72.9543V10.0655H71.2549V7.09655H67.8446V10.0661H66.144V2.53501L67.844 2.53558ZM28.0931 6.73391H26.3851V8.8328H28.0931C29.1035 8.83789 29.6161 8.49222 29.6161 7.78618C29.6161 7.07901 29.1295 6.73391 28.0931 6.73391ZM53.1156 6.73391H51.4088V8.8328H53.1106L53.1162 8.83789C54.1266 8.83789 54.6392 8.49222 54.6392 7.78562C54.6392 7.07958 54.1521 6.73391 53.1156 6.73391ZM60.8662 4.30973L59.6708 7.23629H62.0492L60.8662 4.30973ZM43.0665 3.77511H41.6148V6.68752H43.0665C44.1176 6.68752 44.6935 6.17044 44.6935 5.23132C44.6935 4.29219 44.1165 3.77511 43.0665 3.77511ZM11.2488 2.44054C11.5453 2.82354 11.7987 3.24218 12.0013 3.68855L6.27998 7.90555L3.88974 6.40692V4.60391L6.27998 6.10312L11.2488 2.44054Z" fill="#2F2F2F"/>
<path d="M1.45087 6.28005C1.45087 6.19858 1.45314 6.11825 1.45653 6.03848L0.00824557 5.96607C-0.0367831 6.84256 0.102982 7.71873 0.41847 8.53771C0.733958 9.35669 1.21812 10.1002 1.83954 10.72L2.86691 9.69258C2.41793 9.24493 2.06173 8.71306 1.81873 8.12747C1.57574 7.54187 1.45073 6.91406 1.45087 6.28005Z" fill="#2F2F2F"/>
<path d="M6.28001 1.45038C6.36034 1.45038 6.44068 1.45377 6.52045 1.45773L6.59343 0.00831311C5.71688 -0.0369049 4.84062 0.102715 4.02153 0.418109C3.20244 0.733504 2.45883 1.21762 1.83897 1.83904L2.86579 2.86642C3.31334 2.41711 3.84526 2.06067 4.43098 1.81756C5.01671 1.57445 5.6447 1.44948 6.27888 1.44981L6.28001 1.45038Z" fill="#2F2F2F"/>
<path d="M6.28001 11.1087C6.19945 11.1085 6.11891 11.1066 6.03844 11.103L5.96602 12.5513C6.84252 12.5964 7.71868 12.4566 8.53767 12.1411C9.35665 11.8256 10.1001 11.3415 10.7199 10.72L9.6931 9.69267C9.24539 10.1417 8.71343 10.498 8.12773 10.741C7.54203 10.984 6.91412 11.1089 6.28001 11.1087Z" fill="#2F2F2F"/>
<path d="M9.0029 2.29335L10.2243 1.39383C9.10858 0.490192 7.71578 -0.00184148 6.28 0.000422133L6.28001 1.45038C7.28985 1.45038 8.22727 1.76213 9.0029 2.29335Z" fill="#2F2F2F"/>
<path d="M12.5597 6.28002C12.5597 5.89532 12.5246 5.51967 12.4584 5.1542L11.1069 6.1499C11.108 6.19346 11.1091 6.23589 11.1091 6.27889C11.1093 6.95356 10.9678 7.62075 10.6938 8.23726C10.4197 8.85377 10.0193 9.40584 9.51828 9.85774L10.493 10.9355C11.1444 10.3474 11.6649 9.6291 12.0208 8.827C12.3768 8.02491 12.5607 7.15754 12.5597 6.28002Z" fill="#2F2F2F"/>
<path d="M6.28001 11.1087C5.60534 11.1089 4.93814 10.9674 4.32163 10.6933C3.70512 10.4193 3.15305 10.0188 2.70115 9.51781L1.62399 10.4926C2.21191 11.1441 2.93021 11.6649 3.73231 12.021C4.53441 12.3771 5.4024 12.5607 6.28001 12.5598L6.28001 11.1087Z" fill="#2F2F2F"/>
<path d="M3.04173 2.70063L2.06696 1.6229C1.41536 2.211 0.894658 2.92951 0.538631 3.73181C0.182604 4.53412 -0.000797037 5.4023 0.000324513 6.28005L1.45087 6.28005C1.45075 5.60539 1.59228 4.93822 1.86633 4.32172C2.14037 3.70522 2.54081 3.15257 3.04173 2.70063Z" fill="#2F2F2F"/>
</svg>
