<svg width="67" height="18" viewBox="0 0 67 18" fill="none" xmlns="http://www.w3.org/2000/svg">
<path fill-rule="evenodd" clip-rule="evenodd" d="M45.2458 18H50.0068L52.053 12.3378L54.1802 10.6026L55.8561 15.7227C56.3739 17.3048 56.9074 18 58.0712 18H61.7167L57.9564 7.95282L66.9999 0H61.1596L55.6682 5.66221C55.0289 6.32079 54.3817 6.9705 53.7334 7.74549H53.6783L56.42 0H51.6579L45.2458 18Z" fill="#ABABAB"/>
<path fill-rule="evenodd" clip-rule="evenodd" d="M45.041 0.00110872C46.5346 0.00110872 47.982 0.00110872 49.1953 0.00221743L48.2128 2.97358C47.9044 3.90711 47.1199 4.35393 45.3922 4.35393C42.3916 4.35393 37.9525 4.35393 34.9519 4.35282L35.9345 1.38146C36.2429 0.446812 37.0262 0 38.755 0C40.5423 0 42.8407 0 45.041 0.00110872ZM36.3318 6.82304C39.3324 6.82304 43.7715 6.82304 46.7721 6.82414L45.7895 9.7955C45.4811 10.729 44.6966 11.1759 42.969 11.1759C39.9683 11.1759 35.5293 11.1759 32.5286 11.1747L33.5112 8.20339C33.8196 7.26985 34.603 6.82304 36.3318 6.82304ZM44.2295 13.6472C41.2289 13.6472 36.7899 13.6461 33.7892 13.6461C32.0604 13.6461 31.2771 14.0929 30.9687 15.0264L29.9861 17.9989C32.9867 17.9989 37.4258 18 40.4264 18C42.1541 18 42.9386 17.5532 43.247 16.6196L44.2295 13.6472Z" fill="#ABABAB"/>
<path fill-rule="evenodd" clip-rule="evenodd" d="M23.6572 4.33508L26.2122 4.33619C28.3889 4.33619 27.8926 6.92947 26.7907 9.45513C25.8194 11.6825 24.0996 13.6472 22.0466 13.6472H17.7865C16.087 13.6472 15.3036 14.094 14.9738 15.0275L13.9226 18H17.0459L20.0995 17.9756C22.8075 17.9545 25.0247 17.7672 27.6168 15.5464C30.3563 13.2004 33.5506 7.10354 33.0036 3.57783C32.5747 0.814906 31.0181 0.00110872 27.2465 0.00110872L20.3752 0L16.374 11.1637L18.9165 11.167C20.4292 11.1681 21.189 11.1869 21.9937 9.12251L23.6572 4.33508Z" fill="#ABABAB"/>
<path fill-rule="evenodd" clip-rule="evenodd" d="M11.9101 4.3506H9.98776C6.13735 4.35282 2.83845 13.6483 7.39118 13.6472H10.3164C12.0036 13.6472 13.2551 14.2348 12.7014 15.818L11.9372 17.9989H8.83522L6.31181 17.9745C3.08381 17.9435 1.00047 16.4267 0.250877 14.1228C-0.560623 11.6304 0.585157 6.43055 3.91107 3.09997C5.84134 1.16748 8.51445 0 11.9417 0L18.2727 0L17.2834 2.72411C16.6441 4.48476 15.3374 4.35282 14.5923 4.35282L11.9101 4.3506Z" fill="#ABABAB"/>
</svg>
