<svg width="25" height="25" viewBox="0 0 25 25" fill="none" xmlns="http://www.w3.org/2000/svg">
<path d="M12.5 0C5.59667 0 0 5.59667 0 12.5C0 19.4033 5.59667 25 12.5 25C19.4033 25 25 19.4033 25 12.5C25 5.59667 19.4033 0 12.5 0ZM16.3498 18.4479C16.3498 18.4479 16.036 19.23 15.1789 18.8554L10.0318 14.9073L10.0412 14.8089C10.0412 14.8089 15.755 9.67123 15.9891 9.45579C16.2233 9.24035 16.1437 9.18884 16.1437 9.18884C16.1577 8.92188 15.7222 9.18884 15.7222 9.18884L8.1538 13.9987L5.00187 12.9356C5.00187 12.9356 4.51948 12.7623 4.47265 12.3876C4.42582 12.0129 5.02061 11.8115 5.02061 11.8115L17.5581 6.89397C17.5581 6.89397 18.5884 6.43968 18.5884 7.18902L16.3498 18.4479Z" fill="white"/>
</svg>
