<svg width="18" height="18" viewBox="0 0 18 18" fill="none" xmlns="http://www.w3.org/2000/svg">
<path d="M1 17H0.25V17.75H1V17ZM16.3333 17V17.75H17.0833V17H16.3333ZM11.5489 9.30859V8.55859H11.2975L11.0969 8.71014L11.5489 9.30859ZM8.66667 11.4857L8.21461 12.0842L8.66667 12.4257L9.11872 12.0842L8.66667 11.4857ZM5.78442 9.30859L6.23647 8.71014L6.03584 8.55859H5.78442V9.30859ZM8.53909 8.60714C10.8645 8.60714 12.7687 6.74673 12.7687 4.42857H11.2687C11.2687 5.8975 10.0571 7.10714 8.53909 7.10714V8.60714ZM4.30951 4.42857C4.30951 6.74673 6.21363 8.60714 8.53909 8.60714V7.10714C7.0211 7.10714 5.80951 5.8975 5.80951 4.42857H4.30951ZM8.53909 0.25C6.21363 0.25 4.30951 2.11041 4.30951 4.42857H5.80951C5.80951 2.95964 7.0211 1.75 8.53909 1.75V0.25ZM12.7687 4.42857C12.7687 2.11041 10.8645 0.25 8.53909 0.25V1.75C10.0571 1.75 11.2687 2.95964 11.2687 4.42857H12.7687ZM16.3159 16.25H1V17.75H16.3159V16.25ZM16.3333 16.25H16.3159V17.75H16.3333V16.25ZM15.5833 12.52V17H17.0833V12.52H15.5833ZM13.0741 10.0586C14.4691 10.0586 15.5833 11.1684 15.5833 12.52H17.0833C17.0833 10.3174 15.2748 8.55859 13.0741 8.55859V10.0586ZM11.5489 10.0586H13.0741V8.55859H11.5489V10.0586ZM9.11872 12.0842L12.001 9.90705L11.0969 8.71014L8.21461 10.8873L9.11872 12.0842ZM5.33237 9.90705L8.21461 12.0842L9.11872 10.8873L6.23647 8.71014L5.33237 9.90705ZM4.2592 10.0586H5.78442V8.55859H4.2592V10.0586ZM1.75 12.52C1.75 11.1723 2.86023 10.0586 4.2592 10.0586V8.55859C2.05101 8.55859 0.25 10.3248 0.25 12.52H1.75ZM1.75 17V12.52H0.25V17H1.75Z" fill="#8F8F8F"/>
</svg>
