<svg width="57" height="17" viewBox="0 0 57 17" fill="none" xmlns="http://www.w3.org/2000/svg">
<path d="M37.1265 0C33.0794 0 29.4626 1.93114 29.4626 5.49825C29.4626 9.58951 35.8769 9.87207 35.8769 11.9277C35.8769 12.7932 34.7997 13.5679 32.959 13.5679C30.3475 13.5679 28.3956 12.4854 28.3956 12.4854L27.5603 16.0856C27.5603 16.0856 29.8089 17 32.7941 17C37.2189 17 40.7011 14.9743 40.7011 11.3458C40.7011 7.02237 34.2599 6.74822 34.2599 4.84071C34.2599 4.16269 35.1443 3.42006 36.9792 3.42006C39.0498 3.41954 40.7387 4.2068 40.7387 4.2068L41.5564 0.730019C41.5564 0.730019 39.718 0 37.1265 0ZM0.0981381 0.262597L0 0.787266C0 0.787266 1.70258 1.07402 3.23628 1.64648C5.21102 2.30245 5.35138 2.68479 5.68402 3.87068L9.30772 16.729H14.1656L21.6492 0.262597H16.8027L11.994 11.4582L10.0318 1.9679C9.85147 0.881801 8.94027 0.262597 7.82423 0.262597H0.0981381ZM23.5977 0.262597L19.7959 16.729H24.4176L28.2062 0.262597H23.5977ZM49.3738 0.262597C48.2594 0.262597 47.6689 0.81195 47.2358 1.77148L40.4649 16.729H45.3113L46.2487 14.2359H52.153L52.723 16.729H57L53.2696 0.262597H49.3738ZM50.0042 4.71099L51.4409 10.8899H47.5924L50.0042 4.71099Z" fill="#ABABAB"/>
</svg>
