<svg width="25" height="25" viewBox="0 0 25 25" fill="none" xmlns="http://www.w3.org/2000/svg">
<path fill-rule="evenodd" clip-rule="evenodd" d="M8.66613 0H16.3339C23.3331 0 25 1.6669 25 8.66613V16.3339C25 23.3331 23.3331 25 16.3339 25H8.66613C1.6669 25 0 23.3331 0 16.3339V8.66613C0 1.6669 1.6669 0 8.66613 0Z" fill="white"/>
<path fill-rule="evenodd" clip-rule="evenodd" d="M20.4756 8.61316C20.592 8.22686 20.4756 7.94287 19.9252 7.94287H18.1013C17.6374 7.94287 17.424 8.18806 17.3076 8.45794C17.3076 8.45794 16.3797 10.7175 15.0674 12.1851C14.6423 12.6102 14.45 12.746 14.2172 12.746C14.1008 12.746 13.9332 12.6102 13.9332 12.2239V8.61316C13.9332 8.14925 13.7991 7.94287 13.4128 7.94287H10.5482C10.2589 7.94287 10.0843 8.15807 10.0843 8.36268C10.0843 8.8019 10.7405 8.90421 10.8093 10.1389V12.8236C10.8093 13.4128 10.7035 13.5186 10.4706 13.5186C9.85324 13.5186 8.34862 11.2485 7.45784 8.65197C7.28321 8.14749 7.10859 7.94287 6.64291 7.94287H4.81902C4.29867 7.94287 4.1946 8.18806 4.1946 8.45794C4.1946 8.94125 4.81197 11.3349 7.07154 14.5029C8.57793 16.6654 10.6999 17.8384 12.6314 17.8384C13.7903 17.8384 13.9332 17.5774 13.9332 17.1294V15.4942C13.9332 14.9738 14.0425 14.8698 14.4094 14.8698C14.6793 14.8698 15.1432 15.0038 16.2245 16.0481C17.461 17.2846 17.6639 17.8384 18.3589 17.8384H20.181C20.7013 17.8384 20.9624 17.5774 20.8125 17.0641C20.6484 16.5526 20.0575 15.8082 19.2743 14.928C18.8492 14.4253 18.2124 13.8855 18.0184 13.6139C17.7485 13.2664 17.8261 13.1111 18.0184 12.8025C18.0219 12.8042 20.2445 9.67504 20.4756 8.61316Z" fill="black"/>
</svg>
