<svg width="25" height="25" viewBox="0 0 25 25" fill="none" xmlns="http://www.w3.org/2000/svg">
<path fill-rule="evenodd" clip-rule="evenodd" d="M16.3339 0H8.66613C1.6669 0 0 1.6669 0 8.66613V16.3339C0 23.3331 1.6669 25 8.66613 25H16.3339C23.3331 25 25 23.3331 25 16.3339V8.66613C25 1.6669 23.3331 0 16.3339 0ZM19.9252 7.94292C20.4756 7.94292 20.592 8.22691 20.4756 8.61321C20.2445 9.67509 18.0219 12.8043 18.0184 12.8025C17.8261 13.1112 17.7485 13.2664 18.0184 13.6139C18.1141 13.7478 18.3173 13.9469 18.5497 14.1745C18.7888 14.4087 19.0588 14.6731 19.2743 14.928C20.0575 15.8082 20.6484 16.5526 20.8125 17.0641C20.9624 17.5774 20.7013 17.8385 20.181 17.8385H18.3589C17.8709 17.8385 17.6256 17.5655 17.0948 16.975C16.8696 16.7244 16.5929 16.4165 16.2245 16.0481C15.1432 15.0039 14.6793 14.8698 14.4094 14.8698C14.0425 14.8698 13.9332 14.9739 13.9332 15.4942V17.1294C13.9332 17.5774 13.7903 17.8385 12.6314 17.8385C10.6999 17.8385 8.57793 16.6655 7.07155 14.5029C4.81197 11.3349 4.1946 8.9413 4.1946 8.45798C4.1946 8.1881 4.29867 7.94292 4.81902 7.94292H6.64291C7.10859 7.94292 7.28321 8.14753 7.45784 8.65201C8.34862 11.2485 9.85324 13.5187 10.4706 13.5187C10.7035 13.5187 10.8093 13.4128 10.8093 12.8237V10.139C10.7668 9.37593 10.4999 9.04536 10.3023 8.80049C10.1801 8.64913 10.0843 8.53051 10.0843 8.36273C10.0843 8.15812 10.2589 7.94292 10.5482 7.94292H13.4128C13.7991 7.94292 13.9332 8.1493 13.9332 8.61321V12.2239C13.9332 12.6102 14.1008 12.7461 14.2172 12.7461C14.45 12.7461 14.6423 12.6102 15.0674 12.1851C16.3797 10.7176 17.3076 8.45798 17.3076 8.45798C17.424 8.1881 17.6374 7.94292 18.1013 7.94292H19.9252Z" fill="#2F2F2F"/>
</svg>
