<svg width="24" height="24" viewBox="0 0 24 24" fill="none" xmlns="http://www.w3.org/2000/svg">
<g clip-path="url(#clip0_314_8850)">
<path fill-rule="evenodd" clip-rule="evenodd" d="M8.31948 0H15.6805C22.3998 0 24 1.60023 24 8.31948V15.6805C24 22.3998 22.3998 24 15.6805 24H8.31948C1.60023 24 0 22.3998 0 15.6805V8.31948C0 1.60023 1.60023 0 8.31948 0Z" fill="#0066FF"/>
<path fill-rule="evenodd" clip-rule="evenodd" d="M19.6566 8.26866C19.7683 7.89781 19.6566 7.62518 19.1282 7.62518H17.3773C16.932 7.62518 16.7271 7.86056 16.6153 8.11964C16.6153 8.11964 15.7246 10.2888 14.4647 11.6977C14.0566 12.1058 13.8721 12.2362 13.6485 12.2362C13.5368 12.2362 13.3759 12.1058 13.3759 11.735V8.26866C13.3759 7.82331 13.2472 7.62518 12.8764 7.62518H10.1263C9.84863 7.62518 9.68099 7.83177 9.68099 8.0282C9.68099 8.44985 10.3109 8.54806 10.377 9.73342V12.3107C10.377 12.8763 10.2754 12.9779 10.0518 12.9779C9.45916 12.9779 8.01472 10.7985 7.15957 8.30591C6.99193 7.82161 6.82429 7.62518 6.37724 7.62518H4.6263C4.12676 7.62518 4.02686 7.86056 4.02686 8.11964C4.02686 8.58363 4.61953 10.8815 6.78873 13.9228C8.23486 15.9989 10.272 17.1249 12.1262 17.1249C13.2387 17.1249 13.3759 16.8743 13.3759 16.4442V14.8745C13.3759 14.3749 13.4809 14.275 13.8331 14.275C14.0922 14.275 14.5375 14.4037 15.5756 15.4062C16.7626 16.5932 16.9574 17.1249 17.6245 17.1249H19.3738C19.8733 17.1249 20.1239 16.8743 19.98 16.3816C19.8225 15.8905 19.2552 15.1759 18.5034 14.3309C18.0953 13.8483 17.484 13.3301 17.2977 13.0693C17.0386 12.7357 17.1131 12.5867 17.2977 12.2904C17.3011 12.2921 19.4347 9.28806 19.6566 8.26866Z" fill="white"/>
</g>
<defs>
<clipPath id="clip0_314_8850">
<rect width="24" height="24" fill="white"/>
</clipPath>
</defs>
</svg>
