<svg width="25" height="25" viewBox="0 0 25 25" fill="none" xmlns="http://www.w3.org/2000/svg">
<g clip-path="url(#clip0_2_340)">
<path d="M18.2862 15.0001C17.9329 14.8246 16.4311 14.1229 16.1661 14.0352C15.9011 13.9474 15.6361 13.8597 15.4594 14.2106C15.2827 14.5615 14.6643 15.1755 14.4876 15.4387C14.311 15.6141 14.1343 15.7018 13.7809 15.5264C13.4276 15.3509 12.4558 15.0878 11.3074 14.0352C10.424 13.2457 9.71732 12.193 9.54065 11.9299C9.36397 11.579 9.54065 11.4913 9.71732 11.3159C9.894 11.1404 10.0707 10.965 10.159 10.7895C10.2474 10.6141 10.3357 10.4387 10.5124 10.2632C10.6007 10.0878 10.6007 9.91235 10.5124 9.73691C10.424 9.56147 9.80566 8.07024 9.54065 7.45621C9.27563 6.84217 9.01061 6.92989 8.83393 6.92989C8.65725 6.92989 8.48058 6.92989 8.21556 6.92989C7.95054 6.66673 7.59718 6.75445 7.33217 7.01761C7.06715 7.36849 6.27209 8.07024 6.27209 9.64919C6.27209 11.2281 7.4205 12.6316 7.50884 12.8071C7.59718 12.9825 9.71732 16.1404 12.8092 17.4562C13.5159 17.8071 14.1343 17.9825 14.576 18.0702C15.2827 18.3334 15.9894 18.2457 16.5194 18.158C17.1378 18.0702 18.3746 17.3685 18.6396 16.6667C18.9046 15.965 18.9046 15.3509 18.8163 15.1755C18.8163 15.1755 18.5512 15.0878 18.2862 15.0001Z" fill="white"/>
<path d="M21.3781 3.59649C19.0813 1.31579 15.9011 0 12.5442 0C5.74205 0 0.0883392 5.52632 0.0883392 12.3684C0.0883392 14.5614 0.618375 16.6667 1.76678 18.5965L0 25L6.62544 23.2456C8.48057 24.2105 10.5124 24.7368 12.5442 24.7368C19.4346 24.7368 25 19.2105 25 12.3684C25 9.03509 23.7633 5.96491 21.3781 3.59649ZM12.5442 22.6316C10.689 22.6316 8.83392 22.1053 7.24382 21.2281L6.89046 21.0526L3.00353 22.1053L4.0636 18.3333L3.79859 17.9825C2.73852 16.3158 2.20848 14.4737 2.20848 12.5439C2.20848 6.84211 6.89046 2.2807 12.5442 2.2807C15.2827 2.2807 17.9329 3.33333 19.8763 5.26316C21.8198 7.19298 22.9682 9.64912 22.9682 12.3684C22.9682 18.0702 18.2862 22.6316 12.5442 22.6316Z" fill="white"/>
</g>
<defs>
<clipPath id="clip0_2_340">
<rect width="25" height="25" fill="white"/>
</clipPath>
</defs>
</svg>
