<svg width="25" height="25" viewBox="0 0 25 25" fill="none" xmlns="http://www.w3.org/2000/svg">
<g clip-path="url(#clip0_4_1295)">
<path d="M0 25L1.75064 18.7886C0.625118 16.8777 0.0321579 14.7035 0.0321579 12.4706C0.0321579 5.59403 5.63233 0 12.5165 0C19.4006 0 25.0008 5.59403 25.0008 12.4706C25.0008 19.3472 19.4006 24.9412 12.5165 24.9412C10.3713 24.9412 8.27163 24.3928 6.41354 23.3516L0 25ZM6.7406 21.0826L7.12258 21.3153C8.74224 22.3033 10.6074 22.8251 12.5157 22.8251C18.2319 22.8251 22.8823 18.1798 22.8823 12.4698C22.8823 6.75985 18.2319 2.11539 12.5165 2.11539C6.801 2.11539 2.14987 6.76063 2.14987 12.4706C2.14987 14.4599 2.71616 16.3919 3.78679 18.0576L4.04405 18.458L3.03539 22.0345L6.7406 21.0826Z" fill="#2F2F2F"/>
<path d="M9.00898 6.6666L8.19875 6.62272C7.94463 6.60862 7.69443 6.69402 7.50226 6.8609C7.10931 7.20171 6.48184 7.85983 6.28889 8.71853C6.00104 9.99794 6.44576 11.5649 7.59638 13.1319C8.74701 14.6988 10.8906 17.2059 14.6813 18.277C15.9033 18.6217 16.8641 18.389 17.6053 17.9158C18.1928 17.5405 18.5975 16.938 18.7434 16.2572L18.8728 15.6539C18.9136 15.4619 18.8163 15.2676 18.6383 15.1854L15.901 13.9247C15.7229 13.8433 15.5127 13.895 15.3927 14.0493L14.3182 15.4408C14.2366 15.5458 14.0978 15.5873 13.9723 15.5434C13.2366 15.2849 10.7706 14.2538 9.41762 11.6503C9.35879 11.5375 9.37369 11.4004 9.45683 11.304L10.4843 10.117C10.5894 9.99559 10.6161 9.82558 10.5526 9.67829L9.37212 6.92044C9.30938 6.77315 9.16898 6.67521 9.00898 6.6666Z" fill="#2F2F2F"/>
</g>
<defs>
<clipPath id="clip0_4_1295">
<rect width="25" height="25" fill="white"/>
</clipPath>
</defs>
</svg>
